G04 #@! TF.FileFunction,Soldermask,Top*
%FSLAX46Y46*%
G04 Gerber Fmt 4.6, Leading zero omitted, Abs format (unit mm)*
G04 Created by KiCad (PCBNEW 4.0.5) date 09/11/17 10:35:41*
%MOMM*%
%LPD*%
G01*
G04 APERTURE LIST*
%ADD10C,0.100000*%
%ADD11C,0.010000*%
%ADD12R,2.000000X2.000000*%
%ADD13O,2.000000X2.000000*%
%ADD14C,2.000000*%
%ADD15O,2.127200X3.200000*%
%ADD16C,2.279600*%
%ADD17C,0.880000*%
G04 APERTURE END LIST*
D10*
D11*
G36*
X111972679Y-66062647D02*
X111972585Y-66229773D01*
X111972243Y-66374373D01*
X111971564Y-66498229D01*
X111970459Y-66603122D01*
X111968838Y-66690830D01*
X111966613Y-66763136D01*
X111963695Y-66821820D01*
X111959993Y-66868662D01*
X111955420Y-66905442D01*
X111949886Y-66933943D01*
X111943302Y-66955943D01*
X111935579Y-66973224D01*
X111926627Y-66987566D01*
X111926358Y-66987942D01*
X111883770Y-67027601D01*
X111821189Y-67057458D01*
X111741301Y-67076457D01*
X111686949Y-67082157D01*
X111583780Y-67088593D01*
X111583780Y-66983579D01*
X111584058Y-66933053D01*
X111585799Y-66902061D01*
X111590365Y-66885831D01*
X111599116Y-66879589D01*
X111613415Y-66878564D01*
X111613735Y-66878564D01*
X111642896Y-66869314D01*
X111656271Y-66855057D01*
X111659220Y-66837072D01*
X111661783Y-66795003D01*
X111663957Y-66729070D01*
X111665736Y-66639493D01*
X111667119Y-66526492D01*
X111668101Y-66390285D01*
X111668679Y-66231092D01*
X111668852Y-66065105D01*
X111668852Y-65298660D01*
X111972679Y-65298660D01*
X111972679Y-66062647D01*
X111972679Y-66062647D01*
G37*
X111972679Y-66062647D02*
X111972585Y-66229773D01*
X111972243Y-66374373D01*
X111971564Y-66498229D01*
X111970459Y-66603122D01*
X111968838Y-66690830D01*
X111966613Y-66763136D01*
X111963695Y-66821820D01*
X111959993Y-66868662D01*
X111955420Y-66905442D01*
X111949886Y-66933943D01*
X111943302Y-66955943D01*
X111935579Y-66973224D01*
X111926627Y-66987566D01*
X111926358Y-66987942D01*
X111883770Y-67027601D01*
X111821189Y-67057458D01*
X111741301Y-67076457D01*
X111686949Y-67082157D01*
X111583780Y-67088593D01*
X111583780Y-66983579D01*
X111584058Y-66933053D01*
X111585799Y-66902061D01*
X111590365Y-66885831D01*
X111599116Y-66879589D01*
X111613415Y-66878564D01*
X111613735Y-66878564D01*
X111642896Y-66869314D01*
X111656271Y-66855057D01*
X111659220Y-66837072D01*
X111661783Y-66795003D01*
X111663957Y-66729070D01*
X111665736Y-66639493D01*
X111667119Y-66526492D01*
X111668101Y-66390285D01*
X111668679Y-66231092D01*
X111668852Y-66065105D01*
X111668852Y-65298660D01*
X111972679Y-65298660D01*
X111972679Y-66062647D01*
G36*
X111215680Y-65288829D02*
X111306181Y-65320091D01*
X111385061Y-65368826D01*
X111449251Y-65433695D01*
X111485042Y-65490409D01*
X111498125Y-65518384D01*
X111508814Y-65547480D01*
X111517313Y-65580335D01*
X111523828Y-65619587D01*
X111528565Y-65667873D01*
X111531729Y-65727832D01*
X111533524Y-65802100D01*
X111534158Y-65893316D01*
X111533834Y-66004116D01*
X111533040Y-66106842D01*
X111531955Y-66221799D01*
X111530869Y-66315181D01*
X111529610Y-66389714D01*
X111528004Y-66448130D01*
X111525878Y-66493156D01*
X111523059Y-66527523D01*
X111519373Y-66553959D01*
X111514648Y-66575193D01*
X111508710Y-66593954D01*
X111501386Y-66612972D01*
X111500821Y-66614374D01*
X111458067Y-66691923D01*
X111398849Y-66758696D01*
X111328395Y-66809450D01*
X111287484Y-66828364D01*
X111218538Y-66847315D01*
X111139050Y-66858579D01*
X111059704Y-66861240D01*
X110991186Y-66854386D01*
X110988828Y-66853902D01*
X110892033Y-66822574D01*
X110811003Y-66772907D01*
X110746243Y-66705481D01*
X110698254Y-66620874D01*
X110667540Y-66519663D01*
X110660396Y-66476152D01*
X110656554Y-66432112D01*
X110653505Y-66368324D01*
X110651250Y-66289334D01*
X110649787Y-66199688D01*
X110649118Y-66103932D01*
X110649241Y-66006612D01*
X110649757Y-65953439D01*
X110953139Y-65953439D01*
X110953515Y-66050020D01*
X110954014Y-66112918D01*
X110955184Y-66224534D01*
X110956442Y-66314417D01*
X110957935Y-66385143D01*
X110959810Y-66439286D01*
X110962215Y-66479420D01*
X110965297Y-66508120D01*
X110969205Y-66527961D01*
X110974085Y-66541516D01*
X110979058Y-66549947D01*
X111020465Y-66589064D01*
X111072344Y-66608855D01*
X111128808Y-66607974D01*
X111169466Y-66593539D01*
X111186353Y-66583811D01*
X111200188Y-66572200D01*
X111211275Y-66556345D01*
X111219917Y-66533886D01*
X111226416Y-66502459D01*
X111231076Y-66459706D01*
X111234200Y-66403264D01*
X111236092Y-66330772D01*
X111237053Y-66239869D01*
X111237389Y-66128194D01*
X111237416Y-66064306D01*
X111237322Y-65949151D01*
X111236962Y-65855745D01*
X111236220Y-65781529D01*
X111234980Y-65723946D01*
X111233124Y-65680438D01*
X111230539Y-65648448D01*
X111227105Y-65625418D01*
X111222709Y-65608790D01*
X111217232Y-65596008D01*
X111216022Y-65593733D01*
X111190212Y-65557738D01*
X111157518Y-65537688D01*
X111110984Y-65530003D01*
X111091443Y-65529569D01*
X111035549Y-65539869D01*
X110993275Y-65569872D01*
X110966087Y-65618227D01*
X110958094Y-65652163D01*
X110956290Y-65677114D01*
X110954864Y-65723043D01*
X110953843Y-65786624D01*
X110953259Y-65864531D01*
X110953139Y-65953439D01*
X110649757Y-65953439D01*
X110650158Y-65912272D01*
X110651868Y-65825460D01*
X110654370Y-65750720D01*
X110657666Y-65692598D01*
X110660396Y-65664613D01*
X110683720Y-65556473D01*
X110723443Y-65466226D01*
X110779829Y-65393587D01*
X110853138Y-65338274D01*
X110943634Y-65300002D01*
X111012088Y-65284079D01*
X111116627Y-65276379D01*
X111215680Y-65288829D01*
X111215680Y-65288829D01*
G37*
X111215680Y-65288829D02*
X111306181Y-65320091D01*
X111385061Y-65368826D01*
X111449251Y-65433695D01*
X111485042Y-65490409D01*
X111498125Y-65518384D01*
X111508814Y-65547480D01*
X111517313Y-65580335D01*
X111523828Y-65619587D01*
X111528565Y-65667873D01*
X111531729Y-65727832D01*
X111533524Y-65802100D01*
X111534158Y-65893316D01*
X111533834Y-66004116D01*
X111533040Y-66106842D01*
X111531955Y-66221799D01*
X111530869Y-66315181D01*
X111529610Y-66389714D01*
X111528004Y-66448130D01*
X111525878Y-66493156D01*
X111523059Y-66527523D01*
X111519373Y-66553959D01*
X111514648Y-66575193D01*
X111508710Y-66593954D01*
X111501386Y-66612972D01*
X111500821Y-66614374D01*
X111458067Y-66691923D01*
X111398849Y-66758696D01*
X111328395Y-66809450D01*
X111287484Y-66828364D01*
X111218538Y-66847315D01*
X111139050Y-66858579D01*
X111059704Y-66861240D01*
X110991186Y-66854386D01*
X110988828Y-66853902D01*
X110892033Y-66822574D01*
X110811003Y-66772907D01*
X110746243Y-66705481D01*
X110698254Y-66620874D01*
X110667540Y-66519663D01*
X110660396Y-66476152D01*
X110656554Y-66432112D01*
X110653505Y-66368324D01*
X110651250Y-66289334D01*
X110649787Y-66199688D01*
X110649118Y-66103932D01*
X110649241Y-66006612D01*
X110649757Y-65953439D01*
X110953139Y-65953439D01*
X110953515Y-66050020D01*
X110954014Y-66112918D01*
X110955184Y-66224534D01*
X110956442Y-66314417D01*
X110957935Y-66385143D01*
X110959810Y-66439286D01*
X110962215Y-66479420D01*
X110965297Y-66508120D01*
X110969205Y-66527961D01*
X110974085Y-66541516D01*
X110979058Y-66549947D01*
X111020465Y-66589064D01*
X111072344Y-66608855D01*
X111128808Y-66607974D01*
X111169466Y-66593539D01*
X111186353Y-66583811D01*
X111200188Y-66572200D01*
X111211275Y-66556345D01*
X111219917Y-66533886D01*
X111226416Y-66502459D01*
X111231076Y-66459706D01*
X111234200Y-66403264D01*
X111236092Y-66330772D01*
X111237053Y-66239869D01*
X111237389Y-66128194D01*
X111237416Y-66064306D01*
X111237322Y-65949151D01*
X111236962Y-65855745D01*
X111236220Y-65781529D01*
X111234980Y-65723946D01*
X111233124Y-65680438D01*
X111230539Y-65648448D01*
X111227105Y-65625418D01*
X111222709Y-65608790D01*
X111217232Y-65596008D01*
X111216022Y-65593733D01*
X111190212Y-65557738D01*
X111157518Y-65537688D01*
X111110984Y-65530003D01*
X111091443Y-65529569D01*
X111035549Y-65539869D01*
X110993275Y-65569872D01*
X110966087Y-65618227D01*
X110958094Y-65652163D01*
X110956290Y-65677114D01*
X110954864Y-65723043D01*
X110953843Y-65786624D01*
X110953259Y-65864531D01*
X110953139Y-65953439D01*
X110649757Y-65953439D01*
X110650158Y-65912272D01*
X110651868Y-65825460D01*
X110654370Y-65750720D01*
X110657666Y-65692598D01*
X110660396Y-65664613D01*
X110683720Y-65556473D01*
X110723443Y-65466226D01*
X110779829Y-65393587D01*
X110853138Y-65338274D01*
X110943634Y-65300002D01*
X111012088Y-65284079D01*
X111116627Y-65276379D01*
X111215680Y-65288829D01*
G36*
X112658373Y-65289377D02*
X112745349Y-65317041D01*
X112819956Y-65359021D01*
X112877911Y-65413890D01*
X112884456Y-65422525D01*
X112907920Y-65457805D01*
X112926213Y-65493566D01*
X112940056Y-65533563D01*
X112950171Y-65581550D01*
X112957276Y-65641282D01*
X112962094Y-65716513D01*
X112965344Y-65810999D01*
X112966229Y-65848588D01*
X112971690Y-66100765D01*
X112398038Y-66100765D01*
X112398057Y-66298253D01*
X112399101Y-66388025D01*
X112402757Y-66456877D01*
X112409838Y-66508129D01*
X112421159Y-66545099D01*
X112437531Y-66571107D01*
X112459771Y-66589473D01*
X112470957Y-66595656D01*
X112521111Y-66609997D01*
X112573151Y-66607436D01*
X112620029Y-66589841D01*
X112654697Y-66559084D01*
X112663040Y-66544693D01*
X112669552Y-66517634D01*
X112674394Y-66471546D01*
X112677122Y-66411679D01*
X112677560Y-66373638D01*
X112677560Y-66234449D01*
X112969234Y-66234449D01*
X112969023Y-66352942D01*
X112965164Y-66444917D01*
X112954605Y-66531797D01*
X112938382Y-66607506D01*
X112917530Y-66665967D01*
X112914753Y-66671560D01*
X112872525Y-66731128D01*
X112813878Y-66783894D01*
X112746700Y-66823051D01*
X112732520Y-66828807D01*
X112653768Y-66849918D01*
X112565318Y-66860211D01*
X112478283Y-66858915D01*
X112422344Y-66850284D01*
X112325486Y-66816361D01*
X112243993Y-66763818D01*
X112178661Y-66693333D01*
X112130288Y-66605581D01*
X112128360Y-66600830D01*
X112120964Y-66581368D01*
X112114990Y-66561981D01*
X112110254Y-66539849D01*
X112106572Y-66512149D01*
X112103759Y-66476058D01*
X112101629Y-66428754D01*
X112100000Y-66367414D01*
X112098685Y-66289218D01*
X112097501Y-66191341D01*
X112096727Y-66117194D01*
X112095888Y-65990838D01*
X112096054Y-65880076D01*
X112097194Y-65786706D01*
X112097947Y-65759875D01*
X112398038Y-65759875D01*
X112398038Y-65882009D01*
X112677560Y-65882009D01*
X112677560Y-65766164D01*
X112673617Y-65680525D01*
X112661031Y-65616079D01*
X112638664Y-65570902D01*
X112605380Y-65543067D01*
X112560041Y-65530650D01*
X112537799Y-65529569D01*
X112486880Y-65535854D01*
X112448780Y-65556102D01*
X112422230Y-65592405D01*
X112405960Y-65646852D01*
X112398704Y-65721535D01*
X112398038Y-65759875D01*
X112097947Y-65759875D01*
X112099276Y-65712528D01*
X112102267Y-65659343D01*
X112105430Y-65632355D01*
X112134404Y-65528591D01*
X112179722Y-65442806D01*
X112241533Y-65374855D01*
X112319989Y-65324592D01*
X112415240Y-65291868D01*
X112464465Y-65282705D01*
X112563317Y-65277456D01*
X112658373Y-65289377D01*
X112658373Y-65289377D01*
G37*
X112658373Y-65289377D02*
X112745349Y-65317041D01*
X112819956Y-65359021D01*
X112877911Y-65413890D01*
X112884456Y-65422525D01*
X112907920Y-65457805D01*
X112926213Y-65493566D01*
X112940056Y-65533563D01*
X112950171Y-65581550D01*
X112957276Y-65641282D01*
X112962094Y-65716513D01*
X112965344Y-65810999D01*
X112966229Y-65848588D01*
X112971690Y-66100765D01*
X112398038Y-66100765D01*
X112398057Y-66298253D01*
X112399101Y-66388025D01*
X112402757Y-66456877D01*
X112409838Y-66508129D01*
X112421159Y-66545099D01*
X112437531Y-66571107D01*
X112459771Y-66589473D01*
X112470957Y-66595656D01*
X112521111Y-66609997D01*
X112573151Y-66607436D01*
X112620029Y-66589841D01*
X112654697Y-66559084D01*
X112663040Y-66544693D01*
X112669552Y-66517634D01*
X112674394Y-66471546D01*
X112677122Y-66411679D01*
X112677560Y-66373638D01*
X112677560Y-66234449D01*
X112969234Y-66234449D01*
X112969023Y-66352942D01*
X112965164Y-66444917D01*
X112954605Y-66531797D01*
X112938382Y-66607506D01*
X112917530Y-66665967D01*
X112914753Y-66671560D01*
X112872525Y-66731128D01*
X112813878Y-66783894D01*
X112746700Y-66823051D01*
X112732520Y-66828807D01*
X112653768Y-66849918D01*
X112565318Y-66860211D01*
X112478283Y-66858915D01*
X112422344Y-66850284D01*
X112325486Y-66816361D01*
X112243993Y-66763818D01*
X112178661Y-66693333D01*
X112130288Y-66605581D01*
X112128360Y-66600830D01*
X112120964Y-66581368D01*
X112114990Y-66561981D01*
X112110254Y-66539849D01*
X112106572Y-66512149D01*
X112103759Y-66476058D01*
X112101629Y-66428754D01*
X112100000Y-66367414D01*
X112098685Y-66289218D01*
X112097501Y-66191341D01*
X112096727Y-66117194D01*
X112095888Y-65990838D01*
X112096054Y-65880076D01*
X112097194Y-65786706D01*
X112097947Y-65759875D01*
X112398038Y-65759875D01*
X112398038Y-65882009D01*
X112677560Y-65882009D01*
X112677560Y-65766164D01*
X112673617Y-65680525D01*
X112661031Y-65616079D01*
X112638664Y-65570902D01*
X112605380Y-65543067D01*
X112560041Y-65530650D01*
X112537799Y-65529569D01*
X112486880Y-65535854D01*
X112448780Y-65556102D01*
X112422230Y-65592405D01*
X112405960Y-65646852D01*
X112398704Y-65721535D01*
X112398038Y-65759875D01*
X112097947Y-65759875D01*
X112099276Y-65712528D01*
X112102267Y-65659343D01*
X112105430Y-65632355D01*
X112134404Y-65528591D01*
X112179722Y-65442806D01*
X112241533Y-65374855D01*
X112319989Y-65324592D01*
X112415240Y-65291868D01*
X112464465Y-65282705D01*
X112563317Y-65277456D01*
X112658373Y-65289377D01*
G36*
X113635481Y-65284721D02*
X113725138Y-65309950D01*
X113802947Y-65351257D01*
X113844883Y-65386227D01*
X113888233Y-65438929D01*
X113919132Y-65499865D01*
X113939133Y-65573553D01*
X113949784Y-65664510D01*
X113951420Y-65696674D01*
X113956695Y-65833397D01*
X113664239Y-65833397D01*
X113660062Y-65710795D01*
X113657779Y-65654676D01*
X113654584Y-65617306D01*
X113649080Y-65593129D01*
X113639866Y-65576593D01*
X113625543Y-65562143D01*
X113621786Y-65558881D01*
X113578875Y-65535690D01*
X113529197Y-65529207D01*
X113479711Y-65538114D01*
X113437374Y-65561092D01*
X113409143Y-65596820D01*
X113408023Y-65599405D01*
X113403976Y-65617588D01*
X113400824Y-65651367D01*
X113398535Y-65702226D01*
X113397076Y-65771647D01*
X113396413Y-65861111D01*
X113396514Y-65972103D01*
X113397196Y-66087111D01*
X113400670Y-66540294D01*
X113440359Y-66575745D01*
X113490076Y-66605553D01*
X113543929Y-66612844D01*
X113596900Y-66597617D01*
X113628349Y-66575763D01*
X113668038Y-66540330D01*
X113672068Y-66387390D01*
X113676097Y-66234449D01*
X113953636Y-66234449D01*
X113953636Y-66379007D01*
X113950628Y-66480021D01*
X113940709Y-66561741D01*
X113922538Y-66628530D01*
X113894776Y-66684752D01*
X113856080Y-66734771D01*
X113838931Y-66752378D01*
X113774825Y-66804699D01*
X113715540Y-66834204D01*
X113629311Y-66853669D01*
X113533805Y-66860585D01*
X113440880Y-66854414D01*
X113407404Y-66848232D01*
X113314402Y-66815637D01*
X113235659Y-66763509D01*
X113171952Y-66692536D01*
X113124060Y-66603411D01*
X113119957Y-66592966D01*
X113114029Y-66575831D01*
X113109204Y-66556977D01*
X113105370Y-66533836D01*
X113102415Y-66503836D01*
X113100227Y-66464407D01*
X113098692Y-66412980D01*
X113097698Y-66346985D01*
X113097134Y-66263851D01*
X113096887Y-66161008D01*
X113096842Y-66064306D01*
X113096875Y-65945266D01*
X113097065Y-65847925D01*
X113097550Y-65769676D01*
X113098467Y-65707910D01*
X113099951Y-65660020D01*
X113102142Y-65623400D01*
X113105175Y-65595440D01*
X113109187Y-65573535D01*
X113114317Y-65555076D01*
X113120699Y-65537456D01*
X113125112Y-65526391D01*
X113168364Y-65448060D01*
X113228322Y-65380940D01*
X113299904Y-65330113D01*
X113339561Y-65311985D01*
X113438277Y-65285090D01*
X113538389Y-65276218D01*
X113635481Y-65284721D01*
X113635481Y-65284721D01*
G37*
X113635481Y-65284721D02*
X113725138Y-65309950D01*
X113802947Y-65351257D01*
X113844883Y-65386227D01*
X113888233Y-65438929D01*
X113919132Y-65499865D01*
X113939133Y-65573553D01*
X113949784Y-65664510D01*
X113951420Y-65696674D01*
X113956695Y-65833397D01*
X113664239Y-65833397D01*
X113660062Y-65710795D01*
X113657779Y-65654676D01*
X113654584Y-65617306D01*
X113649080Y-65593129D01*
X113639866Y-65576593D01*
X113625543Y-65562143D01*
X113621786Y-65558881D01*
X113578875Y-65535690D01*
X113529197Y-65529207D01*
X113479711Y-65538114D01*
X113437374Y-65561092D01*
X113409143Y-65596820D01*
X113408023Y-65599405D01*
X113403976Y-65617588D01*
X113400824Y-65651367D01*
X113398535Y-65702226D01*
X113397076Y-65771647D01*
X113396413Y-65861111D01*
X113396514Y-65972103D01*
X113397196Y-66087111D01*
X113400670Y-66540294D01*
X113440359Y-66575745D01*
X113490076Y-66605553D01*
X113543929Y-66612844D01*
X113596900Y-66597617D01*
X113628349Y-66575763D01*
X113668038Y-66540330D01*
X113672068Y-66387390D01*
X113676097Y-66234449D01*
X113953636Y-66234449D01*
X113953636Y-66379007D01*
X113950628Y-66480021D01*
X113940709Y-66561741D01*
X113922538Y-66628530D01*
X113894776Y-66684752D01*
X113856080Y-66734771D01*
X113838931Y-66752378D01*
X113774825Y-66804699D01*
X113715540Y-66834204D01*
X113629311Y-66853669D01*
X113533805Y-66860585D01*
X113440880Y-66854414D01*
X113407404Y-66848232D01*
X113314402Y-66815637D01*
X113235659Y-66763509D01*
X113171952Y-66692536D01*
X113124060Y-66603411D01*
X113119957Y-66592966D01*
X113114029Y-66575831D01*
X113109204Y-66556977D01*
X113105370Y-66533836D01*
X113102415Y-66503836D01*
X113100227Y-66464407D01*
X113098692Y-66412980D01*
X113097698Y-66346985D01*
X113097134Y-66263851D01*
X113096887Y-66161008D01*
X113096842Y-66064306D01*
X113096875Y-65945266D01*
X113097065Y-65847925D01*
X113097550Y-65769676D01*
X113098467Y-65707910D01*
X113099951Y-65660020D01*
X113102142Y-65623400D01*
X113105175Y-65595440D01*
X113109187Y-65573535D01*
X113114317Y-65555076D01*
X113120699Y-65537456D01*
X113125112Y-65526391D01*
X113168364Y-65448060D01*
X113228322Y-65380940D01*
X113299904Y-65330113D01*
X113339561Y-65311985D01*
X113438277Y-65285090D01*
X113538389Y-65276218D01*
X113635481Y-65284721D01*
G36*
X118653136Y-65284993D02*
X118746671Y-65309858D01*
X118822994Y-65348739D01*
X118883168Y-65403023D01*
X118928258Y-65474095D01*
X118959328Y-65563340D01*
X118977443Y-65672143D01*
X118980675Y-65711279D01*
X118988677Y-65833397D01*
X118693349Y-65833397D01*
X118693281Y-65751363D01*
X118688846Y-65671039D01*
X118675225Y-65611071D01*
X118651724Y-65569041D01*
X118636603Y-65554428D01*
X118596455Y-65535653D01*
X118547250Y-65529818D01*
X118500091Y-65537333D01*
X118477228Y-65548537D01*
X118461147Y-65560550D01*
X118448043Y-65573485D01*
X118437610Y-65589816D01*
X118429545Y-65612017D01*
X118423544Y-65642560D01*
X118419302Y-65683920D01*
X118416515Y-65738570D01*
X118414879Y-65808983D01*
X118414089Y-65897634D01*
X118413843Y-66006995D01*
X118413828Y-66064093D01*
X118413971Y-66185735D01*
X118414594Y-66285502D01*
X118415983Y-66365828D01*
X118418424Y-66429142D01*
X118422205Y-66477877D01*
X118427611Y-66514463D01*
X118434930Y-66541333D01*
X118444449Y-66560918D01*
X118456454Y-66575650D01*
X118471232Y-66587959D01*
X118476013Y-66591378D01*
X118515619Y-66606918D01*
X118565375Y-66610139D01*
X118614372Y-66600867D01*
X118630821Y-66593878D01*
X118655669Y-66576843D01*
X118673194Y-66552943D01*
X118684535Y-66518164D01*
X118690832Y-66468494D01*
X118693223Y-66399920D01*
X118693349Y-66373638D01*
X118693349Y-66234449D01*
X118985024Y-66234449D01*
X118984783Y-66328636D01*
X118978233Y-66459458D01*
X118959025Y-66570155D01*
X118926741Y-66661603D01*
X118880964Y-66734675D01*
X118821276Y-66790247D01*
X118747258Y-66829194D01*
X118745344Y-66829916D01*
X118669024Y-66850193D01*
X118582228Y-66860162D01*
X118496301Y-66859072D01*
X118438134Y-66850284D01*
X118341275Y-66816361D01*
X118259782Y-66763818D01*
X118194451Y-66693333D01*
X118146077Y-66605581D01*
X118144149Y-66600830D01*
X118136753Y-66581368D01*
X118130780Y-66561981D01*
X118126044Y-66539849D01*
X118122362Y-66512149D01*
X118119548Y-66476058D01*
X118117419Y-66428754D01*
X118115789Y-66367414D01*
X118114474Y-66289218D01*
X118113290Y-66191341D01*
X118112517Y-66117194D01*
X118111486Y-65990833D01*
X118111344Y-65885971D01*
X118112319Y-65799811D01*
X118114639Y-65729556D01*
X118118533Y-65672407D01*
X118124229Y-65625568D01*
X118131955Y-65586239D01*
X118141939Y-65551625D01*
X118154411Y-65518927D01*
X118162907Y-65499663D01*
X118210687Y-65423331D01*
X118275931Y-65361517D01*
X118355722Y-65315499D01*
X118447140Y-65286555D01*
X118547266Y-65275963D01*
X118653136Y-65284993D01*
X118653136Y-65284993D01*
G37*
X118653136Y-65284993D02*
X118746671Y-65309858D01*
X118822994Y-65348739D01*
X118883168Y-65403023D01*
X118928258Y-65474095D01*
X118959328Y-65563340D01*
X118977443Y-65672143D01*
X118980675Y-65711279D01*
X118988677Y-65833397D01*
X118693349Y-65833397D01*
X118693281Y-65751363D01*
X118688846Y-65671039D01*
X118675225Y-65611071D01*
X118651724Y-65569041D01*
X118636603Y-65554428D01*
X118596455Y-65535653D01*
X118547250Y-65529818D01*
X118500091Y-65537333D01*
X118477228Y-65548537D01*
X118461147Y-65560550D01*
X118448043Y-65573485D01*
X118437610Y-65589816D01*
X118429545Y-65612017D01*
X118423544Y-65642560D01*
X118419302Y-65683920D01*
X118416515Y-65738570D01*
X118414879Y-65808983D01*
X118414089Y-65897634D01*
X118413843Y-66006995D01*
X118413828Y-66064093D01*
X118413971Y-66185735D01*
X118414594Y-66285502D01*
X118415983Y-66365828D01*
X118418424Y-66429142D01*
X118422205Y-66477877D01*
X118427611Y-66514463D01*
X118434930Y-66541333D01*
X118444449Y-66560918D01*
X118456454Y-66575650D01*
X118471232Y-66587959D01*
X118476013Y-66591378D01*
X118515619Y-66606918D01*
X118565375Y-66610139D01*
X118614372Y-66600867D01*
X118630821Y-66593878D01*
X118655669Y-66576843D01*
X118673194Y-66552943D01*
X118684535Y-66518164D01*
X118690832Y-66468494D01*
X118693223Y-66399920D01*
X118693349Y-66373638D01*
X118693349Y-66234449D01*
X118985024Y-66234449D01*
X118984783Y-66328636D01*
X118978233Y-66459458D01*
X118959025Y-66570155D01*
X118926741Y-66661603D01*
X118880964Y-66734675D01*
X118821276Y-66790247D01*
X118747258Y-66829194D01*
X118745344Y-66829916D01*
X118669024Y-66850193D01*
X118582228Y-66860162D01*
X118496301Y-66859072D01*
X118438134Y-66850284D01*
X118341275Y-66816361D01*
X118259782Y-66763818D01*
X118194451Y-66693333D01*
X118146077Y-66605581D01*
X118144149Y-66600830D01*
X118136753Y-66581368D01*
X118130780Y-66561981D01*
X118126044Y-66539849D01*
X118122362Y-66512149D01*
X118119548Y-66476058D01*
X118117419Y-66428754D01*
X118115789Y-66367414D01*
X118114474Y-66289218D01*
X118113290Y-66191341D01*
X118112517Y-66117194D01*
X118111486Y-65990833D01*
X118111344Y-65885971D01*
X118112319Y-65799811D01*
X118114639Y-65729556D01*
X118118533Y-65672407D01*
X118124229Y-65625568D01*
X118131955Y-65586239D01*
X118141939Y-65551625D01*
X118154411Y-65518927D01*
X118162907Y-65499663D01*
X118210687Y-65423331D01*
X118275931Y-65361517D01*
X118355722Y-65315499D01*
X118447140Y-65286555D01*
X118547266Y-65275963D01*
X118653136Y-65284993D01*
G36*
X119574087Y-65285353D02*
X119647885Y-65299095D01*
X119710687Y-65324648D01*
X119768485Y-65363958D01*
X119787372Y-65380182D01*
X119822124Y-65413482D01*
X119850916Y-65446943D01*
X119874298Y-65483173D01*
X119892818Y-65524775D01*
X119907023Y-65574356D01*
X119917462Y-65634520D01*
X119924682Y-65707875D01*
X119929232Y-65797024D01*
X119931659Y-65904574D01*
X119932513Y-66033130D01*
X119932544Y-66070383D01*
X119932113Y-66201233D01*
X119930498Y-66310488D01*
X119927220Y-66400850D01*
X119921799Y-66475019D01*
X119913755Y-66535697D01*
X119902608Y-66585583D01*
X119887877Y-66627381D01*
X119869084Y-66663790D01*
X119845748Y-66697512D01*
X119817390Y-66731249D01*
X119814557Y-66734397D01*
X119746562Y-66791855D01*
X119661911Y-66833187D01*
X119586920Y-66853171D01*
X119522408Y-66862795D01*
X119468333Y-66864182D01*
X119412179Y-66857089D01*
X119373923Y-66849039D01*
X119313379Y-66833384D01*
X119268364Y-66816219D01*
X119230259Y-66793256D01*
X119190445Y-66760207D01*
X119184556Y-66754819D01*
X119121131Y-66680354D01*
X119077196Y-66591647D01*
X119059454Y-66528564D01*
X119055447Y-66496556D01*
X119052124Y-66444072D01*
X119049484Y-66374932D01*
X119047528Y-66292953D01*
X119046257Y-66201955D01*
X119045668Y-66105755D01*
X119045764Y-66008173D01*
X119046543Y-65913028D01*
X119047025Y-65883672D01*
X119351149Y-65883672D01*
X119351547Y-65992316D01*
X119352227Y-66089322D01*
X119355694Y-66540294D01*
X119395383Y-66575745D01*
X119440836Y-66602473D01*
X119493028Y-66612047D01*
X119543412Y-66603688D01*
X119566953Y-66591378D01*
X119582674Y-66579218D01*
X119595504Y-66565290D01*
X119605734Y-66547145D01*
X119613658Y-66522331D01*
X119619567Y-66488398D01*
X119623755Y-66442898D01*
X119626513Y-66383379D01*
X119628133Y-66307390D01*
X119628910Y-66212484D01*
X119629134Y-66096207D01*
X119629139Y-66070383D01*
X119628989Y-65949575D01*
X119628345Y-65850623D01*
X119626915Y-65771076D01*
X119624406Y-65708484D01*
X119620526Y-65660397D01*
X119614981Y-65624364D01*
X119607481Y-65597936D01*
X119597731Y-65578662D01*
X119585440Y-65564092D01*
X119570316Y-65551776D01*
X119566953Y-65549387D01*
X119528317Y-65534150D01*
X119479258Y-65530291D01*
X119431062Y-65538261D01*
X119417617Y-65543406D01*
X119400711Y-65552047D01*
X119386826Y-65562631D01*
X119375687Y-65577451D01*
X119367020Y-65598799D01*
X119360550Y-65628967D01*
X119356002Y-65670246D01*
X119353103Y-65724929D01*
X119351577Y-65795307D01*
X119351149Y-65883672D01*
X119047025Y-65883672D01*
X119048005Y-65824137D01*
X119050151Y-65745320D01*
X119052981Y-65680395D01*
X119056493Y-65633180D01*
X119059466Y-65612201D01*
X119091048Y-65512868D01*
X119139736Y-65429364D01*
X119204491Y-65363008D01*
X119284276Y-65315116D01*
X119298319Y-65309273D01*
X119342772Y-65294540D01*
X119389280Y-65285902D01*
X119446624Y-65282037D01*
X119483301Y-65281478D01*
X119574087Y-65285353D01*
X119574087Y-65285353D01*
G37*
X119574087Y-65285353D02*
X119647885Y-65299095D01*
X119710687Y-65324648D01*
X119768485Y-65363958D01*
X119787372Y-65380182D01*
X119822124Y-65413482D01*
X119850916Y-65446943D01*
X119874298Y-65483173D01*
X119892818Y-65524775D01*
X119907023Y-65574356D01*
X119917462Y-65634520D01*
X119924682Y-65707875D01*
X119929232Y-65797024D01*
X119931659Y-65904574D01*
X119932513Y-66033130D01*
X119932544Y-66070383D01*
X119932113Y-66201233D01*
X119930498Y-66310488D01*
X119927220Y-66400850D01*
X119921799Y-66475019D01*
X119913755Y-66535697D01*
X119902608Y-66585583D01*
X119887877Y-66627381D01*
X119869084Y-66663790D01*
X119845748Y-66697512D01*
X119817390Y-66731249D01*
X119814557Y-66734397D01*
X119746562Y-66791855D01*
X119661911Y-66833187D01*
X119586920Y-66853171D01*
X119522408Y-66862795D01*
X119468333Y-66864182D01*
X119412179Y-66857089D01*
X119373923Y-66849039D01*
X119313379Y-66833384D01*
X119268364Y-66816219D01*
X119230259Y-66793256D01*
X119190445Y-66760207D01*
X119184556Y-66754819D01*
X119121131Y-66680354D01*
X119077196Y-66591647D01*
X119059454Y-66528564D01*
X119055447Y-66496556D01*
X119052124Y-66444072D01*
X119049484Y-66374932D01*
X119047528Y-66292953D01*
X119046257Y-66201955D01*
X119045668Y-66105755D01*
X119045764Y-66008173D01*
X119046543Y-65913028D01*
X119047025Y-65883672D01*
X119351149Y-65883672D01*
X119351547Y-65992316D01*
X119352227Y-66089322D01*
X119355694Y-66540294D01*
X119395383Y-66575745D01*
X119440836Y-66602473D01*
X119493028Y-66612047D01*
X119543412Y-66603688D01*
X119566953Y-66591378D01*
X119582674Y-66579218D01*
X119595504Y-66565290D01*
X119605734Y-66547145D01*
X119613658Y-66522331D01*
X119619567Y-66488398D01*
X119623755Y-66442898D01*
X119626513Y-66383379D01*
X119628133Y-66307390D01*
X119628910Y-66212484D01*
X119629134Y-66096207D01*
X119629139Y-66070383D01*
X119628989Y-65949575D01*
X119628345Y-65850623D01*
X119626915Y-65771076D01*
X119624406Y-65708484D01*
X119620526Y-65660397D01*
X119614981Y-65624364D01*
X119607481Y-65597936D01*
X119597731Y-65578662D01*
X119585440Y-65564092D01*
X119570316Y-65551776D01*
X119566953Y-65549387D01*
X119528317Y-65534150D01*
X119479258Y-65530291D01*
X119431062Y-65538261D01*
X119417617Y-65543406D01*
X119400711Y-65552047D01*
X119386826Y-65562631D01*
X119375687Y-65577451D01*
X119367020Y-65598799D01*
X119360550Y-65628967D01*
X119356002Y-65670246D01*
X119353103Y-65724929D01*
X119351577Y-65795307D01*
X119351149Y-65883672D01*
X119047025Y-65883672D01*
X119048005Y-65824137D01*
X119050151Y-65745320D01*
X119052981Y-65680395D01*
X119056493Y-65633180D01*
X119059466Y-65612201D01*
X119091048Y-65512868D01*
X119139736Y-65429364D01*
X119204491Y-65363008D01*
X119284276Y-65315116D01*
X119298319Y-65309273D01*
X119342772Y-65294540D01*
X119389280Y-65285902D01*
X119446624Y-65282037D01*
X119483301Y-65281478D01*
X119574087Y-65285353D01*
G36*
X104833592Y-65298849D02*
X104876087Y-65299902D01*
X104902591Y-65302544D01*
X104917260Y-65307503D01*
X104924253Y-65315503D01*
X104927440Y-65326005D01*
X104930160Y-65344159D01*
X104935118Y-65383533D01*
X104941974Y-65441176D01*
X104950387Y-65514140D01*
X104960015Y-65599475D01*
X104970520Y-65694231D01*
X104980177Y-65782695D01*
X104993179Y-65899718D01*
X105004729Y-65997663D01*
X105014696Y-66075585D01*
X105022950Y-66132542D01*
X105029358Y-66167591D01*
X105033790Y-66179788D01*
X105035081Y-66177671D01*
X105038980Y-66157879D01*
X105046293Y-66117107D01*
X105056506Y-66058363D01*
X105069103Y-65984654D01*
X105083571Y-65898987D01*
X105099395Y-65804371D01*
X105113226Y-65720981D01*
X105183004Y-65298660D01*
X105406086Y-65298660D01*
X105475865Y-65720981D01*
X105492431Y-65820783D01*
X105508077Y-65914164D01*
X105522287Y-65998112D01*
X105534545Y-66069614D01*
X105544334Y-66125657D01*
X105551141Y-66163229D01*
X105554157Y-66178238D01*
X105557716Y-66176682D01*
X105563245Y-66151638D01*
X105570642Y-66103833D01*
X105579810Y-66033998D01*
X105590648Y-65942861D01*
X105603058Y-65831151D01*
X105608830Y-65777185D01*
X105619629Y-65676127D01*
X105629858Y-65582180D01*
X105639190Y-65498218D01*
X105647297Y-65427113D01*
X105653854Y-65371738D01*
X105658531Y-65334965D01*
X105660922Y-65319928D01*
X105666292Y-65310486D01*
X105678979Y-65304297D01*
X105703288Y-65300703D01*
X105743526Y-65299044D01*
X105799950Y-65298660D01*
X105858118Y-65298831D01*
X105896019Y-65299923D01*
X105917695Y-65302808D01*
X105927183Y-65308355D01*
X105928526Y-65317435D01*
X105926862Y-65326005D01*
X105924155Y-65341953D01*
X105918304Y-65379194D01*
X105909685Y-65435213D01*
X105898674Y-65507496D01*
X105885645Y-65593529D01*
X105870974Y-65690798D01*
X105855037Y-65796789D01*
X105838208Y-65908987D01*
X105820865Y-66024878D01*
X105803381Y-66141949D01*
X105786132Y-66257684D01*
X105769495Y-66369571D01*
X105753844Y-66475094D01*
X105739554Y-66571740D01*
X105727002Y-66656994D01*
X105716563Y-66728342D01*
X105708612Y-66783270D01*
X105703524Y-66819265D01*
X105701676Y-66833811D01*
X105701674Y-66833886D01*
X105690330Y-66837153D01*
X105659530Y-66839805D01*
X105614122Y-66841550D01*
X105564813Y-66842105D01*
X105427951Y-66842105D01*
X105386897Y-66571698D01*
X105372422Y-66476931D01*
X105356697Y-66374958D01*
X105340926Y-66273517D01*
X105326312Y-66180349D01*
X105314059Y-66103194D01*
X105313670Y-66100765D01*
X105281496Y-65900239D01*
X105124882Y-66842105D01*
X104987919Y-66842105D01*
X104925174Y-66841406D01*
X104883565Y-66839068D01*
X104859952Y-66834728D01*
X104851200Y-66828025D01*
X104850957Y-66826302D01*
X104849197Y-66812301D01*
X104844172Y-66776794D01*
X104836260Y-66722305D01*
X104825839Y-66651360D01*
X104813289Y-66566485D01*
X104798989Y-66470203D01*
X104783318Y-66365041D01*
X104766654Y-66253523D01*
X104749376Y-66138175D01*
X104731864Y-66021521D01*
X104714497Y-65906087D01*
X104697652Y-65794397D01*
X104681710Y-65688978D01*
X104667048Y-65592353D01*
X104654047Y-65507049D01*
X104643085Y-65435590D01*
X104634540Y-65380501D01*
X104628792Y-65344307D01*
X104626730Y-65332081D01*
X104620655Y-65298660D01*
X104770948Y-65298660D01*
X104833592Y-65298849D01*
X104833592Y-65298849D01*
G37*
X104833592Y-65298849D02*
X104876087Y-65299902D01*
X104902591Y-65302544D01*
X104917260Y-65307503D01*
X104924253Y-65315503D01*
X104927440Y-65326005D01*
X104930160Y-65344159D01*
X104935118Y-65383533D01*
X104941974Y-65441176D01*
X104950387Y-65514140D01*
X104960015Y-65599475D01*
X104970520Y-65694231D01*
X104980177Y-65782695D01*
X104993179Y-65899718D01*
X105004729Y-65997663D01*
X105014696Y-66075585D01*
X105022950Y-66132542D01*
X105029358Y-66167591D01*
X105033790Y-66179788D01*
X105035081Y-66177671D01*
X105038980Y-66157879D01*
X105046293Y-66117107D01*
X105056506Y-66058363D01*
X105069103Y-65984654D01*
X105083571Y-65898987D01*
X105099395Y-65804371D01*
X105113226Y-65720981D01*
X105183004Y-65298660D01*
X105406086Y-65298660D01*
X105475865Y-65720981D01*
X105492431Y-65820783D01*
X105508077Y-65914164D01*
X105522287Y-65998112D01*
X105534545Y-66069614D01*
X105544334Y-66125657D01*
X105551141Y-66163229D01*
X105554157Y-66178238D01*
X105557716Y-66176682D01*
X105563245Y-66151638D01*
X105570642Y-66103833D01*
X105579810Y-66033998D01*
X105590648Y-65942861D01*
X105603058Y-65831151D01*
X105608830Y-65777185D01*
X105619629Y-65676127D01*
X105629858Y-65582180D01*
X105639190Y-65498218D01*
X105647297Y-65427113D01*
X105653854Y-65371738D01*
X105658531Y-65334965D01*
X105660922Y-65319928D01*
X105666292Y-65310486D01*
X105678979Y-65304297D01*
X105703288Y-65300703D01*
X105743526Y-65299044D01*
X105799950Y-65298660D01*
X105858118Y-65298831D01*
X105896019Y-65299923D01*
X105917695Y-65302808D01*
X105927183Y-65308355D01*
X105928526Y-65317435D01*
X105926862Y-65326005D01*
X105924155Y-65341953D01*
X105918304Y-65379194D01*
X105909685Y-65435213D01*
X105898674Y-65507496D01*
X105885645Y-65593529D01*
X105870974Y-65690798D01*
X105855037Y-65796789D01*
X105838208Y-65908987D01*
X105820865Y-66024878D01*
X105803381Y-66141949D01*
X105786132Y-66257684D01*
X105769495Y-66369571D01*
X105753844Y-66475094D01*
X105739554Y-66571740D01*
X105727002Y-66656994D01*
X105716563Y-66728342D01*
X105708612Y-66783270D01*
X105703524Y-66819265D01*
X105701676Y-66833811D01*
X105701674Y-66833886D01*
X105690330Y-66837153D01*
X105659530Y-66839805D01*
X105614122Y-66841550D01*
X105564813Y-66842105D01*
X105427951Y-66842105D01*
X105386897Y-66571698D01*
X105372422Y-66476931D01*
X105356697Y-66374958D01*
X105340926Y-66273517D01*
X105326312Y-66180349D01*
X105314059Y-66103194D01*
X105313670Y-66100765D01*
X105281496Y-65900239D01*
X105124882Y-66842105D01*
X104987919Y-66842105D01*
X104925174Y-66841406D01*
X104883565Y-66839068D01*
X104859952Y-66834728D01*
X104851200Y-66828025D01*
X104850957Y-66826302D01*
X104849197Y-66812301D01*
X104844172Y-66776794D01*
X104836260Y-66722305D01*
X104825839Y-66651360D01*
X104813289Y-66566485D01*
X104798989Y-66470203D01*
X104783318Y-66365041D01*
X104766654Y-66253523D01*
X104749376Y-66138175D01*
X104731864Y-66021521D01*
X104714497Y-65906087D01*
X104697652Y-65794397D01*
X104681710Y-65688978D01*
X104667048Y-65592353D01*
X104654047Y-65507049D01*
X104643085Y-65435590D01*
X104634540Y-65380501D01*
X104628792Y-65344307D01*
X104626730Y-65332081D01*
X104620655Y-65298660D01*
X104770948Y-65298660D01*
X104833592Y-65298849D01*
G36*
X106689526Y-65300090D02*
X106722507Y-65307594D01*
X106738780Y-65318922D01*
X106739138Y-65319928D01*
X106742469Y-65336530D01*
X106749225Y-65374251D01*
X106758917Y-65430220D01*
X106771057Y-65501567D01*
X106785156Y-65585422D01*
X106800724Y-65678915D01*
X106815586Y-65768908D01*
X106831907Y-65867296D01*
X106847127Y-65957467D01*
X106860777Y-66036769D01*
X106872390Y-66102547D01*
X106881498Y-66152148D01*
X106887632Y-66182918D01*
X106890273Y-66192294D01*
X106892339Y-66179950D01*
X106896664Y-66146735D01*
X106902878Y-66095941D01*
X106910608Y-66030861D01*
X106919481Y-65954786D01*
X106929125Y-65871009D01*
X106939168Y-65782822D01*
X106949237Y-65693518D01*
X106958961Y-65606387D01*
X106967966Y-65524724D01*
X106975881Y-65451819D01*
X106982333Y-65390966D01*
X106986949Y-65345456D01*
X106989358Y-65318581D01*
X106989619Y-65313851D01*
X107000849Y-65307806D01*
X107030321Y-65303129D01*
X107072085Y-65299911D01*
X107120191Y-65298242D01*
X107168690Y-65298213D01*
X107211633Y-65299914D01*
X107243068Y-65303437D01*
X107257047Y-65308872D01*
X107257273Y-65309772D01*
X107255517Y-65324100D01*
X107250504Y-65359937D01*
X107242608Y-65414760D01*
X107232209Y-65486045D01*
X107219682Y-65571270D01*
X107205406Y-65667911D01*
X107189757Y-65773444D01*
X107173113Y-65885346D01*
X107155851Y-66001094D01*
X107138348Y-66118164D01*
X107120981Y-66234033D01*
X107104129Y-66346178D01*
X107088167Y-66452075D01*
X107073473Y-66549200D01*
X107060425Y-66635032D01*
X107049400Y-66707045D01*
X107040775Y-66762717D01*
X107034926Y-66799524D01*
X107032277Y-66814760D01*
X107028263Y-66826764D01*
X107019952Y-66834618D01*
X107002888Y-66839201D01*
X106972613Y-66841390D01*
X106924672Y-66842063D01*
X106893413Y-66842105D01*
X106760926Y-66842105D01*
X106754332Y-66808684D01*
X106750969Y-66788951D01*
X106744447Y-66748260D01*
X106735244Y-66689685D01*
X106723840Y-66616301D01*
X106710711Y-66531182D01*
X106696337Y-66437403D01*
X106685773Y-66368134D01*
X106670863Y-66270941D01*
X106656837Y-66180989D01*
X106644171Y-66101209D01*
X106633339Y-66034534D01*
X106624815Y-65983895D01*
X106619075Y-65952225D01*
X106616918Y-65942775D01*
X106613903Y-65951472D01*
X106607324Y-65980991D01*
X106597746Y-66028201D01*
X106585738Y-66089972D01*
X106571868Y-66163174D01*
X106556702Y-66244676D01*
X106540809Y-66331347D01*
X106524756Y-66420057D01*
X106509110Y-66507676D01*
X106494439Y-66591074D01*
X106481311Y-66667119D01*
X106470293Y-66732681D01*
X106461952Y-66784631D01*
X106456857Y-66819836D01*
X106455520Y-66832990D01*
X106444038Y-66836657D01*
X106413179Y-66839619D01*
X106367870Y-66841540D01*
X106321715Y-66842105D01*
X106263261Y-66841860D01*
X106224683Y-66840547D01*
X106201553Y-66837298D01*
X106189442Y-66831244D01*
X106183920Y-66821518D01*
X106182191Y-66814760D01*
X106179041Y-66796773D01*
X106172765Y-66757656D01*
X106163744Y-66699944D01*
X106152360Y-66626172D01*
X106138992Y-66538873D01*
X106124023Y-66440582D01*
X106107833Y-66333833D01*
X106090802Y-66221160D01*
X106073313Y-66105098D01*
X106055744Y-65988181D01*
X106038479Y-65872942D01*
X106021896Y-65761917D01*
X106006378Y-65657639D01*
X105992305Y-65562643D01*
X105980059Y-65479463D01*
X105970019Y-65410633D01*
X105962567Y-65358687D01*
X105958084Y-65326159D01*
X105956890Y-65315757D01*
X105961342Y-65308386D01*
X105977019Y-65303391D01*
X106007402Y-65300374D01*
X106055974Y-65298939D01*
X106106626Y-65298660D01*
X106256362Y-65298660D01*
X106302070Y-65720981D01*
X106313017Y-65820771D01*
X106323497Y-65913741D01*
X106333151Y-65996908D01*
X106341622Y-66067289D01*
X106348553Y-66121903D01*
X106353586Y-66157766D01*
X106356041Y-66171075D01*
X106360158Y-66167317D01*
X106367553Y-66140573D01*
X106378017Y-66091911D01*
X106391338Y-66022401D01*
X106407309Y-65933111D01*
X106425718Y-65825109D01*
X106434851Y-65770023D01*
X106451346Y-65670181D01*
X106466811Y-65577392D01*
X106480757Y-65494523D01*
X106492698Y-65424440D01*
X106502143Y-65370009D01*
X106508607Y-65334095D01*
X106511484Y-65319928D01*
X106526226Y-65308312D01*
X106558187Y-65300521D01*
X106600581Y-65296553D01*
X106646623Y-65296409D01*
X106689526Y-65300090D01*
X106689526Y-65300090D01*
G37*
X106689526Y-65300090D02*
X106722507Y-65307594D01*
X106738780Y-65318922D01*
X106739138Y-65319928D01*
X106742469Y-65336530D01*
X106749225Y-65374251D01*
X106758917Y-65430220D01*
X106771057Y-65501567D01*
X106785156Y-65585422D01*
X106800724Y-65678915D01*
X106815586Y-65768908D01*
X106831907Y-65867296D01*
X106847127Y-65957467D01*
X106860777Y-66036769D01*
X106872390Y-66102547D01*
X106881498Y-66152148D01*
X106887632Y-66182918D01*
X106890273Y-66192294D01*
X106892339Y-66179950D01*
X106896664Y-66146735D01*
X106902878Y-66095941D01*
X106910608Y-66030861D01*
X106919481Y-65954786D01*
X106929125Y-65871009D01*
X106939168Y-65782822D01*
X106949237Y-65693518D01*
X106958961Y-65606387D01*
X106967966Y-65524724D01*
X106975881Y-65451819D01*
X106982333Y-65390966D01*
X106986949Y-65345456D01*
X106989358Y-65318581D01*
X106989619Y-65313851D01*
X107000849Y-65307806D01*
X107030321Y-65303129D01*
X107072085Y-65299911D01*
X107120191Y-65298242D01*
X107168690Y-65298213D01*
X107211633Y-65299914D01*
X107243068Y-65303437D01*
X107257047Y-65308872D01*
X107257273Y-65309772D01*
X107255517Y-65324100D01*
X107250504Y-65359937D01*
X107242608Y-65414760D01*
X107232209Y-65486045D01*
X107219682Y-65571270D01*
X107205406Y-65667911D01*
X107189757Y-65773444D01*
X107173113Y-65885346D01*
X107155851Y-66001094D01*
X107138348Y-66118164D01*
X107120981Y-66234033D01*
X107104129Y-66346178D01*
X107088167Y-66452075D01*
X107073473Y-66549200D01*
X107060425Y-66635032D01*
X107049400Y-66707045D01*
X107040775Y-66762717D01*
X107034926Y-66799524D01*
X107032277Y-66814760D01*
X107028263Y-66826764D01*
X107019952Y-66834618D01*
X107002888Y-66839201D01*
X106972613Y-66841390D01*
X106924672Y-66842063D01*
X106893413Y-66842105D01*
X106760926Y-66842105D01*
X106754332Y-66808684D01*
X106750969Y-66788951D01*
X106744447Y-66748260D01*
X106735244Y-66689685D01*
X106723840Y-66616301D01*
X106710711Y-66531182D01*
X106696337Y-66437403D01*
X106685773Y-66368134D01*
X106670863Y-66270941D01*
X106656837Y-66180989D01*
X106644171Y-66101209D01*
X106633339Y-66034534D01*
X106624815Y-65983895D01*
X106619075Y-65952225D01*
X106616918Y-65942775D01*
X106613903Y-65951472D01*
X106607324Y-65980991D01*
X106597746Y-66028201D01*
X106585738Y-66089972D01*
X106571868Y-66163174D01*
X106556702Y-66244676D01*
X106540809Y-66331347D01*
X106524756Y-66420057D01*
X106509110Y-66507676D01*
X106494439Y-66591074D01*
X106481311Y-66667119D01*
X106470293Y-66732681D01*
X106461952Y-66784631D01*
X106456857Y-66819836D01*
X106455520Y-66832990D01*
X106444038Y-66836657D01*
X106413179Y-66839619D01*
X106367870Y-66841540D01*
X106321715Y-66842105D01*
X106263261Y-66841860D01*
X106224683Y-66840547D01*
X106201553Y-66837298D01*
X106189442Y-66831244D01*
X106183920Y-66821518D01*
X106182191Y-66814760D01*
X106179041Y-66796773D01*
X106172765Y-66757656D01*
X106163744Y-66699944D01*
X106152360Y-66626172D01*
X106138992Y-66538873D01*
X106124023Y-66440582D01*
X106107833Y-66333833D01*
X106090802Y-66221160D01*
X106073313Y-66105098D01*
X106055744Y-65988181D01*
X106038479Y-65872942D01*
X106021896Y-65761917D01*
X106006378Y-65657639D01*
X105992305Y-65562643D01*
X105980059Y-65479463D01*
X105970019Y-65410633D01*
X105962567Y-65358687D01*
X105958084Y-65326159D01*
X105956890Y-65315757D01*
X105961342Y-65308386D01*
X105977019Y-65303391D01*
X106007402Y-65300374D01*
X106055974Y-65298939D01*
X106106626Y-65298660D01*
X106256362Y-65298660D01*
X106302070Y-65720981D01*
X106313017Y-65820771D01*
X106323497Y-65913741D01*
X106333151Y-65996908D01*
X106341622Y-66067289D01*
X106348553Y-66121903D01*
X106353586Y-66157766D01*
X106356041Y-66171075D01*
X106360158Y-66167317D01*
X106367553Y-66140573D01*
X106378017Y-66091911D01*
X106391338Y-66022401D01*
X106407309Y-65933111D01*
X106425718Y-65825109D01*
X106434851Y-65770023D01*
X106451346Y-65670181D01*
X106466811Y-65577392D01*
X106480757Y-65494523D01*
X106492698Y-65424440D01*
X106502143Y-65370009D01*
X106508607Y-65334095D01*
X106511484Y-65319928D01*
X106526226Y-65308312D01*
X106558187Y-65300521D01*
X106600581Y-65296553D01*
X106646623Y-65296409D01*
X106689526Y-65300090D01*
G36*
X108588332Y-65325603D02*
X108585440Y-65342227D01*
X108579412Y-65380114D01*
X108570624Y-65436739D01*
X108559456Y-65509575D01*
X108546284Y-65596097D01*
X108531487Y-65693779D01*
X108515443Y-65800096D01*
X108498530Y-65912522D01*
X108481125Y-66028532D01*
X108463607Y-66145599D01*
X108446354Y-66261198D01*
X108429744Y-66372804D01*
X108414154Y-66477891D01*
X108399963Y-66573933D01*
X108387548Y-66658404D01*
X108377288Y-66728780D01*
X108369560Y-66782533D01*
X108364742Y-66817139D01*
X108363206Y-66829937D01*
X108351562Y-66835390D01*
X108318609Y-66839388D01*
X108267316Y-66841668D01*
X108225834Y-66842105D01*
X108088463Y-66842105D01*
X108016237Y-66371809D01*
X108000295Y-66269114D01*
X107985378Y-66175160D01*
X107971898Y-66092374D01*
X107960264Y-66023183D01*
X107950887Y-65970013D01*
X107944178Y-65935290D01*
X107940547Y-65921442D01*
X107940116Y-65921735D01*
X107937254Y-65937977D01*
X107930803Y-65975397D01*
X107921240Y-66031207D01*
X107909041Y-66102620D01*
X107894683Y-66186849D01*
X107878640Y-66281107D01*
X107861390Y-66382607D01*
X107860305Y-66388993D01*
X107784388Y-66836028D01*
X107648438Y-66839465D01*
X107584500Y-66840019D01*
X107539623Y-66838090D01*
X107515842Y-66833810D01*
X107512488Y-66830632D01*
X107510719Y-66816570D01*
X107505667Y-66781003D01*
X107497711Y-66726454D01*
X107487233Y-66655447D01*
X107474614Y-66570505D01*
X107460233Y-66474152D01*
X107444472Y-66368911D01*
X107427712Y-66257304D01*
X107410332Y-66141857D01*
X107392714Y-66025092D01*
X107375238Y-65909532D01*
X107358286Y-65797701D01*
X107342237Y-65692122D01*
X107327472Y-65595318D01*
X107314372Y-65509814D01*
X107303318Y-65438132D01*
X107294691Y-65382796D01*
X107288870Y-65346329D01*
X107286420Y-65332081D01*
X107279648Y-65298660D01*
X107582701Y-65298660D01*
X107589457Y-65338158D01*
X107592347Y-65359347D01*
X107597487Y-65401601D01*
X107604523Y-65461817D01*
X107613100Y-65536894D01*
X107622862Y-65623728D01*
X107633453Y-65719218D01*
X107641973Y-65796886D01*
X107655105Y-65914964D01*
X107666221Y-66009864D01*
X107675470Y-66082620D01*
X107683003Y-66134262D01*
X107688967Y-66165825D01*
X107693515Y-66178339D01*
X107696635Y-66173633D01*
X107700707Y-66151804D01*
X107708228Y-66109105D01*
X107718666Y-66048641D01*
X107731491Y-65973522D01*
X107746172Y-65886853D01*
X107762177Y-65791742D01*
X107775037Y-65714904D01*
X107844535Y-65298660D01*
X108067631Y-65298660D01*
X108131667Y-65684521D01*
X108147907Y-65782195D01*
X108163469Y-65875448D01*
X108177751Y-65960693D01*
X108190149Y-66034341D01*
X108200060Y-66092805D01*
X108206880Y-66132495D01*
X108208785Y-66143301D01*
X108212234Y-66161003D01*
X108215427Y-66171834D01*
X108218670Y-66173915D01*
X108222271Y-66165364D01*
X108226538Y-66144302D01*
X108231776Y-66108846D01*
X108238294Y-66057117D01*
X108246398Y-65987234D01*
X108256396Y-65897315D01*
X108268595Y-65785482D01*
X108271308Y-65760478D01*
X108320749Y-65304737D01*
X108457764Y-65301297D01*
X108594779Y-65297858D01*
X108588332Y-65325603D01*
X108588332Y-65325603D01*
G37*
X108588332Y-65325603D02*
X108585440Y-65342227D01*
X108579412Y-65380114D01*
X108570624Y-65436739D01*
X108559456Y-65509575D01*
X108546284Y-65596097D01*
X108531487Y-65693779D01*
X108515443Y-65800096D01*
X108498530Y-65912522D01*
X108481125Y-66028532D01*
X108463607Y-66145599D01*
X108446354Y-66261198D01*
X108429744Y-66372804D01*
X108414154Y-66477891D01*
X108399963Y-66573933D01*
X108387548Y-66658404D01*
X108377288Y-66728780D01*
X108369560Y-66782533D01*
X108364742Y-66817139D01*
X108363206Y-66829937D01*
X108351562Y-66835390D01*
X108318609Y-66839388D01*
X108267316Y-66841668D01*
X108225834Y-66842105D01*
X108088463Y-66842105D01*
X108016237Y-66371809D01*
X108000295Y-66269114D01*
X107985378Y-66175160D01*
X107971898Y-66092374D01*
X107960264Y-66023183D01*
X107950887Y-65970013D01*
X107944178Y-65935290D01*
X107940547Y-65921442D01*
X107940116Y-65921735D01*
X107937254Y-65937977D01*
X107930803Y-65975397D01*
X107921240Y-66031207D01*
X107909041Y-66102620D01*
X107894683Y-66186849D01*
X107878640Y-66281107D01*
X107861390Y-66382607D01*
X107860305Y-66388993D01*
X107784388Y-66836028D01*
X107648438Y-66839465D01*
X107584500Y-66840019D01*
X107539623Y-66838090D01*
X107515842Y-66833810D01*
X107512488Y-66830632D01*
X107510719Y-66816570D01*
X107505667Y-66781003D01*
X107497711Y-66726454D01*
X107487233Y-66655447D01*
X107474614Y-66570505D01*
X107460233Y-66474152D01*
X107444472Y-66368911D01*
X107427712Y-66257304D01*
X107410332Y-66141857D01*
X107392714Y-66025092D01*
X107375238Y-65909532D01*
X107358286Y-65797701D01*
X107342237Y-65692122D01*
X107327472Y-65595318D01*
X107314372Y-65509814D01*
X107303318Y-65438132D01*
X107294691Y-65382796D01*
X107288870Y-65346329D01*
X107286420Y-65332081D01*
X107279648Y-65298660D01*
X107582701Y-65298660D01*
X107589457Y-65338158D01*
X107592347Y-65359347D01*
X107597487Y-65401601D01*
X107604523Y-65461817D01*
X107613100Y-65536894D01*
X107622862Y-65623728D01*
X107633453Y-65719218D01*
X107641973Y-65796886D01*
X107655105Y-65914964D01*
X107666221Y-66009864D01*
X107675470Y-66082620D01*
X107683003Y-66134262D01*
X107688967Y-66165825D01*
X107693515Y-66178339D01*
X107696635Y-66173633D01*
X107700707Y-66151804D01*
X107708228Y-66109105D01*
X107718666Y-66048641D01*
X107731491Y-65973522D01*
X107746172Y-65886853D01*
X107762177Y-65791742D01*
X107775037Y-65714904D01*
X107844535Y-65298660D01*
X108067631Y-65298660D01*
X108131667Y-65684521D01*
X108147907Y-65782195D01*
X108163469Y-65875448D01*
X108177751Y-65960693D01*
X108190149Y-66034341D01*
X108200060Y-66092805D01*
X108206880Y-66132495D01*
X108208785Y-66143301D01*
X108212234Y-66161003D01*
X108215427Y-66171834D01*
X108218670Y-66173915D01*
X108222271Y-66165364D01*
X108226538Y-66144302D01*
X108231776Y-66108846D01*
X108238294Y-66057117D01*
X108246398Y-65987234D01*
X108256396Y-65897315D01*
X108268595Y-65785482D01*
X108271308Y-65760478D01*
X108320749Y-65304737D01*
X108457764Y-65301297D01*
X108594779Y-65297858D01*
X108588332Y-65325603D01*
G36*
X108885789Y-66842105D02*
X108581962Y-66842105D01*
X108581962Y-66538277D01*
X108885789Y-66538277D01*
X108885789Y-66842105D01*
X108885789Y-66842105D01*
G37*
X108885789Y-66842105D02*
X108581962Y-66842105D01*
X108581962Y-66538277D01*
X108885789Y-66538277D01*
X108885789Y-66842105D01*
G36*
X109326340Y-64997748D02*
X109435266Y-64999971D01*
X109523105Y-65003169D01*
X109593073Y-65008039D01*
X109648389Y-65015280D01*
X109692269Y-65025590D01*
X109727930Y-65039669D01*
X109758590Y-65058213D01*
X109787466Y-65081923D01*
X109808887Y-65102514D01*
X109838387Y-65133812D01*
X109861594Y-65164179D01*
X109879339Y-65197091D01*
X109892451Y-65236026D01*
X109901760Y-65284459D01*
X109908095Y-65345868D01*
X109912287Y-65423729D01*
X109915165Y-65521520D01*
X109915797Y-65550463D01*
X109917059Y-65680315D01*
X109914543Y-65788674D01*
X109907645Y-65878146D01*
X109895765Y-65951336D01*
X109878299Y-66010851D01*
X109854645Y-66059295D01*
X109824201Y-66099274D01*
X109786364Y-66133394D01*
X109779911Y-66138243D01*
X109734254Y-66166509D01*
X109681942Y-66187529D01*
X109618190Y-66202545D01*
X109538212Y-66212802D01*
X109474543Y-66217548D01*
X109335454Y-66225863D01*
X109335454Y-66842105D01*
X109031627Y-66842105D01*
X109031627Y-65982431D01*
X109335454Y-65982431D01*
X109425879Y-65976627D01*
X109486034Y-65969693D01*
X109531220Y-65958170D01*
X109547953Y-65950087D01*
X109575038Y-65924882D01*
X109591212Y-65898812D01*
X109594633Y-65877948D01*
X109597654Y-65836804D01*
X109600119Y-65779409D01*
X109601870Y-65709787D01*
X109602750Y-65631966D01*
X109602823Y-65601888D01*
X109602823Y-65335503D01*
X109567486Y-65295955D01*
X109548294Y-65276163D01*
X109529680Y-65264020D01*
X109504756Y-65257259D01*
X109466637Y-65253612D01*
X109433802Y-65251940D01*
X109335454Y-65247474D01*
X109335454Y-65982431D01*
X109031627Y-65982431D01*
X109031627Y-64992934D01*
X109326340Y-64997748D01*
X109326340Y-64997748D01*
G37*
X109326340Y-64997748D02*
X109435266Y-64999971D01*
X109523105Y-65003169D01*
X109593073Y-65008039D01*
X109648389Y-65015280D01*
X109692269Y-65025590D01*
X109727930Y-65039669D01*
X109758590Y-65058213D01*
X109787466Y-65081923D01*
X109808887Y-65102514D01*
X109838387Y-65133812D01*
X109861594Y-65164179D01*
X109879339Y-65197091D01*
X109892451Y-65236026D01*
X109901760Y-65284459D01*
X109908095Y-65345868D01*
X109912287Y-65423729D01*
X109915165Y-65521520D01*
X109915797Y-65550463D01*
X109917059Y-65680315D01*
X109914543Y-65788674D01*
X109907645Y-65878146D01*
X109895765Y-65951336D01*
X109878299Y-66010851D01*
X109854645Y-66059295D01*
X109824201Y-66099274D01*
X109786364Y-66133394D01*
X109779911Y-66138243D01*
X109734254Y-66166509D01*
X109681942Y-66187529D01*
X109618190Y-66202545D01*
X109538212Y-66212802D01*
X109474543Y-66217548D01*
X109335454Y-66225863D01*
X109335454Y-66842105D01*
X109031627Y-66842105D01*
X109031627Y-65982431D01*
X109335454Y-65982431D01*
X109425879Y-65976627D01*
X109486034Y-65969693D01*
X109531220Y-65958170D01*
X109547953Y-65950087D01*
X109575038Y-65924882D01*
X109591212Y-65898812D01*
X109594633Y-65877948D01*
X109597654Y-65836804D01*
X109600119Y-65779409D01*
X109601870Y-65709787D01*
X109602750Y-65631966D01*
X109602823Y-65601888D01*
X109602823Y-65335503D01*
X109567486Y-65295955D01*
X109548294Y-65276163D01*
X109529680Y-65264020D01*
X109504756Y-65257259D01*
X109466637Y-65253612D01*
X109433802Y-65251940D01*
X109335454Y-65247474D01*
X109335454Y-65982431D01*
X109031627Y-65982431D01*
X109031627Y-64992934D01*
X109326340Y-64997748D01*
G36*
X110566177Y-65292859D02*
X110570610Y-65313554D01*
X110573410Y-65351325D01*
X110574806Y-65408836D01*
X110575072Y-65462727D01*
X110575072Y-65638947D01*
X110507626Y-65638947D01*
X110461258Y-65642512D01*
X110419410Y-65651643D01*
X110403367Y-65657984D01*
X110387244Y-65666895D01*
X110373753Y-65676919D01*
X110362658Y-65690166D01*
X110353726Y-65708749D01*
X110346722Y-65734777D01*
X110341412Y-65770361D01*
X110337563Y-65817612D01*
X110334938Y-65878642D01*
X110333305Y-65955560D01*
X110332428Y-66050479D01*
X110332075Y-66165508D01*
X110332009Y-66300901D01*
X110332009Y-66842105D01*
X110028182Y-66842105D01*
X110028182Y-65298660D01*
X110332009Y-65298660D01*
X110332485Y-65380694D01*
X110333015Y-65423192D01*
X110334675Y-65444267D01*
X110338511Y-65446803D01*
X110345571Y-65433683D01*
X110348946Y-65426042D01*
X110380399Y-65379214D01*
X110428156Y-65337137D01*
X110484368Y-65304999D01*
X110541184Y-65287993D01*
X110559880Y-65286575D01*
X110566177Y-65292859D01*
X110566177Y-65292859D01*
G37*
X110566177Y-65292859D02*
X110570610Y-65313554D01*
X110573410Y-65351325D01*
X110574806Y-65408836D01*
X110575072Y-65462727D01*
X110575072Y-65638947D01*
X110507626Y-65638947D01*
X110461258Y-65642512D01*
X110419410Y-65651643D01*
X110403367Y-65657984D01*
X110387244Y-65666895D01*
X110373753Y-65676919D01*
X110362658Y-65690166D01*
X110353726Y-65708749D01*
X110346722Y-65734777D01*
X110341412Y-65770361D01*
X110337563Y-65817612D01*
X110334938Y-65878642D01*
X110333305Y-65955560D01*
X110332428Y-66050479D01*
X110332075Y-66165508D01*
X110332009Y-66300901D01*
X110332009Y-66842105D01*
X110028182Y-66842105D01*
X110028182Y-65298660D01*
X110332009Y-65298660D01*
X110332485Y-65380694D01*
X110333015Y-65423192D01*
X110334675Y-65444267D01*
X110338511Y-65446803D01*
X110345571Y-65433683D01*
X110348946Y-65426042D01*
X110380399Y-65379214D01*
X110428156Y-65337137D01*
X110484368Y-65304999D01*
X110541184Y-65287993D01*
X110559880Y-65286575D01*
X110566177Y-65292859D01*
G36*
X114403301Y-65298660D02*
X114585598Y-65298660D01*
X114585598Y-65529569D01*
X114403301Y-65529569D01*
X114403301Y-66561205D01*
X114430312Y-66580124D01*
X114462072Y-66592609D01*
X114508103Y-66598738D01*
X114521460Y-66599043D01*
X114585598Y-66599043D01*
X114585598Y-66842105D01*
X114479258Y-66840773D01*
X114423405Y-66838969D01*
X114370236Y-66835371D01*
X114329361Y-66830675D01*
X114322196Y-66829413D01*
X114244142Y-66803506D01*
X114182423Y-66760392D01*
X114138239Y-66701072D01*
X114122033Y-66662469D01*
X114117944Y-66640854D01*
X114114365Y-66601817D01*
X114111260Y-66544250D01*
X114108592Y-66467044D01*
X114106324Y-66369091D01*
X114104420Y-66249283D01*
X114102843Y-66106512D01*
X114102549Y-66073421D01*
X114097899Y-65529569D01*
X113990096Y-65529569D01*
X113990096Y-65298660D01*
X114099474Y-65298660D01*
X114099474Y-64994832D01*
X114403301Y-64994832D01*
X114403301Y-65298660D01*
X114403301Y-65298660D01*
G37*
X114403301Y-65298660D02*
X114585598Y-65298660D01*
X114585598Y-65529569D01*
X114403301Y-65529569D01*
X114403301Y-66561205D01*
X114430312Y-66580124D01*
X114462072Y-66592609D01*
X114508103Y-66598738D01*
X114521460Y-66599043D01*
X114585598Y-66599043D01*
X114585598Y-66842105D01*
X114479258Y-66840773D01*
X114423405Y-66838969D01*
X114370236Y-66835371D01*
X114329361Y-66830675D01*
X114322196Y-66829413D01*
X114244142Y-66803506D01*
X114182423Y-66760392D01*
X114138239Y-66701072D01*
X114122033Y-66662469D01*
X114117944Y-66640854D01*
X114114365Y-66601817D01*
X114111260Y-66544250D01*
X114108592Y-66467044D01*
X114106324Y-66369091D01*
X114104420Y-66249283D01*
X114102843Y-66106512D01*
X114102549Y-66073421D01*
X114097899Y-65529569D01*
X113990096Y-65529569D01*
X113990096Y-65298660D01*
X114099474Y-65298660D01*
X114099474Y-64994832D01*
X114403301Y-64994832D01*
X114403301Y-65298660D01*
G36*
X115356097Y-65027934D02*
X115359450Y-65045188D01*
X115366944Y-65084353D01*
X115378206Y-65143456D01*
X115392860Y-65220525D01*
X115410532Y-65313587D01*
X115430847Y-65420670D01*
X115453432Y-65539801D01*
X115477913Y-65669009D01*
X115503913Y-65806320D01*
X115527438Y-65930622D01*
X115554384Y-66072979D01*
X115580085Y-66208652D01*
X115604172Y-66335704D01*
X115626277Y-66452200D01*
X115646033Y-66556204D01*
X115663072Y-66645780D01*
X115677025Y-66718992D01*
X115687525Y-66773905D01*
X115694204Y-66808582D01*
X115696632Y-66820837D01*
X115696671Y-66829479D01*
X115689778Y-66835414D01*
X115672282Y-66839142D01*
X115640513Y-66841164D01*
X115590802Y-66841981D01*
X115540802Y-66842105D01*
X115380195Y-66842105D01*
X115351674Y-66671961D01*
X115323153Y-66501818D01*
X114999905Y-66501818D01*
X114992703Y-66541316D01*
X114987690Y-66569932D01*
X114979961Y-66615362D01*
X114970728Y-66670432D01*
X114964426Y-66708421D01*
X114943352Y-66836028D01*
X114795087Y-66839439D01*
X114646822Y-66842849D01*
X114653370Y-66809056D01*
X114656643Y-66791847D01*
X114664051Y-66752702D01*
X114675225Y-66693573D01*
X114689797Y-66616410D01*
X114707400Y-66523164D01*
X114727664Y-66415784D01*
X114750222Y-66296222D01*
X114760108Y-66243809D01*
X115039135Y-66243809D01*
X115043020Y-66251746D01*
X115056909Y-66256217D01*
X115085002Y-66258216D01*
X115131497Y-66258738D01*
X115156563Y-66258756D01*
X115207693Y-66257910D01*
X115248346Y-66255628D01*
X115273356Y-66252296D01*
X115278791Y-66249641D01*
X115277099Y-66234817D01*
X115272033Y-66200224D01*
X115264178Y-66149426D01*
X115254121Y-66085987D01*
X115242449Y-66013471D01*
X115229748Y-65935441D01*
X115216604Y-65855463D01*
X115203604Y-65777100D01*
X115191335Y-65703917D01*
X115180382Y-65639477D01*
X115171334Y-65587345D01*
X115164775Y-65551084D01*
X115161292Y-65534259D01*
X115160948Y-65533518D01*
X115158257Y-65545810D01*
X115152165Y-65579007D01*
X115143205Y-65630029D01*
X115131911Y-65695796D01*
X115118816Y-65773227D01*
X115104454Y-65859243D01*
X115102620Y-65870300D01*
X115087911Y-65958694D01*
X115074221Y-66040276D01*
X115062126Y-66111662D01*
X115052205Y-66169468D01*
X115045034Y-66210308D01*
X115041190Y-66230799D01*
X115041054Y-66231411D01*
X115039135Y-66243809D01*
X114760108Y-66243809D01*
X114774705Y-66166428D01*
X114800746Y-66028352D01*
X114827196Y-65888086D01*
X114994474Y-65000909D01*
X115171823Y-64997552D01*
X115349172Y-64994194D01*
X115356097Y-65027934D01*
X115356097Y-65027934D01*
G37*
X115356097Y-65027934D02*
X115359450Y-65045188D01*
X115366944Y-65084353D01*
X115378206Y-65143456D01*
X115392860Y-65220525D01*
X115410532Y-65313587D01*
X115430847Y-65420670D01*
X115453432Y-65539801D01*
X115477913Y-65669009D01*
X115503913Y-65806320D01*
X115527438Y-65930622D01*
X115554384Y-66072979D01*
X115580085Y-66208652D01*
X115604172Y-66335704D01*
X115626277Y-66452200D01*
X115646033Y-66556204D01*
X115663072Y-66645780D01*
X115677025Y-66718992D01*
X115687525Y-66773905D01*
X115694204Y-66808582D01*
X115696632Y-66820837D01*
X115696671Y-66829479D01*
X115689778Y-66835414D01*
X115672282Y-66839142D01*
X115640513Y-66841164D01*
X115590802Y-66841981D01*
X115540802Y-66842105D01*
X115380195Y-66842105D01*
X115351674Y-66671961D01*
X115323153Y-66501818D01*
X114999905Y-66501818D01*
X114992703Y-66541316D01*
X114987690Y-66569932D01*
X114979961Y-66615362D01*
X114970728Y-66670432D01*
X114964426Y-66708421D01*
X114943352Y-66836028D01*
X114795087Y-66839439D01*
X114646822Y-66842849D01*
X114653370Y-66809056D01*
X114656643Y-66791847D01*
X114664051Y-66752702D01*
X114675225Y-66693573D01*
X114689797Y-66616410D01*
X114707400Y-66523164D01*
X114727664Y-66415784D01*
X114750222Y-66296222D01*
X114760108Y-66243809D01*
X115039135Y-66243809D01*
X115043020Y-66251746D01*
X115056909Y-66256217D01*
X115085002Y-66258216D01*
X115131497Y-66258738D01*
X115156563Y-66258756D01*
X115207693Y-66257910D01*
X115248346Y-66255628D01*
X115273356Y-66252296D01*
X115278791Y-66249641D01*
X115277099Y-66234817D01*
X115272033Y-66200224D01*
X115264178Y-66149426D01*
X115254121Y-66085987D01*
X115242449Y-66013471D01*
X115229748Y-65935441D01*
X115216604Y-65855463D01*
X115203604Y-65777100D01*
X115191335Y-65703917D01*
X115180382Y-65639477D01*
X115171334Y-65587345D01*
X115164775Y-65551084D01*
X115161292Y-65534259D01*
X115160948Y-65533518D01*
X115158257Y-65545810D01*
X115152165Y-65579007D01*
X115143205Y-65630029D01*
X115131911Y-65695796D01*
X115118816Y-65773227D01*
X115104454Y-65859243D01*
X115102620Y-65870300D01*
X115087911Y-65958694D01*
X115074221Y-66040276D01*
X115062126Y-66111662D01*
X115052205Y-66169468D01*
X115045034Y-66210308D01*
X115041190Y-66230799D01*
X115041054Y-66231411D01*
X115039135Y-66243809D01*
X114760108Y-66243809D01*
X114774705Y-66166428D01*
X114800746Y-66028352D01*
X114827196Y-65888086D01*
X114994474Y-65000909D01*
X115171823Y-64997552D01*
X115349172Y-64994194D01*
X115356097Y-65027934D01*
G36*
X115995830Y-65620717D02*
X116015640Y-65740738D01*
X116034440Y-65853202D01*
X116051843Y-65955887D01*
X116067459Y-66046568D01*
X116080901Y-66123021D01*
X116091781Y-66183024D01*
X116099709Y-66224351D01*
X116104299Y-66244780D01*
X116105103Y-66246603D01*
X116108347Y-66234990D01*
X116115166Y-66201660D01*
X116125155Y-66148872D01*
X116137909Y-66078887D01*
X116153022Y-65993965D01*
X116170088Y-65896366D01*
X116188703Y-65788351D01*
X116208460Y-65672179D01*
X116213554Y-65641985D01*
X116233587Y-65523275D01*
X116252527Y-65411449D01*
X116269971Y-65308876D01*
X116285511Y-65217921D01*
X116298742Y-65140952D01*
X116309259Y-65080333D01*
X116316655Y-65038432D01*
X116320525Y-65017615D01*
X116320863Y-65016100D01*
X116325737Y-65007015D01*
X116337562Y-65000926D01*
X116360444Y-64997255D01*
X116398490Y-64995421D01*
X116455808Y-64994847D01*
X116471713Y-64994832D01*
X116617099Y-64994832D01*
X116610064Y-65028253D01*
X116606682Y-65045471D01*
X116599148Y-65084590D01*
X116587839Y-65143633D01*
X116573133Y-65220619D01*
X116555406Y-65313571D01*
X116535036Y-65420509D01*
X116512400Y-65539455D01*
X116487875Y-65668430D01*
X116461838Y-65805456D01*
X116439223Y-65924545D01*
X116412240Y-66066584D01*
X116386464Y-66202079D01*
X116362269Y-66329071D01*
X116340032Y-66445597D01*
X116320127Y-66549698D01*
X116302930Y-66639412D01*
X116288815Y-66712778D01*
X116278159Y-66767837D01*
X116271337Y-66802626D01*
X116268841Y-66814760D01*
X116265332Y-66825579D01*
X116258300Y-66833087D01*
X116243847Y-66837888D01*
X116218071Y-66840587D01*
X116177072Y-66841789D01*
X116116949Y-66842097D01*
X116092352Y-66842105D01*
X116031249Y-66841378D01*
X115979898Y-66839380D01*
X115942649Y-66836390D01*
X115923854Y-66832683D01*
X115922440Y-66831289D01*
X115920222Y-66817887D01*
X115913804Y-66782486D01*
X115903538Y-66726960D01*
X115889776Y-66653187D01*
X115872872Y-66563043D01*
X115853177Y-66458403D01*
X115831045Y-66341144D01*
X115806827Y-66213142D01*
X115780877Y-66076273D01*
X115753546Y-65932414D01*
X115752296Y-65925842D01*
X115724889Y-65781492D01*
X115698848Y-65643880D01*
X115674528Y-65514903D01*
X115652282Y-65396458D01*
X115632464Y-65290440D01*
X115615426Y-65198747D01*
X115601523Y-65123274D01*
X115591108Y-65065918D01*
X115584534Y-65028576D01*
X115582156Y-65013143D01*
X115582153Y-65013021D01*
X115585726Y-65005391D01*
X115598854Y-65000180D01*
X115625152Y-64996966D01*
X115668234Y-64995325D01*
X115731715Y-64994834D01*
X115737659Y-64994832D01*
X115893165Y-64994832D01*
X115995830Y-65620717D01*
X115995830Y-65620717D01*
G37*
X115995830Y-65620717D02*
X116015640Y-65740738D01*
X116034440Y-65853202D01*
X116051843Y-65955887D01*
X116067459Y-66046568D01*
X116080901Y-66123021D01*
X116091781Y-66183024D01*
X116099709Y-66224351D01*
X116104299Y-66244780D01*
X116105103Y-66246603D01*
X116108347Y-66234990D01*
X116115166Y-66201660D01*
X116125155Y-66148872D01*
X116137909Y-66078887D01*
X116153022Y-65993965D01*
X116170088Y-65896366D01*
X116188703Y-65788351D01*
X116208460Y-65672179D01*
X116213554Y-65641985D01*
X116233587Y-65523275D01*
X116252527Y-65411449D01*
X116269971Y-65308876D01*
X116285511Y-65217921D01*
X116298742Y-65140952D01*
X116309259Y-65080333D01*
X116316655Y-65038432D01*
X116320525Y-65017615D01*
X116320863Y-65016100D01*
X116325737Y-65007015D01*
X116337562Y-65000926D01*
X116360444Y-64997255D01*
X116398490Y-64995421D01*
X116455808Y-64994847D01*
X116471713Y-64994832D01*
X116617099Y-64994832D01*
X116610064Y-65028253D01*
X116606682Y-65045471D01*
X116599148Y-65084590D01*
X116587839Y-65143633D01*
X116573133Y-65220619D01*
X116555406Y-65313571D01*
X116535036Y-65420509D01*
X116512400Y-65539455D01*
X116487875Y-65668430D01*
X116461838Y-65805456D01*
X116439223Y-65924545D01*
X116412240Y-66066584D01*
X116386464Y-66202079D01*
X116362269Y-66329071D01*
X116340032Y-66445597D01*
X116320127Y-66549698D01*
X116302930Y-66639412D01*
X116288815Y-66712778D01*
X116278159Y-66767837D01*
X116271337Y-66802626D01*
X116268841Y-66814760D01*
X116265332Y-66825579D01*
X116258300Y-66833087D01*
X116243847Y-66837888D01*
X116218071Y-66840587D01*
X116177072Y-66841789D01*
X116116949Y-66842097D01*
X116092352Y-66842105D01*
X116031249Y-66841378D01*
X115979898Y-66839380D01*
X115942649Y-66836390D01*
X115923854Y-66832683D01*
X115922440Y-66831289D01*
X115920222Y-66817887D01*
X115913804Y-66782486D01*
X115903538Y-66726960D01*
X115889776Y-66653187D01*
X115872872Y-66563043D01*
X115853177Y-66458403D01*
X115831045Y-66341144D01*
X115806827Y-66213142D01*
X115780877Y-66076273D01*
X115753546Y-65932414D01*
X115752296Y-65925842D01*
X115724889Y-65781492D01*
X115698848Y-65643880D01*
X115674528Y-65514903D01*
X115652282Y-65396458D01*
X115632464Y-65290440D01*
X115615426Y-65198747D01*
X115601523Y-65123274D01*
X115591108Y-65065918D01*
X115584534Y-65028576D01*
X115582156Y-65013143D01*
X115582153Y-65013021D01*
X115585726Y-65005391D01*
X115598854Y-65000180D01*
X115625152Y-64996966D01*
X115668234Y-64995325D01*
X115731715Y-64994834D01*
X115737659Y-64994832D01*
X115893165Y-64994832D01*
X115995830Y-65620717D01*
G36*
X116994952Y-64997988D02*
X117092508Y-65000347D01*
X117177803Y-65003573D01*
X117247951Y-65007499D01*
X117300067Y-65011958D01*
X117331266Y-65016782D01*
X117334356Y-65017649D01*
X117415025Y-65055229D01*
X117482094Y-65110663D01*
X117531632Y-65180685D01*
X117532454Y-65182285D01*
X117545202Y-65207868D01*
X117554663Y-65230274D01*
X117561404Y-65253725D01*
X117565995Y-65282443D01*
X117569003Y-65320651D01*
X117570997Y-65372573D01*
X117572545Y-65442431D01*
X117573342Y-65486112D01*
X117574154Y-65583960D01*
X117572910Y-65666727D01*
X117569705Y-65731528D01*
X117564636Y-65775479D01*
X117563556Y-65780849D01*
X117535846Y-65857678D01*
X117489594Y-65919251D01*
X117423653Y-65966995D01*
X117406970Y-65975506D01*
X117334606Y-66010238D01*
X117478897Y-66417056D01*
X117512305Y-66511472D01*
X117542999Y-66598642D01*
X117570057Y-66675916D01*
X117592557Y-66740647D01*
X117609579Y-66790186D01*
X117620202Y-66821884D01*
X117623531Y-66832990D01*
X117612254Y-66836343D01*
X117581119Y-66839140D01*
X117534572Y-66841132D01*
X117477059Y-66842066D01*
X117462089Y-66842105D01*
X117300303Y-66842105D01*
X117158937Y-66431938D01*
X117017571Y-66021770D01*
X117016895Y-66431938D01*
X117016220Y-66842105D01*
X116700239Y-66842105D01*
X116700239Y-65250048D01*
X117016220Y-65250048D01*
X117016220Y-65821244D01*
X117089742Y-65821244D01*
X117138845Y-65817989D01*
X117181448Y-65809482D01*
X117198760Y-65802888D01*
X117227779Y-65782817D01*
X117246769Y-65761151D01*
X117251598Y-65739741D01*
X117255242Y-65699223D01*
X117257710Y-65644766D01*
X117259008Y-65581539D01*
X117259143Y-65514711D01*
X117258122Y-65449451D01*
X117255953Y-65390929D01*
X117252642Y-65344313D01*
X117248196Y-65314773D01*
X117246151Y-65308985D01*
X117218916Y-65281709D01*
X117173124Y-65261861D01*
X117113873Y-65251288D01*
X117083452Y-65250048D01*
X117016220Y-65250048D01*
X116700239Y-65250048D01*
X116700239Y-64992624D01*
X116994952Y-64997988D01*
X116994952Y-64997988D01*
G37*
X116994952Y-64997988D02*
X117092508Y-65000347D01*
X117177803Y-65003573D01*
X117247951Y-65007499D01*
X117300067Y-65011958D01*
X117331266Y-65016782D01*
X117334356Y-65017649D01*
X117415025Y-65055229D01*
X117482094Y-65110663D01*
X117531632Y-65180685D01*
X117532454Y-65182285D01*
X117545202Y-65207868D01*
X117554663Y-65230274D01*
X117561404Y-65253725D01*
X117565995Y-65282443D01*
X117569003Y-65320651D01*
X117570997Y-65372573D01*
X117572545Y-65442431D01*
X117573342Y-65486112D01*
X117574154Y-65583960D01*
X117572910Y-65666727D01*
X117569705Y-65731528D01*
X117564636Y-65775479D01*
X117563556Y-65780849D01*
X117535846Y-65857678D01*
X117489594Y-65919251D01*
X117423653Y-65966995D01*
X117406970Y-65975506D01*
X117334606Y-66010238D01*
X117478897Y-66417056D01*
X117512305Y-66511472D01*
X117542999Y-66598642D01*
X117570057Y-66675916D01*
X117592557Y-66740647D01*
X117609579Y-66790186D01*
X117620202Y-66821884D01*
X117623531Y-66832990D01*
X117612254Y-66836343D01*
X117581119Y-66839140D01*
X117534572Y-66841132D01*
X117477059Y-66842066D01*
X117462089Y-66842105D01*
X117300303Y-66842105D01*
X117158937Y-66431938D01*
X117017571Y-66021770D01*
X117016895Y-66431938D01*
X117016220Y-66842105D01*
X116700239Y-66842105D01*
X116700239Y-65250048D01*
X117016220Y-65250048D01*
X117016220Y-65821244D01*
X117089742Y-65821244D01*
X117138845Y-65817989D01*
X117181448Y-65809482D01*
X117198760Y-65802888D01*
X117227779Y-65782817D01*
X117246769Y-65761151D01*
X117251598Y-65739741D01*
X117255242Y-65699223D01*
X117257710Y-65644766D01*
X117259008Y-65581539D01*
X117259143Y-65514711D01*
X117258122Y-65449451D01*
X117255953Y-65390929D01*
X117252642Y-65344313D01*
X117248196Y-65314773D01*
X117246151Y-65308985D01*
X117218916Y-65281709D01*
X117173124Y-65261861D01*
X117113873Y-65251288D01*
X117083452Y-65250048D01*
X117016220Y-65250048D01*
X116700239Y-65250048D01*
X116700239Y-64992624D01*
X116994952Y-64997988D01*
G36*
X118012775Y-66842105D02*
X117708199Y-66842105D01*
X117711611Y-66693229D01*
X117715024Y-66544354D01*
X117863899Y-66540941D01*
X118012775Y-66537529D01*
X118012775Y-66842105D01*
X118012775Y-66842105D01*
G37*
X118012775Y-66842105D02*
X117708199Y-66842105D01*
X117711611Y-66693229D01*
X117715024Y-66544354D01*
X117863899Y-66540941D01*
X118012775Y-66537529D01*
X118012775Y-66842105D01*
G36*
X120691645Y-65286043D02*
X120757990Y-65313264D01*
X120812601Y-65355627D01*
X120844468Y-65399493D01*
X120872906Y-65453098D01*
X120910841Y-65403362D01*
X120973208Y-65339166D01*
X121045174Y-65297232D01*
X121126227Y-65277787D01*
X121194425Y-65278273D01*
X121272830Y-65296915D01*
X121336987Y-65335155D01*
X121386656Y-65392731D01*
X121421601Y-65469380D01*
X121439511Y-65549076D01*
X121441970Y-65578255D01*
X121444264Y-65629056D01*
X121446345Y-65698799D01*
X121448164Y-65784800D01*
X121449674Y-65884377D01*
X121450826Y-65994847D01*
X121451572Y-66113528D01*
X121451864Y-66237488D01*
X121452105Y-66842105D01*
X121148277Y-66842105D01*
X121148277Y-66236263D01*
X121148186Y-66091347D01*
X121147821Y-65968777D01*
X121147044Y-65866595D01*
X121145716Y-65782843D01*
X121143698Y-65715560D01*
X121140852Y-65662788D01*
X121137041Y-65622567D01*
X121132124Y-65592940D01*
X121125965Y-65571946D01*
X121118425Y-65557628D01*
X121109364Y-65548025D01*
X121099186Y-65541466D01*
X121069783Y-65533305D01*
X121028356Y-65529864D01*
X120986792Y-65531515D01*
X120960449Y-65537118D01*
X120948522Y-65542430D01*
X120938448Y-65549763D01*
X120930069Y-65561068D01*
X120923229Y-65578294D01*
X120917774Y-65603392D01*
X120913546Y-65638312D01*
X120910389Y-65685006D01*
X120908149Y-65745423D01*
X120906668Y-65821513D01*
X120905790Y-65915228D01*
X120905361Y-66028518D01*
X120905223Y-66163332D01*
X120905215Y-66227769D01*
X120905215Y-66842105D01*
X120602020Y-66842105D01*
X120598666Y-66209063D01*
X120595311Y-65576022D01*
X120566620Y-65552796D01*
X120532674Y-65537076D01*
X120486823Y-65529731D01*
X120440255Y-65531559D01*
X120407417Y-65541466D01*
X120396779Y-65548397D01*
X120387793Y-65558177D01*
X120380320Y-65572764D01*
X120374222Y-65594117D01*
X120369360Y-65624196D01*
X120365597Y-65664960D01*
X120362793Y-65718367D01*
X120360811Y-65786376D01*
X120359511Y-65870947D01*
X120358756Y-65974038D01*
X120358407Y-66097608D01*
X120358325Y-66236263D01*
X120358325Y-66842105D01*
X120054497Y-66842105D01*
X120054497Y-65298660D01*
X120358325Y-65298660D01*
X120358325Y-65448144D01*
X120393476Y-65399619D01*
X120443968Y-65341292D01*
X120497812Y-65303267D01*
X120545247Y-65285238D01*
X120618939Y-65276017D01*
X120691645Y-65286043D01*
X120691645Y-65286043D01*
G37*
X120691645Y-65286043D02*
X120757990Y-65313264D01*
X120812601Y-65355627D01*
X120844468Y-65399493D01*
X120872906Y-65453098D01*
X120910841Y-65403362D01*
X120973208Y-65339166D01*
X121045174Y-65297232D01*
X121126227Y-65277787D01*
X121194425Y-65278273D01*
X121272830Y-65296915D01*
X121336987Y-65335155D01*
X121386656Y-65392731D01*
X121421601Y-65469380D01*
X121439511Y-65549076D01*
X121441970Y-65578255D01*
X121444264Y-65629056D01*
X121446345Y-65698799D01*
X121448164Y-65784800D01*
X121449674Y-65884377D01*
X121450826Y-65994847D01*
X121451572Y-66113528D01*
X121451864Y-66237488D01*
X121452105Y-66842105D01*
X121148277Y-66842105D01*
X121148277Y-66236263D01*
X121148186Y-66091347D01*
X121147821Y-65968777D01*
X121147044Y-65866595D01*
X121145716Y-65782843D01*
X121143698Y-65715560D01*
X121140852Y-65662788D01*
X121137041Y-65622567D01*
X121132124Y-65592940D01*
X121125965Y-65571946D01*
X121118425Y-65557628D01*
X121109364Y-65548025D01*
X121099186Y-65541466D01*
X121069783Y-65533305D01*
X121028356Y-65529864D01*
X120986792Y-65531515D01*
X120960449Y-65537118D01*
X120948522Y-65542430D01*
X120938448Y-65549763D01*
X120930069Y-65561068D01*
X120923229Y-65578294D01*
X120917774Y-65603392D01*
X120913546Y-65638312D01*
X120910389Y-65685006D01*
X120908149Y-65745423D01*
X120906668Y-65821513D01*
X120905790Y-65915228D01*
X120905361Y-66028518D01*
X120905223Y-66163332D01*
X120905215Y-66227769D01*
X120905215Y-66842105D01*
X120602020Y-66842105D01*
X120598666Y-66209063D01*
X120595311Y-65576022D01*
X120566620Y-65552796D01*
X120532674Y-65537076D01*
X120486823Y-65529731D01*
X120440255Y-65531559D01*
X120407417Y-65541466D01*
X120396779Y-65548397D01*
X120387793Y-65558177D01*
X120380320Y-65572764D01*
X120374222Y-65594117D01*
X120369360Y-65624196D01*
X120365597Y-65664960D01*
X120362793Y-65718367D01*
X120360811Y-65786376D01*
X120359511Y-65870947D01*
X120358756Y-65974038D01*
X120358407Y-66097608D01*
X120358325Y-66236263D01*
X120358325Y-66842105D01*
X120054497Y-66842105D01*
X120054497Y-65298660D01*
X120358325Y-65298660D01*
X120358325Y-65448144D01*
X120393476Y-65399619D01*
X120443968Y-65341292D01*
X120497812Y-65303267D01*
X120545247Y-65285238D01*
X120618939Y-65276017D01*
X120691645Y-65286043D01*
G36*
X111966603Y-65231818D02*
X111817727Y-65235230D01*
X111668852Y-65238643D01*
X111668852Y-64994832D01*
X111973559Y-64994832D01*
X111966603Y-65231818D01*
X111966603Y-65231818D01*
G37*
X111966603Y-65231818D02*
X111817727Y-65235230D01*
X111668852Y-65238643D01*
X111668852Y-64994832D01*
X111973559Y-64994832D01*
X111966603Y-65231818D01*
D12*
X148590000Y-74930000D03*
D13*
X156210000Y-90170000D03*
X148590000Y-77470000D03*
X156210000Y-87630000D03*
X148590000Y-80010000D03*
X156210000Y-85090000D03*
X148590000Y-82550000D03*
X156210000Y-82550000D03*
X148590000Y-85090000D03*
X156210000Y-80010000D03*
X148590000Y-87630000D03*
X156210000Y-77470000D03*
X148590000Y-90170000D03*
X156210000Y-74930000D03*
D14*
X88900000Y-93980000D03*
X91400000Y-93980000D03*
X101600000Y-93980000D03*
X104100000Y-93980000D03*
X114300000Y-93980000D03*
X116800000Y-93980000D03*
X127000000Y-93980000D03*
X129500000Y-93980000D03*
X138430000Y-93980000D03*
X140930000Y-93980000D03*
X151130000Y-93980000D03*
X153630000Y-93980000D03*
X163830000Y-93980000D03*
X166330000Y-93980000D03*
X176530000Y-93980000D03*
X179030000Y-93980000D03*
X165100000Y-115570000D03*
X167600000Y-115570000D03*
X153670000Y-118110000D03*
X151170000Y-118110000D03*
X176530000Y-115570000D03*
X179030000Y-115570000D03*
X115570000Y-118110000D03*
X118070000Y-118110000D03*
D12*
X86360000Y-74930000D03*
D13*
X93980000Y-90170000D03*
X86360000Y-77470000D03*
X93980000Y-87630000D03*
X86360000Y-80010000D03*
X93980000Y-85090000D03*
X86360000Y-82550000D03*
X93980000Y-82550000D03*
X86360000Y-85090000D03*
X93980000Y-80010000D03*
X86360000Y-87630000D03*
X93980000Y-77470000D03*
X86360000Y-90170000D03*
X93980000Y-74930000D03*
D12*
X99060000Y-74930000D03*
D13*
X106680000Y-90170000D03*
X99060000Y-77470000D03*
X106680000Y-87630000D03*
X99060000Y-80010000D03*
X106680000Y-85090000D03*
X99060000Y-82550000D03*
X106680000Y-82550000D03*
X99060000Y-85090000D03*
X106680000Y-80010000D03*
X99060000Y-87630000D03*
X106680000Y-77470000D03*
X99060000Y-90170000D03*
X106680000Y-74930000D03*
D12*
X111760000Y-74930000D03*
D13*
X119380000Y-90170000D03*
X111760000Y-77470000D03*
X119380000Y-87630000D03*
X111760000Y-80010000D03*
X119380000Y-85090000D03*
X111760000Y-82550000D03*
X119380000Y-82550000D03*
X111760000Y-85090000D03*
X119380000Y-80010000D03*
X111760000Y-87630000D03*
X119380000Y-77470000D03*
X111760000Y-90170000D03*
X119380000Y-74930000D03*
D12*
X124460000Y-74930000D03*
D13*
X132080000Y-90170000D03*
X124460000Y-77470000D03*
X132080000Y-87630000D03*
X124460000Y-80010000D03*
X132080000Y-85090000D03*
X124460000Y-82550000D03*
X132080000Y-82550000D03*
X124460000Y-85090000D03*
X132080000Y-80010000D03*
X124460000Y-87630000D03*
X132080000Y-77470000D03*
X124460000Y-90170000D03*
X132080000Y-74930000D03*
D12*
X135890000Y-74930000D03*
D13*
X143510000Y-90170000D03*
X135890000Y-77470000D03*
X143510000Y-87630000D03*
X135890000Y-80010000D03*
X143510000Y-85090000D03*
X135890000Y-82550000D03*
X143510000Y-82550000D03*
X135890000Y-85090000D03*
X143510000Y-80010000D03*
X135890000Y-87630000D03*
X143510000Y-77470000D03*
X135890000Y-90170000D03*
X143510000Y-74930000D03*
D12*
X161290000Y-74930000D03*
D13*
X168910000Y-90170000D03*
X161290000Y-77470000D03*
X168910000Y-87630000D03*
X161290000Y-80010000D03*
X168910000Y-85090000D03*
X161290000Y-82550000D03*
X168910000Y-82550000D03*
X161290000Y-85090000D03*
X168910000Y-80010000D03*
X161290000Y-87630000D03*
X168910000Y-77470000D03*
X161290000Y-90170000D03*
X168910000Y-74930000D03*
D12*
X173990000Y-74930000D03*
D13*
X181610000Y-90170000D03*
X173990000Y-77470000D03*
X181610000Y-87630000D03*
X173990000Y-80010000D03*
X181610000Y-85090000D03*
X173990000Y-82550000D03*
X181610000Y-82550000D03*
X173990000Y-85090000D03*
X181610000Y-80010000D03*
X173990000Y-87630000D03*
X181610000Y-77470000D03*
X173990000Y-90170000D03*
X181610000Y-74930000D03*
D12*
X162560000Y-119380000D03*
D13*
X170180000Y-134620000D03*
X162560000Y-121920000D03*
X170180000Y-132080000D03*
X162560000Y-124460000D03*
X170180000Y-129540000D03*
X162560000Y-127000000D03*
X170180000Y-127000000D03*
X162560000Y-129540000D03*
X170180000Y-124460000D03*
X162560000Y-132080000D03*
X170180000Y-121920000D03*
X162560000Y-134620000D03*
X170180000Y-119380000D03*
D12*
X173990000Y-119380000D03*
D13*
X181610000Y-134620000D03*
X173990000Y-121920000D03*
X181610000Y-132080000D03*
X173990000Y-124460000D03*
X181610000Y-129540000D03*
X173990000Y-127000000D03*
X181610000Y-127000000D03*
X173990000Y-129540000D03*
X181610000Y-124460000D03*
X173990000Y-132080000D03*
X181610000Y-121920000D03*
X173990000Y-134620000D03*
X181610000Y-119380000D03*
D15*
X86360000Y-134620000D03*
X88900000Y-134620000D03*
X91440000Y-134620000D03*
X93980000Y-134620000D03*
X96520000Y-134620000D03*
X99060000Y-134620000D03*
X101600000Y-134620000D03*
X104140000Y-134620000D03*
X86360000Y-129540000D03*
X88900000Y-129540000D03*
X91440000Y-129540000D03*
X93980000Y-129540000D03*
X96520000Y-129540000D03*
X99060000Y-129540000D03*
X101600000Y-129540000D03*
X104140000Y-129540000D03*
X154940000Y-129540000D03*
X154940000Y-134620000D03*
X152400000Y-129540000D03*
X152400000Y-134620000D03*
X149860000Y-129540000D03*
X149860000Y-134620000D03*
X147320000Y-129540000D03*
X147320000Y-134620000D03*
X142240000Y-129540000D03*
X142240000Y-134620000D03*
X139700000Y-129540000D03*
X139700000Y-134620000D03*
X137160000Y-129540000D03*
X137160000Y-134620000D03*
X134620000Y-129540000D03*
X134620000Y-134620000D03*
X132080000Y-129540000D03*
X132080000Y-134620000D03*
X129540000Y-129540000D03*
X129540000Y-134620000D03*
X127000000Y-129540000D03*
X127000000Y-134620000D03*
X124460000Y-129540000D03*
X124460000Y-134620000D03*
X121920000Y-129540000D03*
X121920000Y-134620000D03*
X119380000Y-129540000D03*
X119380000Y-134620000D03*
X116840000Y-129540000D03*
X116840000Y-134620000D03*
X114300000Y-129540000D03*
X114300000Y-134620000D03*
X111760000Y-129540000D03*
X111760000Y-134620000D03*
X109220000Y-129540000D03*
X109220000Y-134620000D03*
X106680000Y-129540000D03*
X106680000Y-134620000D03*
D14*
X167132000Y-70866000D03*
D13*
X177292000Y-70866000D03*
D14*
X161544000Y-70866000D03*
D13*
X151384000Y-70866000D03*
D16*
X139242800Y-66573400D03*
X145745200Y-66573400D03*
X139242800Y-71094600D03*
X145745200Y-71094600D03*
D12*
X120650000Y-99060000D03*
D13*
X87630000Y-114300000D03*
X118110000Y-99060000D03*
X90170000Y-114300000D03*
X115570000Y-99060000D03*
X92710000Y-114300000D03*
X113030000Y-99060000D03*
X95250000Y-114300000D03*
X110490000Y-99060000D03*
X97790000Y-114300000D03*
X107950000Y-99060000D03*
X100330000Y-114300000D03*
X105410000Y-99060000D03*
X102870000Y-114300000D03*
X102870000Y-99060000D03*
X105410000Y-114300000D03*
X100330000Y-99060000D03*
X107950000Y-114300000D03*
X97790000Y-99060000D03*
X110490000Y-114300000D03*
X95250000Y-99060000D03*
X113030000Y-114300000D03*
X92710000Y-99060000D03*
X115570000Y-114300000D03*
X90170000Y-99060000D03*
X118110000Y-114300000D03*
X87630000Y-99060000D03*
X120650000Y-114300000D03*
D12*
X161290000Y-99060000D03*
D13*
X128270000Y-114300000D03*
X158750000Y-99060000D03*
X130810000Y-114300000D03*
X156210000Y-99060000D03*
X133350000Y-114300000D03*
X153670000Y-99060000D03*
X135890000Y-114300000D03*
X151130000Y-99060000D03*
X138430000Y-114300000D03*
X148590000Y-99060000D03*
X140970000Y-114300000D03*
X146050000Y-99060000D03*
X143510000Y-114300000D03*
X143510000Y-99060000D03*
X146050000Y-114300000D03*
X140970000Y-99060000D03*
X148590000Y-114300000D03*
X138430000Y-99060000D03*
X151130000Y-114300000D03*
X135890000Y-99060000D03*
X153670000Y-114300000D03*
X133350000Y-99060000D03*
X156210000Y-114300000D03*
X130810000Y-99060000D03*
X158750000Y-114300000D03*
X128270000Y-99060000D03*
X161290000Y-114300000D03*
D17*
X170550000Y-102650000D03*
M02*
