M48
;DRILL file {KiCad 4.0.5} date 09/11/17 10:35:44
;FORMAT={-:-/ absolute / inch / decimal}
FMAT,2
INCH,TZ
T1C0.016
T2C0.031
T3C0.040
T4C0.047
%
G90
G05
M72
T1
X3.38Y-2.78
X3.4079Y-3.7825
X3.4392Y-3.7983
X3.4998Y-3.6202
X3.51Y-4.78
X3.54Y-4.93
X3.5421Y-3.4494
X3.5641Y-3.2998
X3.59Y-3.35
X3.6Y-3.55
X3.6Y-4.93
X3.61Y-3.21
X3.65Y-5.22
X3.67Y-3.67
X3.67Y-4.7
X3.6998Y-3.9502
X3.7237Y-4.8021
X3.7257Y-3.6779
X3.7562Y-3.6702
X3.7574Y-4.7322
X3.7736Y-4.9495
X3.78Y-3.
X3.7861Y-3.6573
X3.7954Y-3.3189
X3.7959Y-3.48
X3.7999Y-4.7598
X3.8Y-3.9504
X3.8111Y-3.39
X3.8187Y-3.6573
X3.827Y-3.7771
X3.8299Y-3.7457
X3.8299Y-4.9955
X3.8321Y-4.7598
X3.8352Y-4.85
X3.8556Y-3.644
X3.8593Y-4.9119
X3.86Y-4.95
X3.8636Y-4.7601
X3.8957Y-4.7606
X3.91Y-4.84
X3.92Y-4.42
X3.97Y-3.38
X3.98Y-4.76
X3.9926Y-3.5726
X3.9953Y-3.4505
X3.9983Y-4.3342
X4.0263Y-4.7685
X4.04Y-2.95
X4.04Y-3.05
X4.0427Y-3.6009
X4.0796Y-4.9896
X4.1Y-4.66
X4.11Y-4.58
X4.15Y-4.2073
X4.1754Y-4.57
X4.2Y-4.61
X4.21Y-4.96
X4.26Y-4.92
X4.2666Y-3.709
X4.27Y-3.4
X4.2777Y-3.6348
X4.2888Y-5.1903
X4.29Y-3.
X4.29Y-3.1
X4.2946Y-4.7518
X4.3Y-4.61
X4.3002Y-4.7009
X4.3176Y-3.4024
X4.33Y-3.1
X4.33Y-3.71
X4.38Y-3.71
X4.3847Y-3.6688
X4.4Y-4.61
X4.42Y-5.19
X4.4365Y-4.8477
X4.47Y-4.78
X4.47Y-4.9505
X4.47Y-5.01
X4.48Y-4.61
X4.5063Y-4.7077
X4.51Y-3.5435
X4.54Y-3.3
X4.5476Y-4.8324
X4.5496Y-3.7401
X4.5505Y-4.9505
X4.5646Y-3.39
X4.6Y-3.96
X4.6Y-4.43
X4.6012Y-5.2042
X4.66Y-4.27
X4.6653Y-3.979
X4.68Y-4.75
X4.75Y-3.9
X4.75Y-4.68
X4.78Y-3.84
X4.7808Y-4.8277
X4.7976Y-3.7652
X4.8278Y-3.0222
X4.84Y-4.27
X4.8646Y-4.5
X4.88Y-3.74
X4.9Y-4.62
X4.9023Y-4.3497
X4.9023Y-4.3897
X4.9038Y-4.2389
X4.9041Y-4.3007
X4.9117Y-3.9975
X4.93Y-4.9755
X4.9409Y-3.9502
X4.9489Y-4.206
X4.9799Y-3.8053
X4.991Y-5.1954
X4.9976Y-3.0725
X5.Y-2.94
X5.Y-4.24
X5.Y-4.3
X5.Y-4.35
X5.Y-4.39
X5.Y-4.7
X5.02Y-3.9746
X5.0216Y-3.36
X5.0216Y-3.42
X5.0329Y-4.0689
X5.04Y-3.63
X5.05Y-4.26
X5.0654Y-4.3914
X5.0885Y-4.26
X5.0885Y-4.1694
X5.091Y-3.9752
X5.0973Y-4.0473
X5.1Y-3.3246
X5.1004Y-4.3916
X5.12Y-2.81
X5.12Y-4.17
X5.12Y-4.26
X5.1293Y-4.0177
X5.1349Y-4.9609
X5.1498Y-4.3476
X5.15Y-4.3
X5.1512Y-3.9951
X5.1528Y-4.379
X5.1612Y-4.1699
X5.1617Y-4.0685
X5.1901Y-3.9865
X5.1997Y-4.1697
X5.2412Y-3.9959
X5.2516Y-4.1412
X5.2526Y-3.
X5.2729Y-3.9921
X5.3091Y-4.0619
X5.3153Y-4.0209
X5.3492Y-4.1327
X5.3978Y-4.0328
X5.3989Y-4.7154
X5.44Y-2.95
X5.44Y-3.25
X5.44Y-4.9609
X5.46Y-3.77
X5.4622Y-3.1946
X5.47Y-3.295
X5.49Y-3.61
X5.5Y-4.62
X5.5258Y-4.9786
X5.53Y-3.5
X5.53Y-3.6346
X5.53Y-4.44
X5.54Y-3.0755
X5.54Y-4.27
X5.5546Y-4.42
X5.57Y-2.98
X5.574Y-4.9556
X5.581Y-2.8194
X5.59Y-4.28
X5.5909Y-3.3
X5.6Y-4.24
X5.6285Y-4.9037
X5.65Y-4.7
X5.66Y-3.74
X5.6727Y-5.0046
X5.6799Y-3.6447
X5.7Y-3.97
X5.73Y-3.23
X5.74Y-3.67
X5.77Y-3.37
X5.77Y-3.43
X5.79Y-3.1
X5.79Y-4.3
X5.7973Y-4.9092
X5.86Y-4.78
X5.88Y-3.83
X5.89Y-4.35
X5.9Y-4.06
X5.9326Y-3.0326
X5.94Y-3.2253
X5.94Y-3.99
X5.94Y-4.1
X5.97Y-5.2
X5.9955Y-3.6351
X6.Y-5.01
X6.05Y-3.99
X6.05Y-4.13
X6.0508Y-4.9932
X6.0548Y-4.9289
X6.1Y-4.41
X6.1073Y-3.6349
X6.1506Y-4.9406
X6.17Y-5.2446
X6.18Y-5.07
X6.19Y-4.98
X6.19Y-5.15
X6.2Y-3.6346
X6.2Y-4.91
X6.2Y-5.02
X6.2006Y-5.2169
X6.2154Y-3.5189
X6.23Y-4.76
X6.25Y-4.91
X6.25Y-5.02
X6.2583Y-4.7985
X6.26Y-5.27
X6.2823Y-3.4626
X6.2856Y-4.7192
X6.3002Y-4.597
X6.3082Y-5.003
X6.31Y-5.22
X6.3198Y-4.7398
X6.45Y-2.8462
X6.48Y-3.3
X6.55Y-4.89
X6.57Y-4.25
X6.62Y-4.64
X6.63Y-4.28
X6.63Y-4.44
X6.69Y-4.22
X6.71Y-4.49
X6.7198Y-2.8336
X6.72Y-2.89
X6.75Y-3.15
X6.77Y-3.21
X6.78Y-4.37
X6.84Y-3.82
X6.85Y-3.72
X6.89Y-2.88
X6.91Y-3.45
X6.9123Y-2.8577
X6.93Y-3.16
X6.95Y-3.4
X6.96Y-3.5
X7.01Y-3.1
X7.01Y-3.2
X7.1Y-3.1
X7.1Y-3.2
X7.21Y-3.5
T2
X3.4Y-2.95
X3.4Y-3.05
X3.4Y-3.15
X3.4Y-3.25
X3.4Y-3.35
X3.4Y-3.45
X3.4Y-3.55
X3.45Y-3.9
X3.45Y-4.5
X3.5Y-3.7
X3.55Y-3.9
X3.55Y-4.5
X3.5984Y-3.7
X3.65Y-3.9
X3.65Y-4.5
X3.7Y-2.95
X3.7Y-3.05
X3.7Y-3.15
X3.7Y-3.25
X3.7Y-3.35
X3.7Y-3.45
X3.7Y-3.55
X3.75Y-3.9
X3.75Y-4.5
X3.85Y-3.9
X3.85Y-4.5
X3.9Y-2.95
X3.9Y-3.05
X3.9Y-3.15
X3.9Y-3.25
X3.9Y-3.35
X3.9Y-3.45
X3.9Y-3.55
X3.95Y-3.9
X3.95Y-4.5
X4.Y-3.7
X4.05Y-3.9
X4.05Y-4.5
X4.0984Y-3.7
X4.15Y-3.9
X4.15Y-4.5
X4.2Y-2.95
X4.2Y-3.05
X4.2Y-3.15
X4.2Y-3.25
X4.2Y-3.35
X4.2Y-3.45
X4.2Y-3.55
X4.25Y-3.9
X4.25Y-4.5
X4.35Y-3.9
X4.35Y-4.5
X4.4Y-2.95
X4.4Y-3.05
X4.4Y-3.15
X4.4Y-3.25
X4.4Y-3.35
X4.4Y-3.45
X4.4Y-3.55
X4.45Y-3.9
X4.45Y-4.5
X4.5Y-3.7
X4.55Y-3.9
X4.55Y-4.5
X4.55Y-4.65
X4.5984Y-3.7
X4.6484Y-4.65
X4.65Y-3.9
X4.65Y-4.5
X4.7Y-2.95
X4.7Y-3.05
X4.7Y-3.15
X4.7Y-3.25
X4.7Y-3.35
X4.7Y-3.45
X4.7Y-3.55
X4.75Y-3.9
X4.75Y-4.5
X4.9Y-2.95
X4.9Y-3.05
X4.9Y-3.15
X4.9Y-3.25
X4.9Y-3.35
X4.9Y-3.45
X4.9Y-3.55
X5.Y-3.7
X5.05Y-3.9
X5.05Y-4.5
X5.0984Y-3.7
X5.15Y-3.9
X5.15Y-4.5
X5.2Y-2.95
X5.2Y-3.05
X5.2Y-3.15
X5.2Y-3.25
X5.2Y-3.35
X5.2Y-3.45
X5.2Y-3.55
X5.25Y-3.9
X5.25Y-4.5
X5.35Y-2.95
X5.35Y-3.05
X5.35Y-3.15
X5.35Y-3.25
X5.35Y-3.35
X5.35Y-3.45
X5.35Y-3.55
X5.35Y-3.9
X5.35Y-4.5
X5.45Y-3.7
X5.45Y-3.9
X5.45Y-4.5
X5.5484Y-3.7
X5.55Y-3.9
X5.55Y-4.5
X5.65Y-2.95
X5.65Y-3.05
X5.65Y-3.15
X5.65Y-3.25
X5.65Y-3.35
X5.65Y-3.45
X5.65Y-3.55
X5.65Y-3.9
X5.65Y-4.5
X5.75Y-3.9
X5.75Y-4.5
X5.85Y-2.95
X5.85Y-3.05
X5.85Y-3.15
X5.85Y-3.25
X5.85Y-3.35
X5.85Y-3.45
X5.85Y-3.55
X5.85Y-3.9
X5.85Y-4.5
X5.95Y-3.7
X5.95Y-3.9
X5.95Y-4.5
X5.9516Y-4.65
X5.96Y-2.79
X6.0484Y-3.7
X6.05Y-3.9
X6.05Y-4.5
X6.05Y-4.65
X6.15Y-2.95
X6.15Y-3.05
X6.15Y-3.15
X6.15Y-3.25
X6.15Y-3.35
X6.15Y-3.45
X6.15Y-3.55
X6.15Y-3.9
X6.15Y-4.5
X6.25Y-3.9
X6.25Y-4.5
X6.35Y-2.95
X6.35Y-3.05
X6.35Y-3.15
X6.35Y-3.25
X6.35Y-3.35
X6.35Y-3.45
X6.35Y-3.55
X6.35Y-3.9
X6.35Y-4.5
X6.36Y-2.79
X6.4Y-4.7
X6.4Y-4.8
X6.4Y-4.9
X6.4Y-5.
X6.4Y-5.1
X6.4Y-5.2
X6.4Y-5.3
X6.45Y-3.7
X6.5Y-4.55
X6.5484Y-3.7
X6.58Y-2.79
X6.5984Y-4.55
X6.65Y-2.95
X6.65Y-3.05
X6.65Y-3.15
X6.65Y-3.25
X6.65Y-3.35
X6.65Y-3.45
X6.65Y-3.55
X6.7Y-4.7
X6.7Y-4.8
X6.7Y-4.9
X6.7Y-5.
X6.7Y-5.1
X6.7Y-5.2
X6.7Y-5.3
X6.85Y-2.95
X6.85Y-3.05
X6.85Y-3.15
X6.85Y-3.25
X6.85Y-3.35
X6.85Y-3.45
X6.85Y-3.55
X6.85Y-4.7
X6.85Y-4.8
X6.85Y-4.9
X6.85Y-5.
X6.85Y-5.1
X6.85Y-5.2
X6.85Y-5.3
X6.95Y-3.7
X6.95Y-4.55
X6.98Y-2.79
X7.0484Y-3.7
X7.0484Y-4.55
X7.15Y-2.95
X7.15Y-3.05
X7.15Y-3.15
X7.15Y-3.25
X7.15Y-3.35
X7.15Y-3.45
X7.15Y-3.55
X7.15Y-4.7
X7.15Y-4.8
X7.15Y-4.9
X7.15Y-5.
X7.15Y-5.1
X7.15Y-5.2
X7.15Y-5.3
T3
X5.482Y-2.621
X5.482Y-2.799
X5.738Y-2.621
X5.738Y-2.799
T4
X3.4Y-5.1
X3.4Y-5.3
X3.5Y-5.1
X3.5Y-5.3
X3.6Y-5.1
X3.6Y-5.3
X3.7Y-5.1
X3.7Y-5.3
X3.8Y-5.1
X3.8Y-5.3
X3.9Y-5.1
X3.9Y-5.3
X4.Y-5.1
X4.Y-5.3
X4.1Y-5.1
X4.1Y-5.3
X4.2Y-5.1
X4.2Y-5.3
X4.3Y-5.1
X4.3Y-5.3
X4.4Y-5.1
X4.4Y-5.3
X4.5Y-5.1
X4.5Y-5.3
X4.6Y-5.1
X4.6Y-5.3
X4.7Y-5.1
X4.7Y-5.3
X4.8Y-5.1
X4.8Y-5.3
X4.9Y-5.1
X4.9Y-5.3
X5.Y-5.1
X5.Y-5.3
X5.1Y-5.1
X5.1Y-5.3
X5.2Y-5.1
X5.2Y-5.3
X5.3Y-5.1
X5.3Y-5.3
X5.4Y-5.1
X5.4Y-5.3
X5.5Y-5.1
X5.5Y-5.3
X5.6Y-5.1
X5.6Y-5.3
X5.8Y-5.1
X5.8Y-5.3
X5.9Y-5.1
X5.9Y-5.3
X6.Y-5.1
X6.Y-5.3
X6.1Y-5.1
X6.1Y-5.3
T0
M30
