G04 #@! TF.FileFunction,Legend,Bot*
%FSLAX46Y46*%
G04 Gerber Fmt 4.6, Leading zero omitted, Abs format (unit mm)*
G04 Created by KiCad (PCBNEW 4.0.5) date 09/11/17 10:35:41*
%MOMM*%
%LPD*%
G01*
G04 APERTURE LIST*
%ADD10C,0.100000*%
%ADD11C,0.125000*%
G04 APERTURE END LIST*
D10*
D11*
X87014762Y-127861190D02*
X87014762Y-127361190D01*
X86729048Y-127861190D01*
X86729048Y-127361190D01*
X86133810Y-127337381D02*
X86562381Y-127980238D01*
X85681428Y-127813571D02*
X85705238Y-127837381D01*
X85776666Y-127861190D01*
X85824285Y-127861190D01*
X85895714Y-127837381D01*
X85943333Y-127789762D01*
X85967142Y-127742143D01*
X85990952Y-127646905D01*
X85990952Y-127575476D01*
X85967142Y-127480238D01*
X85943333Y-127432619D01*
X85895714Y-127385000D01*
X85824285Y-127361190D01*
X85776666Y-127361190D01*
X85705238Y-127385000D01*
X85681428Y-127408810D01*
X89495237Y-127718333D02*
X89257142Y-127718333D01*
X89542856Y-127861190D02*
X89376189Y-127361190D01*
X89209523Y-127861190D01*
X88780952Y-127861190D02*
X89066666Y-127861190D01*
X88923809Y-127861190D02*
X88923809Y-127361190D01*
X88971428Y-127432619D01*
X89019047Y-127480238D01*
X89066666Y-127504048D01*
X88471428Y-127361190D02*
X88423809Y-127361190D01*
X88376190Y-127385000D01*
X88352381Y-127408810D01*
X88328571Y-127456429D01*
X88304762Y-127551667D01*
X88304762Y-127670714D01*
X88328571Y-127765952D01*
X88352381Y-127813571D01*
X88376190Y-127837381D01*
X88423809Y-127861190D01*
X88471428Y-127861190D01*
X88519047Y-127837381D01*
X88542857Y-127813571D01*
X88566666Y-127765952D01*
X88590476Y-127670714D01*
X88590476Y-127551667D01*
X88566666Y-127456429D01*
X88542857Y-127408810D01*
X88519047Y-127385000D01*
X88471428Y-127361190D01*
X86955237Y-136608333D02*
X86717142Y-136608333D01*
X87002856Y-136751190D02*
X86836189Y-136251190D01*
X86669523Y-136751190D01*
X86240952Y-136751190D02*
X86526666Y-136751190D01*
X86383809Y-136751190D02*
X86383809Y-136251190D01*
X86431428Y-136322619D01*
X86479047Y-136370238D01*
X86526666Y-136394048D01*
X85764762Y-136751190D02*
X86050476Y-136751190D01*
X85907619Y-136751190D02*
X85907619Y-136251190D01*
X85955238Y-136322619D01*
X86002857Y-136370238D01*
X86050476Y-136394048D01*
X89257142Y-136608333D02*
X89019047Y-136608333D01*
X89304761Y-136751190D02*
X89138094Y-136251190D01*
X88971428Y-136751190D01*
X88780952Y-136751190D02*
X88685714Y-136751190D01*
X88638095Y-136727381D01*
X88614285Y-136703571D01*
X88566666Y-136632143D01*
X88542857Y-136536905D01*
X88542857Y-136346429D01*
X88566666Y-136298810D01*
X88590476Y-136275000D01*
X88638095Y-136251190D01*
X88733333Y-136251190D01*
X88780952Y-136275000D01*
X88804761Y-136298810D01*
X88828571Y-136346429D01*
X88828571Y-136465476D01*
X88804761Y-136513095D01*
X88780952Y-136536905D01*
X88733333Y-136560714D01*
X88638095Y-136560714D01*
X88590476Y-136536905D01*
X88566666Y-136513095D01*
X88542857Y-136465476D01*
X91797142Y-127718333D02*
X91559047Y-127718333D01*
X91844761Y-127861190D02*
X91678094Y-127361190D01*
X91511428Y-127861190D01*
X91273333Y-127575476D02*
X91320952Y-127551667D01*
X91344761Y-127527857D01*
X91368571Y-127480238D01*
X91368571Y-127456429D01*
X91344761Y-127408810D01*
X91320952Y-127385000D01*
X91273333Y-127361190D01*
X91178095Y-127361190D01*
X91130476Y-127385000D01*
X91106666Y-127408810D01*
X91082857Y-127456429D01*
X91082857Y-127480238D01*
X91106666Y-127527857D01*
X91130476Y-127551667D01*
X91178095Y-127575476D01*
X91273333Y-127575476D01*
X91320952Y-127599286D01*
X91344761Y-127623095D01*
X91368571Y-127670714D01*
X91368571Y-127765952D01*
X91344761Y-127813571D01*
X91320952Y-127837381D01*
X91273333Y-127861190D01*
X91178095Y-127861190D01*
X91130476Y-127837381D01*
X91106666Y-127813571D01*
X91082857Y-127765952D01*
X91082857Y-127670714D01*
X91106666Y-127623095D01*
X91130476Y-127599286D01*
X91178095Y-127575476D01*
X94539523Y-127861190D02*
X94706190Y-127623095D01*
X94825237Y-127861190D02*
X94825237Y-127361190D01*
X94634761Y-127361190D01*
X94587142Y-127385000D01*
X94563333Y-127408810D01*
X94539523Y-127456429D01*
X94539523Y-127527857D01*
X94563333Y-127575476D01*
X94587142Y-127599286D01*
X94634761Y-127623095D01*
X94825237Y-127623095D01*
X94158571Y-127599286D02*
X94325237Y-127599286D01*
X94325237Y-127861190D02*
X94325237Y-127361190D01*
X94087142Y-127361190D01*
X93920476Y-127837381D02*
X93849047Y-127861190D01*
X93730000Y-127861190D01*
X93682381Y-127837381D01*
X93658571Y-127813571D01*
X93634762Y-127765952D01*
X93634762Y-127718333D01*
X93658571Y-127670714D01*
X93682381Y-127646905D01*
X93730000Y-127623095D01*
X93825238Y-127599286D01*
X93872857Y-127575476D01*
X93896666Y-127551667D01*
X93920476Y-127504048D01*
X93920476Y-127456429D01*
X93896666Y-127408810D01*
X93872857Y-127385000D01*
X93825238Y-127361190D01*
X93706190Y-127361190D01*
X93634762Y-127385000D01*
X93420476Y-127861190D02*
X93420476Y-127361190D01*
X93420476Y-127599286D02*
X93134762Y-127599286D01*
X93134762Y-127861190D02*
X93134762Y-127361190D01*
X94944285Y-127275000D02*
X93015714Y-127275000D01*
X96924761Y-127861190D02*
X96924761Y-127361190D01*
X96758095Y-127718333D01*
X96591428Y-127361190D01*
X96591428Y-127861190D01*
X96091428Y-127861190D02*
X96377142Y-127861190D01*
X96234285Y-127861190D02*
X96234285Y-127361190D01*
X96281904Y-127432619D01*
X96329523Y-127480238D01*
X96377142Y-127504048D01*
X97043809Y-127275000D02*
X95996190Y-127275000D01*
X100179047Y-127670714D02*
X99798095Y-127670714D01*
X99988571Y-127861190D02*
X99988571Y-127480238D01*
X99298095Y-127861190D02*
X99583809Y-127861190D01*
X99440952Y-127861190D02*
X99440952Y-127361190D01*
X99488571Y-127432619D01*
X99536190Y-127480238D01*
X99583809Y-127504048D01*
X99107619Y-127408810D02*
X99083809Y-127385000D01*
X99036190Y-127361190D01*
X98917143Y-127361190D01*
X98869524Y-127385000D01*
X98845714Y-127408810D01*
X98821905Y-127456429D01*
X98821905Y-127504048D01*
X98845714Y-127575476D01*
X99131428Y-127861190D01*
X98821905Y-127861190D01*
X98655238Y-127527857D02*
X98536191Y-127861190D01*
X98417143Y-127527857D01*
X98226667Y-127361190D02*
X98226667Y-127765952D01*
X98202858Y-127813571D01*
X98179048Y-127837381D01*
X98131429Y-127861190D01*
X98036191Y-127861190D01*
X97988572Y-127837381D01*
X97964763Y-127813571D01*
X97940953Y-127765952D01*
X97940953Y-127361190D01*
D10*
X92382857Y-136496429D02*
X92325714Y-136515476D01*
X92306666Y-136534524D01*
X92287618Y-136572619D01*
X92287618Y-136629762D01*
X92306666Y-136667857D01*
X92325714Y-136686905D01*
X92363809Y-136705952D01*
X92516190Y-136705952D01*
X92516190Y-136305952D01*
X92382857Y-136305952D01*
X92344761Y-136325000D01*
X92325714Y-136344048D01*
X92306666Y-136382143D01*
X92306666Y-136420238D01*
X92325714Y-136458333D01*
X92344761Y-136477381D01*
X92382857Y-136496429D01*
X92516190Y-136496429D01*
X92116190Y-136305952D02*
X92116190Y-136629762D01*
X92097142Y-136667857D01*
X92078095Y-136686905D01*
X92039999Y-136705952D01*
X91963809Y-136705952D01*
X91925714Y-136686905D01*
X91906666Y-136667857D01*
X91887618Y-136629762D01*
X91887618Y-136305952D01*
X91716190Y-136686905D02*
X91659047Y-136705952D01*
X91563809Y-136705952D01*
X91525713Y-136686905D01*
X91506666Y-136667857D01*
X91487618Y-136629762D01*
X91487618Y-136591667D01*
X91506666Y-136553571D01*
X91525713Y-136534524D01*
X91563809Y-136515476D01*
X91639999Y-136496429D01*
X91678094Y-136477381D01*
X91697142Y-136458333D01*
X91716190Y-136420238D01*
X91716190Y-136382143D01*
X91697142Y-136344048D01*
X91678094Y-136325000D01*
X91639999Y-136305952D01*
X91544761Y-136305952D01*
X91487618Y-136325000D01*
X91335238Y-136591667D02*
X91144761Y-136591667D01*
X91373333Y-136705952D02*
X91239999Y-136305952D01*
X91106666Y-136705952D01*
X90744761Y-136667857D02*
X90763809Y-136686905D01*
X90820952Y-136705952D01*
X90859047Y-136705952D01*
X90916190Y-136686905D01*
X90954285Y-136648810D01*
X90973333Y-136610714D01*
X90992381Y-136534524D01*
X90992381Y-136477381D01*
X90973333Y-136401190D01*
X90954285Y-136363095D01*
X90916190Y-136325000D01*
X90859047Y-136305952D01*
X90820952Y-136305952D01*
X90763809Y-136325000D01*
X90744761Y-136344048D01*
X90573333Y-136705952D02*
X90573333Y-136305952D01*
X90344761Y-136705952D02*
X90516190Y-136477381D01*
X90344761Y-136305952D02*
X90573333Y-136534524D01*
X92611428Y-136237000D02*
X90268571Y-136237000D01*
X94684761Y-136705952D02*
X94818095Y-136515476D01*
X94913333Y-136705952D02*
X94913333Y-136305952D01*
X94760952Y-136305952D01*
X94722857Y-136325000D01*
X94703809Y-136344048D01*
X94684761Y-136382143D01*
X94684761Y-136439286D01*
X94703809Y-136477381D01*
X94722857Y-136496429D01*
X94760952Y-136515476D01*
X94913333Y-136515476D01*
X94437142Y-136305952D02*
X94360952Y-136305952D01*
X94322857Y-136325000D01*
X94284761Y-136363095D01*
X94265714Y-136439286D01*
X94265714Y-136572619D01*
X94284761Y-136648810D01*
X94322857Y-136686905D01*
X94360952Y-136705952D01*
X94437142Y-136705952D01*
X94475238Y-136686905D01*
X94513333Y-136648810D01*
X94532381Y-136572619D01*
X94532381Y-136439286D01*
X94513333Y-136363095D01*
X94475238Y-136325000D01*
X94437142Y-136305952D01*
X94094285Y-136705952D02*
X94094285Y-136305952D01*
X93960952Y-136591667D01*
X93827618Y-136305952D01*
X93827618Y-136705952D01*
X93408570Y-136667857D02*
X93427618Y-136686905D01*
X93484761Y-136705952D01*
X93522856Y-136705952D01*
X93579999Y-136686905D01*
X93618094Y-136648810D01*
X93637142Y-136610714D01*
X93656190Y-136534524D01*
X93656190Y-136477381D01*
X93637142Y-136401190D01*
X93618094Y-136363095D01*
X93579999Y-136325000D01*
X93522856Y-136305952D01*
X93484761Y-136305952D01*
X93427618Y-136325000D01*
X93408570Y-136344048D01*
X93256190Y-136686905D02*
X93199047Y-136705952D01*
X93103809Y-136705952D01*
X93065713Y-136686905D01*
X93046666Y-136667857D01*
X93027618Y-136629762D01*
X93027618Y-136591667D01*
X93046666Y-136553571D01*
X93065713Y-136534524D01*
X93103809Y-136515476D01*
X93179999Y-136496429D01*
X93218094Y-136477381D01*
X93237142Y-136458333D01*
X93256190Y-136420238D01*
X93256190Y-136382143D01*
X93237142Y-136344048D01*
X93218094Y-136325000D01*
X93179999Y-136305952D01*
X93084761Y-136305952D01*
X93027618Y-136325000D01*
X95008571Y-136237000D02*
X92951428Y-136237000D01*
D11*
X96877142Y-136608333D02*
X96639047Y-136608333D01*
X96924761Y-136751190D02*
X96758094Y-136251190D01*
X96591428Y-136751190D01*
X96210476Y-136417857D02*
X96210476Y-136751190D01*
X96329523Y-136227381D02*
X96448571Y-136584524D01*
X96139047Y-136584524D01*
X99417142Y-136608333D02*
X99179047Y-136608333D01*
X99464761Y-136751190D02*
X99298094Y-136251190D01*
X99131428Y-136751190D01*
X98726666Y-136251190D02*
X98964761Y-136251190D01*
X98988571Y-136489286D01*
X98964761Y-136465476D01*
X98917142Y-136441667D01*
X98798095Y-136441667D01*
X98750476Y-136465476D01*
X98726666Y-136489286D01*
X98702857Y-136536905D01*
X98702857Y-136655952D01*
X98726666Y-136703571D01*
X98750476Y-136727381D01*
X98798095Y-136751190D01*
X98917142Y-136751190D01*
X98964761Y-136727381D01*
X98988571Y-136703571D01*
X102457142Y-127670714D02*
X102076190Y-127670714D01*
X102266666Y-127861190D02*
X102266666Y-127480238D01*
X101576190Y-127861190D02*
X101861904Y-127861190D01*
X101719047Y-127861190D02*
X101719047Y-127361190D01*
X101766666Y-127432619D01*
X101814285Y-127480238D01*
X101861904Y-127504048D01*
X101385714Y-127408810D02*
X101361904Y-127385000D01*
X101314285Y-127361190D01*
X101195238Y-127361190D01*
X101147619Y-127385000D01*
X101123809Y-127408810D01*
X101100000Y-127456429D01*
X101100000Y-127504048D01*
X101123809Y-127575476D01*
X101409523Y-127861190D01*
X101100000Y-127861190D01*
X100933333Y-127527857D02*
X100814286Y-127861190D01*
X100695238Y-127527857D01*
X104878094Y-127361190D02*
X104759047Y-127861190D01*
X104663809Y-127504048D01*
X104568571Y-127861190D01*
X104449523Y-127361190D01*
X104282856Y-127718333D02*
X104044761Y-127718333D01*
X104330475Y-127861190D02*
X104163808Y-127361190D01*
X103997142Y-127861190D01*
X103830475Y-127861190D02*
X103830475Y-127361190D01*
X103663809Y-127361190D02*
X103378095Y-127361190D01*
X103520952Y-127861190D02*
X103520952Y-127361190D01*
X104949523Y-127275000D02*
X103330476Y-127275000D01*
X107299047Y-127670714D02*
X106918095Y-127670714D01*
X106441904Y-127361190D02*
X106679999Y-127361190D01*
X106703809Y-127599286D01*
X106679999Y-127575476D01*
X106632380Y-127551667D01*
X106513333Y-127551667D01*
X106465714Y-127575476D01*
X106441904Y-127599286D01*
X106418095Y-127646905D01*
X106418095Y-127765952D01*
X106441904Y-127813571D01*
X106465714Y-127837381D01*
X106513333Y-127861190D01*
X106632380Y-127861190D01*
X106679999Y-127837381D01*
X106703809Y-127813571D01*
X106251428Y-127527857D02*
X106132381Y-127861190D01*
X106013333Y-127527857D01*
X109684285Y-127361190D02*
X109565238Y-127861190D01*
X109470000Y-127504048D01*
X109374762Y-127861190D01*
X109255714Y-127361190D01*
X108779523Y-127861190D02*
X108946190Y-127623095D01*
X109065237Y-127861190D02*
X109065237Y-127361190D01*
X108874761Y-127361190D01*
X108827142Y-127385000D01*
X108803333Y-127408810D01*
X108779523Y-127456429D01*
X108779523Y-127527857D01*
X108803333Y-127575476D01*
X108827142Y-127599286D01*
X108874761Y-127623095D01*
X109065237Y-127623095D01*
X109755714Y-127275000D02*
X108684285Y-127275000D01*
X101957142Y-136608333D02*
X101719047Y-136608333D01*
X102004761Y-136751190D02*
X101838094Y-136251190D01*
X101671428Y-136751190D01*
X101290476Y-136251190D02*
X101385714Y-136251190D01*
X101433333Y-136275000D01*
X101457142Y-136298810D01*
X101504761Y-136370238D01*
X101528571Y-136465476D01*
X101528571Y-136655952D01*
X101504761Y-136703571D01*
X101480952Y-136727381D01*
X101433333Y-136751190D01*
X101338095Y-136751190D01*
X101290476Y-136727381D01*
X101266666Y-136703571D01*
X101242857Y-136655952D01*
X101242857Y-136536905D01*
X101266666Y-136489286D01*
X101290476Y-136465476D01*
X101338095Y-136441667D01*
X101433333Y-136441667D01*
X101480952Y-136465476D01*
X101504761Y-136489286D01*
X101528571Y-136536905D01*
X104497142Y-136608333D02*
X104259047Y-136608333D01*
X104544761Y-136751190D02*
X104378094Y-136251190D01*
X104211428Y-136751190D01*
X104092380Y-136251190D02*
X103759047Y-136251190D01*
X103973333Y-136751190D01*
X107406190Y-136751190D02*
X107572857Y-136513095D01*
X107691904Y-136751190D02*
X107691904Y-136251190D01*
X107501428Y-136251190D01*
X107453809Y-136275000D01*
X107430000Y-136298810D01*
X107406190Y-136346429D01*
X107406190Y-136417857D01*
X107430000Y-136465476D01*
X107453809Y-136489286D01*
X107501428Y-136513095D01*
X107691904Y-136513095D01*
X107191904Y-136489286D02*
X107025238Y-136489286D01*
X106953809Y-136751190D02*
X107191904Y-136751190D01*
X107191904Y-136251190D01*
X106953809Y-136251190D01*
X106763333Y-136727381D02*
X106691904Y-136751190D01*
X106572857Y-136751190D01*
X106525238Y-136727381D01*
X106501428Y-136703571D01*
X106477619Y-136655952D01*
X106477619Y-136608333D01*
X106501428Y-136560714D01*
X106525238Y-136536905D01*
X106572857Y-136513095D01*
X106668095Y-136489286D01*
X106715714Y-136465476D01*
X106739523Y-136441667D01*
X106763333Y-136394048D01*
X106763333Y-136346429D01*
X106739523Y-136298810D01*
X106715714Y-136275000D01*
X106668095Y-136251190D01*
X106549047Y-136251190D01*
X106477619Y-136275000D01*
X106263333Y-136489286D02*
X106096667Y-136489286D01*
X106025238Y-136751190D02*
X106263333Y-136751190D01*
X106263333Y-136251190D01*
X106025238Y-136251190D01*
X105882381Y-136251190D02*
X105596667Y-136251190D01*
X105739524Y-136751190D02*
X105739524Y-136251190D01*
X107810952Y-136165000D02*
X105549048Y-136165000D01*
X110196191Y-136489286D02*
X110124762Y-136513095D01*
X110100953Y-136536905D01*
X110077143Y-136584524D01*
X110077143Y-136655952D01*
X110100953Y-136703571D01*
X110124762Y-136727381D01*
X110172381Y-136751190D01*
X110362857Y-136751190D01*
X110362857Y-136251190D01*
X110196191Y-136251190D01*
X110148572Y-136275000D01*
X110124762Y-136298810D01*
X110100953Y-136346429D01*
X110100953Y-136394048D01*
X110124762Y-136441667D01*
X110148572Y-136465476D01*
X110196191Y-136489286D01*
X110362857Y-136489286D01*
X109862857Y-136251190D02*
X109862857Y-136655952D01*
X109839048Y-136703571D01*
X109815238Y-136727381D01*
X109767619Y-136751190D01*
X109672381Y-136751190D01*
X109624762Y-136727381D01*
X109600953Y-136703571D01*
X109577143Y-136655952D01*
X109577143Y-136251190D01*
X109362857Y-136727381D02*
X109291428Y-136751190D01*
X109172381Y-136751190D01*
X109124762Y-136727381D01*
X109100952Y-136703571D01*
X109077143Y-136655952D01*
X109077143Y-136608333D01*
X109100952Y-136560714D01*
X109124762Y-136536905D01*
X109172381Y-136513095D01*
X109267619Y-136489286D01*
X109315238Y-136465476D01*
X109339047Y-136441667D01*
X109362857Y-136394048D01*
X109362857Y-136346429D01*
X109339047Y-136298810D01*
X109315238Y-136275000D01*
X109267619Y-136251190D01*
X109148571Y-136251190D01*
X109077143Y-136275000D01*
X108577143Y-136751190D02*
X108743810Y-136513095D01*
X108862857Y-136751190D02*
X108862857Y-136251190D01*
X108672381Y-136251190D01*
X108624762Y-136275000D01*
X108600953Y-136298810D01*
X108577143Y-136346429D01*
X108577143Y-136417857D01*
X108600953Y-136465476D01*
X108624762Y-136489286D01*
X108672381Y-136513095D01*
X108862857Y-136513095D01*
X108029524Y-136798810D02*
X108077143Y-136775000D01*
X108124762Y-136727381D01*
X108196191Y-136655952D01*
X108243810Y-136632143D01*
X108291429Y-136632143D01*
X108267619Y-136751190D02*
X108315238Y-136727381D01*
X108362857Y-136679762D01*
X108386667Y-136584524D01*
X108386667Y-136417857D01*
X108362857Y-136322619D01*
X108315238Y-136275000D01*
X108267619Y-136251190D01*
X108172381Y-136251190D01*
X108124762Y-136275000D01*
X108077143Y-136322619D01*
X108053334Y-136417857D01*
X108053334Y-136584524D01*
X108077143Y-136679762D01*
X108124762Y-136727381D01*
X108172381Y-136751190D01*
X108267619Y-136751190D01*
X110481905Y-136165000D02*
X107958095Y-136165000D01*
X111855238Y-127861190D02*
X112021905Y-127623095D01*
X112140952Y-127861190D02*
X112140952Y-127361190D01*
X111950476Y-127361190D01*
X111902857Y-127385000D01*
X111879048Y-127408810D01*
X111855238Y-127456429D01*
X111855238Y-127527857D01*
X111879048Y-127575476D01*
X111902857Y-127599286D01*
X111950476Y-127623095D01*
X112140952Y-127623095D01*
X111640952Y-127861190D02*
X111640952Y-127361190D01*
X111521905Y-127361190D01*
X111450476Y-127385000D01*
X111402857Y-127432619D01*
X111379048Y-127480238D01*
X111355238Y-127575476D01*
X111355238Y-127646905D01*
X111379048Y-127742143D01*
X111402857Y-127789762D01*
X111450476Y-127837381D01*
X111521905Y-127861190D01*
X111640952Y-127861190D01*
X112260000Y-127275000D02*
X111260000Y-127275000D01*
X115073809Y-127861190D02*
X115073809Y-127361190D01*
X114740476Y-127361190D02*
X114645238Y-127361190D01*
X114597619Y-127385000D01*
X114550000Y-127432619D01*
X114526191Y-127527857D01*
X114526191Y-127694524D01*
X114550000Y-127789762D01*
X114597619Y-127837381D01*
X114645238Y-127861190D01*
X114740476Y-127861190D01*
X114788095Y-127837381D01*
X114835714Y-127789762D01*
X114859524Y-127694524D01*
X114859524Y-127527857D01*
X114835714Y-127432619D01*
X114788095Y-127385000D01*
X114740476Y-127361190D01*
X114026190Y-127861190D02*
X114192857Y-127623095D01*
X114311904Y-127861190D02*
X114311904Y-127361190D01*
X114121428Y-127361190D01*
X114073809Y-127385000D01*
X114050000Y-127408810D01*
X114026190Y-127456429D01*
X114026190Y-127527857D01*
X114050000Y-127575476D01*
X114073809Y-127599286D01*
X114121428Y-127623095D01*
X114311904Y-127623095D01*
X113478571Y-127908810D02*
X113526190Y-127885000D01*
X113573809Y-127837381D01*
X113645238Y-127765952D01*
X113692857Y-127742143D01*
X113740476Y-127742143D01*
X113716666Y-127861190D02*
X113764285Y-127837381D01*
X113811904Y-127789762D01*
X113835714Y-127694524D01*
X113835714Y-127527857D01*
X113811904Y-127432619D01*
X113764285Y-127385000D01*
X113716666Y-127361190D01*
X113621428Y-127361190D01*
X113573809Y-127385000D01*
X113526190Y-127432619D01*
X113502381Y-127527857D01*
X113502381Y-127694524D01*
X113526190Y-127789762D01*
X113573809Y-127837381D01*
X113621428Y-127861190D01*
X113716666Y-127861190D01*
X115192857Y-127275000D02*
X113407142Y-127275000D01*
X117744762Y-127861190D02*
X117744762Y-127361190D01*
X117578096Y-127718333D01*
X117411429Y-127361190D01*
X117411429Y-127861190D01*
X116887619Y-127861190D02*
X117054286Y-127623095D01*
X117173333Y-127861190D02*
X117173333Y-127361190D01*
X116982857Y-127361190D01*
X116935238Y-127385000D01*
X116911429Y-127408810D01*
X116887619Y-127456429D01*
X116887619Y-127527857D01*
X116911429Y-127575476D01*
X116935238Y-127599286D01*
X116982857Y-127623095D01*
X117173333Y-127623095D01*
X116673333Y-127599286D02*
X116506667Y-127599286D01*
X116435238Y-127861190D02*
X116673333Y-127861190D01*
X116673333Y-127361190D01*
X116435238Y-127361190D01*
X115887619Y-127908810D02*
X115935238Y-127885000D01*
X115982857Y-127837381D01*
X116054286Y-127765952D01*
X116101905Y-127742143D01*
X116149524Y-127742143D01*
X116125714Y-127861190D02*
X116173333Y-127837381D01*
X116220952Y-127789762D01*
X116244762Y-127694524D01*
X116244762Y-127527857D01*
X116220952Y-127432619D01*
X116173333Y-127385000D01*
X116125714Y-127361190D01*
X116030476Y-127361190D01*
X115982857Y-127385000D01*
X115935238Y-127432619D01*
X115911429Y-127527857D01*
X115911429Y-127694524D01*
X115935238Y-127789762D01*
X115982857Y-127837381D01*
X116030476Y-127861190D01*
X116125714Y-127861190D01*
X117863810Y-127275000D02*
X115816190Y-127275000D01*
X120129999Y-127861190D02*
X120129999Y-127361190D01*
X120129999Y-127599286D02*
X119844285Y-127599286D01*
X119844285Y-127861190D02*
X119844285Y-127361190D01*
X119629999Y-127718333D02*
X119391904Y-127718333D01*
X119677618Y-127861190D02*
X119510951Y-127361190D01*
X119344285Y-127861190D01*
X118939523Y-127861190D02*
X119177618Y-127861190D01*
X119177618Y-127361190D01*
X118844285Y-127361190D02*
X118558571Y-127361190D01*
X118701428Y-127861190D02*
X118701428Y-127361190D01*
X120249047Y-127275000D02*
X118510952Y-127275000D01*
X111902857Y-136251190D02*
X111902857Y-136655952D01*
X111879048Y-136703571D01*
X111855238Y-136727381D01*
X111807619Y-136751190D01*
X111712381Y-136751190D01*
X111664762Y-136727381D01*
X111640953Y-136703571D01*
X111617143Y-136655952D01*
X111617143Y-136251190D01*
X114466666Y-136251190D02*
X114299999Y-136751190D01*
X114133333Y-136251190D01*
X116839999Y-136513095D02*
X116839999Y-136751190D01*
X117006666Y-136251190D02*
X116839999Y-136513095D01*
X116673333Y-136251190D01*
X120403809Y-136251190D02*
X120237142Y-136751190D01*
X120070476Y-136251190D01*
X119903809Y-136751190D02*
X119903809Y-136251190D01*
X119665714Y-136751190D02*
X119665714Y-136251190D01*
X119546667Y-136251190D01*
X119475238Y-136275000D01*
X119427619Y-136322619D01*
X119403810Y-136370238D01*
X119380000Y-136465476D01*
X119380000Y-136536905D01*
X119403810Y-136632143D01*
X119427619Y-136679762D01*
X119475238Y-136727381D01*
X119546667Y-136751190D01*
X119665714Y-136751190D01*
X119165714Y-136489286D02*
X118999048Y-136489286D01*
X118927619Y-136751190D02*
X119165714Y-136751190D01*
X119165714Y-136251190D01*
X118927619Y-136251190D01*
X118618095Y-136251190D02*
X118522857Y-136251190D01*
X118475238Y-136275000D01*
X118427619Y-136322619D01*
X118403810Y-136417857D01*
X118403810Y-136584524D01*
X118427619Y-136679762D01*
X118475238Y-136727381D01*
X118522857Y-136751190D01*
X118618095Y-136751190D01*
X118665714Y-136727381D01*
X118713333Y-136679762D01*
X118737143Y-136584524D01*
X118737143Y-136417857D01*
X118713333Y-136322619D01*
X118665714Y-136275000D01*
X118618095Y-136251190D01*
X122300953Y-136275000D02*
X122348572Y-136251190D01*
X122420000Y-136251190D01*
X122491429Y-136275000D01*
X122539048Y-136322619D01*
X122562857Y-136370238D01*
X122586667Y-136465476D01*
X122586667Y-136536905D01*
X122562857Y-136632143D01*
X122539048Y-136679762D01*
X122491429Y-136727381D01*
X122420000Y-136751190D01*
X122372381Y-136751190D01*
X122300953Y-136727381D01*
X122277143Y-136703571D01*
X122277143Y-136536905D01*
X122372381Y-136536905D01*
X122062857Y-136751190D02*
X122062857Y-136251190D01*
X121777143Y-136751190D01*
X121777143Y-136251190D01*
X121539047Y-136751190D02*
X121539047Y-136251190D01*
X121420000Y-136251190D01*
X121348571Y-136275000D01*
X121300952Y-136322619D01*
X121277143Y-136370238D01*
X121253333Y-136465476D01*
X121253333Y-136536905D01*
X121277143Y-136632143D01*
X121300952Y-136679762D01*
X121348571Y-136727381D01*
X121420000Y-136751190D01*
X121539047Y-136751190D01*
X125710000Y-136751190D02*
X125710000Y-136251190D01*
X125376667Y-136251190D02*
X125281429Y-136251190D01*
X125233810Y-136275000D01*
X125186191Y-136322619D01*
X125162382Y-136417857D01*
X125162382Y-136584524D01*
X125186191Y-136679762D01*
X125233810Y-136727381D01*
X125281429Y-136751190D01*
X125376667Y-136751190D01*
X125424286Y-136727381D01*
X125471905Y-136679762D01*
X125495715Y-136584524D01*
X125495715Y-136417857D01*
X125471905Y-136322619D01*
X125424286Y-136275000D01*
X125376667Y-136251190D01*
X124662381Y-136751190D02*
X124829048Y-136513095D01*
X124948095Y-136751190D02*
X124948095Y-136251190D01*
X124757619Y-136251190D01*
X124710000Y-136275000D01*
X124686191Y-136298810D01*
X124662381Y-136346429D01*
X124662381Y-136417857D01*
X124686191Y-136465476D01*
X124710000Y-136489286D01*
X124757619Y-136513095D01*
X124948095Y-136513095D01*
X124114762Y-136798810D02*
X124162381Y-136775000D01*
X124210000Y-136727381D01*
X124281429Y-136655952D01*
X124329048Y-136632143D01*
X124376667Y-136632143D01*
X124352857Y-136751190D02*
X124400476Y-136727381D01*
X124448095Y-136679762D01*
X124471905Y-136584524D01*
X124471905Y-136417857D01*
X124448095Y-136322619D01*
X124400476Y-136275000D01*
X124352857Y-136251190D01*
X124257619Y-136251190D01*
X124210000Y-136275000D01*
X124162381Y-136322619D01*
X124138572Y-136417857D01*
X124138572Y-136584524D01*
X124162381Y-136679762D01*
X124210000Y-136727381D01*
X124257619Y-136751190D01*
X124352857Y-136751190D01*
X123662381Y-136275000D02*
X123710000Y-136251190D01*
X123781428Y-136251190D01*
X123852857Y-136275000D01*
X123900476Y-136322619D01*
X123924285Y-136370238D01*
X123948095Y-136465476D01*
X123948095Y-136536905D01*
X123924285Y-136632143D01*
X123900476Y-136679762D01*
X123852857Y-136727381D01*
X123781428Y-136751190D01*
X123733809Y-136751190D01*
X123662381Y-136727381D01*
X123638571Y-136703571D01*
X123638571Y-136536905D01*
X123733809Y-136536905D01*
X123424285Y-136489286D02*
X123257619Y-136489286D01*
X123186190Y-136751190D02*
X123424285Y-136751190D01*
X123424285Y-136251190D01*
X123186190Y-136251190D01*
X125829048Y-136165000D02*
X123090952Y-136165000D01*
X127357142Y-136608333D02*
X127119047Y-136608333D01*
X127404761Y-136751190D02*
X127238094Y-136251190D01*
X127071428Y-136751190D01*
X126952380Y-136251190D02*
X126642857Y-136251190D01*
X126809523Y-136441667D01*
X126738095Y-136441667D01*
X126690476Y-136465476D01*
X126666666Y-136489286D01*
X126642857Y-136536905D01*
X126642857Y-136655952D01*
X126666666Y-136703571D01*
X126690476Y-136727381D01*
X126738095Y-136751190D01*
X126880952Y-136751190D01*
X126928571Y-136727381D01*
X126952380Y-136703571D01*
X122467619Y-127861190D02*
X122467619Y-127361190D01*
X122181905Y-127861190D01*
X122181905Y-127361190D01*
X121943809Y-127861190D02*
X121943809Y-127361190D01*
X121777143Y-127718333D01*
X121610476Y-127361190D01*
X121610476Y-127861190D01*
X121372380Y-127861190D02*
X121372380Y-127361190D01*
X122586667Y-127275000D02*
X121253333Y-127275000D01*
X124912380Y-127861190D02*
X124912380Y-127361190D01*
X124674285Y-127861190D02*
X124674285Y-127361190D01*
X124388571Y-127861190D01*
X124388571Y-127361190D01*
X124221904Y-127361190D02*
X123936190Y-127361190D01*
X124079047Y-127861190D02*
X124079047Y-127361190D01*
X125031428Y-127275000D02*
X123888571Y-127275000D01*
X127369047Y-127861190D02*
X127369047Y-127361190D01*
X127250000Y-127361190D01*
X127178571Y-127385000D01*
X127130952Y-127432619D01*
X127107143Y-127480238D01*
X127083333Y-127575476D01*
X127083333Y-127646905D01*
X127107143Y-127742143D01*
X127130952Y-127789762D01*
X127178571Y-127837381D01*
X127250000Y-127861190D01*
X127369047Y-127861190D01*
X126654762Y-127527857D02*
X126654762Y-127861190D01*
X126773809Y-127337381D02*
X126892857Y-127694524D01*
X126583333Y-127694524D01*
X129909047Y-127861190D02*
X129909047Y-127361190D01*
X129790000Y-127361190D01*
X129718571Y-127385000D01*
X129670952Y-127432619D01*
X129647143Y-127480238D01*
X129623333Y-127575476D01*
X129623333Y-127646905D01*
X129647143Y-127742143D01*
X129670952Y-127789762D01*
X129718571Y-127837381D01*
X129790000Y-127861190D01*
X129909047Y-127861190D01*
X129456666Y-127361190D02*
X129147143Y-127361190D01*
X129313809Y-127551667D01*
X129242381Y-127551667D01*
X129194762Y-127575476D01*
X129170952Y-127599286D01*
X129147143Y-127646905D01*
X129147143Y-127765952D01*
X129170952Y-127813571D01*
X129194762Y-127837381D01*
X129242381Y-127861190D01*
X129385238Y-127861190D01*
X129432857Y-127837381D01*
X129456666Y-127813571D01*
X129897142Y-136608333D02*
X129659047Y-136608333D01*
X129944761Y-136751190D02*
X129778094Y-136251190D01*
X129611428Y-136751190D01*
X129468571Y-136298810D02*
X129444761Y-136275000D01*
X129397142Y-136251190D01*
X129278095Y-136251190D01*
X129230476Y-136275000D01*
X129206666Y-136298810D01*
X129182857Y-136346429D01*
X129182857Y-136394048D01*
X129206666Y-136465476D01*
X129492380Y-136751190D01*
X129182857Y-136751190D01*
X132449047Y-127861190D02*
X132449047Y-127361190D01*
X132330000Y-127361190D01*
X132258571Y-127385000D01*
X132210952Y-127432619D01*
X132187143Y-127480238D01*
X132163333Y-127575476D01*
X132163333Y-127646905D01*
X132187143Y-127742143D01*
X132210952Y-127789762D01*
X132258571Y-127837381D01*
X132330000Y-127861190D01*
X132449047Y-127861190D01*
X131710952Y-127361190D02*
X131949047Y-127361190D01*
X131972857Y-127599286D01*
X131949047Y-127575476D01*
X131901428Y-127551667D01*
X131782381Y-127551667D01*
X131734762Y-127575476D01*
X131710952Y-127599286D01*
X131687143Y-127646905D01*
X131687143Y-127765952D01*
X131710952Y-127813571D01*
X131734762Y-127837381D01*
X131782381Y-127861190D01*
X131901428Y-127861190D01*
X131949047Y-127837381D01*
X131972857Y-127813571D01*
X134989047Y-127861190D02*
X134989047Y-127361190D01*
X134870000Y-127361190D01*
X134798571Y-127385000D01*
X134750952Y-127432619D01*
X134727143Y-127480238D01*
X134703333Y-127575476D01*
X134703333Y-127646905D01*
X134727143Y-127742143D01*
X134750952Y-127789762D01*
X134798571Y-127837381D01*
X134870000Y-127861190D01*
X134989047Y-127861190D01*
X134274762Y-127361190D02*
X134370000Y-127361190D01*
X134417619Y-127385000D01*
X134441428Y-127408810D01*
X134489047Y-127480238D01*
X134512857Y-127575476D01*
X134512857Y-127765952D01*
X134489047Y-127813571D01*
X134465238Y-127837381D01*
X134417619Y-127861190D01*
X134322381Y-127861190D01*
X134274762Y-127837381D01*
X134250952Y-127813571D01*
X134227143Y-127765952D01*
X134227143Y-127646905D01*
X134250952Y-127599286D01*
X134274762Y-127575476D01*
X134322381Y-127551667D01*
X134417619Y-127551667D01*
X134465238Y-127575476D01*
X134489047Y-127599286D01*
X134512857Y-127646905D01*
X137529047Y-127861190D02*
X137529047Y-127361190D01*
X137410000Y-127361190D01*
X137338571Y-127385000D01*
X137290952Y-127432619D01*
X137267143Y-127480238D01*
X137243333Y-127575476D01*
X137243333Y-127646905D01*
X137267143Y-127742143D01*
X137290952Y-127789762D01*
X137338571Y-127837381D01*
X137410000Y-127861190D01*
X137529047Y-127861190D01*
X137052857Y-127408810D02*
X137029047Y-127385000D01*
X136981428Y-127361190D01*
X136862381Y-127361190D01*
X136814762Y-127385000D01*
X136790952Y-127408810D01*
X136767143Y-127456429D01*
X136767143Y-127504048D01*
X136790952Y-127575476D01*
X137076666Y-127861190D01*
X136767143Y-127861190D01*
X132437142Y-136608333D02*
X132199047Y-136608333D01*
X132484761Y-136751190D02*
X132318094Y-136251190D01*
X132151428Y-136751190D01*
X131722857Y-136751190D02*
X132008571Y-136751190D01*
X131865714Y-136751190D02*
X131865714Y-136251190D01*
X131913333Y-136322619D01*
X131960952Y-136370238D01*
X132008571Y-136394048D01*
X134977142Y-136608333D02*
X134739047Y-136608333D01*
X135024761Y-136751190D02*
X134858094Y-136251190D01*
X134691428Y-136751190D01*
X134429523Y-136251190D02*
X134381904Y-136251190D01*
X134334285Y-136275000D01*
X134310476Y-136298810D01*
X134286666Y-136346429D01*
X134262857Y-136441667D01*
X134262857Y-136560714D01*
X134286666Y-136655952D01*
X134310476Y-136703571D01*
X134334285Y-136727381D01*
X134381904Y-136751190D01*
X134429523Y-136751190D01*
X134477142Y-136727381D01*
X134500952Y-136703571D01*
X134524761Y-136655952D01*
X134548571Y-136560714D01*
X134548571Y-136441667D01*
X134524761Y-136346429D01*
X134500952Y-136298810D01*
X134477142Y-136275000D01*
X134429523Y-136251190D01*
X137457619Y-136703571D02*
X137481429Y-136727381D01*
X137552857Y-136751190D01*
X137600476Y-136751190D01*
X137671905Y-136727381D01*
X137719524Y-136679762D01*
X137743333Y-136632143D01*
X137767143Y-136536905D01*
X137767143Y-136465476D01*
X137743333Y-136370238D01*
X137719524Y-136322619D01*
X137671905Y-136275000D01*
X137600476Y-136251190D01*
X137552857Y-136251190D01*
X137481429Y-136275000D01*
X137457619Y-136298810D01*
X137005238Y-136751190D02*
X137243333Y-136751190D01*
X137243333Y-136251190D01*
X136838571Y-136751190D02*
X136838571Y-136251190D01*
X136552857Y-136751190D02*
X136767143Y-136465476D01*
X136552857Y-136251190D02*
X136838571Y-136536905D01*
X140080953Y-136275000D02*
X140128572Y-136251190D01*
X140200000Y-136251190D01*
X140271429Y-136275000D01*
X140319048Y-136322619D01*
X140342857Y-136370238D01*
X140366667Y-136465476D01*
X140366667Y-136536905D01*
X140342857Y-136632143D01*
X140319048Y-136679762D01*
X140271429Y-136727381D01*
X140200000Y-136751190D01*
X140152381Y-136751190D01*
X140080953Y-136727381D01*
X140057143Y-136703571D01*
X140057143Y-136536905D01*
X140152381Y-136536905D01*
X139842857Y-136751190D02*
X139842857Y-136251190D01*
X139557143Y-136751190D01*
X139557143Y-136251190D01*
X139319047Y-136751190D02*
X139319047Y-136251190D01*
X139200000Y-136251190D01*
X139128571Y-136275000D01*
X139080952Y-136322619D01*
X139057143Y-136370238D01*
X139033333Y-136465476D01*
X139033333Y-136536905D01*
X139057143Y-136632143D01*
X139080952Y-136679762D01*
X139128571Y-136727381D01*
X139200000Y-136751190D01*
X139319047Y-136751190D01*
X142620953Y-136275000D02*
X142668572Y-136251190D01*
X142740000Y-136251190D01*
X142811429Y-136275000D01*
X142859048Y-136322619D01*
X142882857Y-136370238D01*
X142906667Y-136465476D01*
X142906667Y-136536905D01*
X142882857Y-136632143D01*
X142859048Y-136679762D01*
X142811429Y-136727381D01*
X142740000Y-136751190D01*
X142692381Y-136751190D01*
X142620953Y-136727381D01*
X142597143Y-136703571D01*
X142597143Y-136536905D01*
X142692381Y-136536905D01*
X142382857Y-136751190D02*
X142382857Y-136251190D01*
X142097143Y-136751190D01*
X142097143Y-136251190D01*
X141859047Y-136751190D02*
X141859047Y-136251190D01*
X141740000Y-136251190D01*
X141668571Y-136275000D01*
X141620952Y-136322619D01*
X141597143Y-136370238D01*
X141573333Y-136465476D01*
X141573333Y-136536905D01*
X141597143Y-136632143D01*
X141620952Y-136679762D01*
X141668571Y-136727381D01*
X141740000Y-136751190D01*
X141859047Y-136751190D01*
X147939047Y-136560714D02*
X147558095Y-136560714D01*
X147748571Y-136751190D02*
X147748571Y-136370238D01*
X147296190Y-136751190D02*
X147200952Y-136751190D01*
X147153333Y-136727381D01*
X147129523Y-136703571D01*
X147081904Y-136632143D01*
X147058095Y-136536905D01*
X147058095Y-136346429D01*
X147081904Y-136298810D01*
X147105714Y-136275000D01*
X147153333Y-136251190D01*
X147248571Y-136251190D01*
X147296190Y-136275000D01*
X147319999Y-136298810D01*
X147343809Y-136346429D01*
X147343809Y-136465476D01*
X147319999Y-136513095D01*
X147296190Y-136536905D01*
X147248571Y-136560714D01*
X147153333Y-136560714D01*
X147105714Y-136536905D01*
X147081904Y-136513095D01*
X147058095Y-136465476D01*
X146891428Y-136417857D02*
X146772381Y-136751190D01*
X146653333Y-136417857D01*
X150479047Y-136560714D02*
X150098095Y-136560714D01*
X150288571Y-136751190D02*
X150288571Y-136370238D01*
X149621904Y-136251190D02*
X149859999Y-136251190D01*
X149883809Y-136489286D01*
X149859999Y-136465476D01*
X149812380Y-136441667D01*
X149693333Y-136441667D01*
X149645714Y-136465476D01*
X149621904Y-136489286D01*
X149598095Y-136536905D01*
X149598095Y-136655952D01*
X149621904Y-136703571D01*
X149645714Y-136727381D01*
X149693333Y-136751190D01*
X149812380Y-136751190D01*
X149859999Y-136727381D01*
X149883809Y-136703571D01*
X149431428Y-136417857D02*
X149312381Y-136751190D01*
X149193333Y-136417857D01*
X152995237Y-136608333D02*
X152757142Y-136608333D01*
X153042856Y-136751190D02*
X152876189Y-136251190D01*
X152709523Y-136751190D01*
X152280952Y-136751190D02*
X152566666Y-136751190D01*
X152423809Y-136751190D02*
X152423809Y-136251190D01*
X152471428Y-136322619D01*
X152519047Y-136370238D01*
X152566666Y-136394048D01*
X152090476Y-136298810D02*
X152066666Y-136275000D01*
X152019047Y-136251190D01*
X151900000Y-136251190D01*
X151852381Y-136275000D01*
X151828571Y-136298810D01*
X151804762Y-136346429D01*
X151804762Y-136394048D01*
X151828571Y-136465476D01*
X152114285Y-136751190D01*
X151804762Y-136751190D01*
X155535237Y-136608333D02*
X155297142Y-136608333D01*
X155582856Y-136751190D02*
X155416189Y-136251190D01*
X155249523Y-136751190D01*
X154820952Y-136751190D02*
X155106666Y-136751190D01*
X154963809Y-136751190D02*
X154963809Y-136251190D01*
X155011428Y-136322619D01*
X155059047Y-136370238D01*
X155106666Y-136394048D01*
X154392381Y-136417857D02*
X154392381Y-136751190D01*
X154511428Y-136227381D02*
X154630476Y-136584524D01*
X154320952Y-136584524D01*
X140069047Y-127861190D02*
X140069047Y-127361190D01*
X139950000Y-127361190D01*
X139878571Y-127385000D01*
X139830952Y-127432619D01*
X139807143Y-127480238D01*
X139783333Y-127575476D01*
X139783333Y-127646905D01*
X139807143Y-127742143D01*
X139830952Y-127789762D01*
X139878571Y-127837381D01*
X139950000Y-127861190D01*
X140069047Y-127861190D01*
X139307143Y-127861190D02*
X139592857Y-127861190D01*
X139450000Y-127861190D02*
X139450000Y-127361190D01*
X139497619Y-127432619D01*
X139545238Y-127480238D01*
X139592857Y-127504048D01*
X142609047Y-127861190D02*
X142609047Y-127361190D01*
X142490000Y-127361190D01*
X142418571Y-127385000D01*
X142370952Y-127432619D01*
X142347143Y-127480238D01*
X142323333Y-127575476D01*
X142323333Y-127646905D01*
X142347143Y-127742143D01*
X142370952Y-127789762D01*
X142418571Y-127837381D01*
X142490000Y-127861190D01*
X142609047Y-127861190D01*
X142013809Y-127361190D02*
X141966190Y-127361190D01*
X141918571Y-127385000D01*
X141894762Y-127408810D01*
X141870952Y-127456429D01*
X141847143Y-127551667D01*
X141847143Y-127670714D01*
X141870952Y-127765952D01*
X141894762Y-127813571D01*
X141918571Y-127837381D01*
X141966190Y-127861190D01*
X142013809Y-127861190D01*
X142061428Y-127837381D01*
X142085238Y-127813571D01*
X142109047Y-127765952D01*
X142132857Y-127670714D01*
X142132857Y-127551667D01*
X142109047Y-127456429D01*
X142085238Y-127408810D01*
X142061428Y-127385000D01*
X142013809Y-127361190D01*
X147974762Y-127861190D02*
X147974762Y-127361190D01*
X147689048Y-127861190D01*
X147689048Y-127361190D01*
X147093810Y-127337381D02*
X147522381Y-127980238D01*
X146641428Y-127813571D02*
X146665238Y-127837381D01*
X146736666Y-127861190D01*
X146784285Y-127861190D01*
X146855714Y-127837381D01*
X146903333Y-127789762D01*
X146927142Y-127742143D01*
X146950952Y-127646905D01*
X146950952Y-127575476D01*
X146927142Y-127480238D01*
X146903333Y-127432619D01*
X146855714Y-127385000D01*
X146784285Y-127361190D01*
X146736666Y-127361190D01*
X146665238Y-127385000D01*
X146641428Y-127408810D01*
X150229047Y-127861190D02*
X150229047Y-127361190D01*
X150110000Y-127361190D01*
X150038571Y-127385000D01*
X149990952Y-127432619D01*
X149967143Y-127480238D01*
X149943333Y-127575476D01*
X149943333Y-127646905D01*
X149967143Y-127742143D01*
X149990952Y-127789762D01*
X150038571Y-127837381D01*
X150110000Y-127861190D01*
X150229047Y-127861190D01*
X149776666Y-127361190D02*
X149443333Y-127361190D01*
X149657619Y-127861190D01*
X152995237Y-127718333D02*
X152757142Y-127718333D01*
X153042856Y-127861190D02*
X152876189Y-127361190D01*
X152709523Y-127861190D01*
X152280952Y-127861190D02*
X152566666Y-127861190D01*
X152423809Y-127861190D02*
X152423809Y-127361190D01*
X152471428Y-127432619D01*
X152519047Y-127480238D01*
X152566666Y-127504048D01*
X152114285Y-127361190D02*
X151804762Y-127361190D01*
X151971428Y-127551667D01*
X151900000Y-127551667D01*
X151852381Y-127575476D01*
X151828571Y-127599286D01*
X151804762Y-127646905D01*
X151804762Y-127765952D01*
X151828571Y-127813571D01*
X151852381Y-127837381D01*
X151900000Y-127861190D01*
X152042857Y-127861190D01*
X152090476Y-127837381D01*
X152114285Y-127813571D01*
X155535237Y-127718333D02*
X155297142Y-127718333D01*
X155582856Y-127861190D02*
X155416189Y-127361190D01*
X155249523Y-127861190D01*
X154820952Y-127861190D02*
X155106666Y-127861190D01*
X154963809Y-127861190D02*
X154963809Y-127361190D01*
X155011428Y-127432619D01*
X155059047Y-127480238D01*
X155106666Y-127504048D01*
X154368571Y-127361190D02*
X154606666Y-127361190D01*
X154630476Y-127599286D01*
X154606666Y-127575476D01*
X154559047Y-127551667D01*
X154440000Y-127551667D01*
X154392381Y-127575476D01*
X154368571Y-127599286D01*
X154344762Y-127646905D01*
X154344762Y-127765952D01*
X154368571Y-127813571D01*
X154392381Y-127837381D01*
X154440000Y-127861190D01*
X154559047Y-127861190D01*
X154606666Y-127837381D01*
X154630476Y-127813571D01*
M02*
