G04 #@! TF.FileFunction,Legend,Top*
%FSLAX46Y46*%
G04 Gerber Fmt 4.6, Leading zero omitted, Abs format (unit mm)*
G04 Created by KiCad (PCBNEW 4.0.5) date 09/11/17 10:35:41*
%MOMM*%
%LPD*%
G01*
G04 APERTURE LIST*
%ADD10C,0.100000*%
%ADD11C,0.150000*%
%ADD12C,0.300000*%
%ADD13C,0.200000*%
%ADD14C,0.250000*%
%ADD15C,0.120000*%
%ADD16C,0.203200*%
%ADD17C,0.010000*%
%ADD18C,0.125000*%
G04 APERTURE END LIST*
D10*
D11*
X147427905Y-108521238D02*
X146627905Y-108521238D01*
X147008857Y-108521238D02*
X147008857Y-108064095D01*
X147427905Y-108064095D02*
X146627905Y-108064095D01*
X147046952Y-107530762D02*
X147427905Y-107530762D01*
X146627905Y-107797429D02*
X147046952Y-107530762D01*
X146627905Y-107264095D01*
X146627905Y-106654572D02*
X146627905Y-106806953D01*
X146666000Y-106883143D01*
X146704095Y-106921238D01*
X146818381Y-106997429D01*
X146970762Y-107035524D01*
X147275524Y-107035524D01*
X147351714Y-106997429D01*
X147389810Y-106959334D01*
X147427905Y-106883143D01*
X147427905Y-106730762D01*
X147389810Y-106654572D01*
X147351714Y-106616476D01*
X147275524Y-106578381D01*
X147085048Y-106578381D01*
X147008857Y-106616476D01*
X146970762Y-106654572D01*
X146932667Y-106730762D01*
X146932667Y-106883143D01*
X146970762Y-106959334D01*
X147008857Y-106997429D01*
X147085048Y-107035524D01*
X146704095Y-106273619D02*
X146666000Y-106235524D01*
X146627905Y-106159333D01*
X146627905Y-105968857D01*
X146666000Y-105892667D01*
X146704095Y-105854571D01*
X146780286Y-105816476D01*
X146856476Y-105816476D01*
X146970762Y-105854571D01*
X147427905Y-106311714D01*
X147427905Y-105816476D01*
X146627905Y-105130762D02*
X146627905Y-105283143D01*
X146666000Y-105359333D01*
X146704095Y-105397428D01*
X146818381Y-105473619D01*
X146970762Y-105511714D01*
X147275524Y-105511714D01*
X147351714Y-105473619D01*
X147389810Y-105435524D01*
X147427905Y-105359333D01*
X147427905Y-105206952D01*
X147389810Y-105130762D01*
X147351714Y-105092666D01*
X147275524Y-105054571D01*
X147085048Y-105054571D01*
X147008857Y-105092666D01*
X146970762Y-105130762D01*
X146932667Y-105206952D01*
X146932667Y-105359333D01*
X146970762Y-105435524D01*
X147008857Y-105473619D01*
X147085048Y-105511714D01*
X146894571Y-104368857D02*
X147427905Y-104368857D01*
X146589810Y-104559333D02*
X147161238Y-104749809D01*
X147161238Y-104254571D01*
D12*
X134829714Y-69376857D02*
X134829714Y-68176857D01*
X135515429Y-69376857D01*
X135515429Y-68176857D01*
X136086857Y-69376857D02*
X136086857Y-68176857D01*
X136486857Y-69034000D01*
X136886857Y-68176857D01*
X136886857Y-69376857D01*
X137458286Y-69376857D02*
X137458286Y-68176857D01*
D13*
X100655475Y-70846905D02*
X100388808Y-70465952D01*
X100198332Y-70846905D02*
X100198332Y-70046905D01*
X100503094Y-70046905D01*
X100579285Y-70085000D01*
X100617380Y-70123095D01*
X100655475Y-70199286D01*
X100655475Y-70313571D01*
X100617380Y-70389762D01*
X100579285Y-70427857D01*
X100503094Y-70465952D01*
X100198332Y-70465952D01*
X101303094Y-70808810D02*
X101226904Y-70846905D01*
X101074523Y-70846905D01*
X100998332Y-70808810D01*
X100960237Y-70732619D01*
X100960237Y-70427857D01*
X100998332Y-70351667D01*
X101074523Y-70313571D01*
X101226904Y-70313571D01*
X101303094Y-70351667D01*
X101341189Y-70427857D01*
X101341189Y-70504048D01*
X100960237Y-70580238D01*
X101607856Y-70313571D02*
X101798332Y-70846905D01*
X101988808Y-70313571D01*
X102598332Y-70808810D02*
X102522142Y-70846905D01*
X102369761Y-70846905D01*
X102293570Y-70808810D01*
X102255475Y-70732619D01*
X102255475Y-70427857D01*
X102293570Y-70351667D01*
X102369761Y-70313571D01*
X102522142Y-70313571D01*
X102598332Y-70351667D01*
X102636427Y-70427857D01*
X102636427Y-70504048D01*
X102255475Y-70580238D01*
X102979284Y-70846905D02*
X102979284Y-70313571D01*
X102979284Y-70465952D02*
X103017379Y-70389762D01*
X103055475Y-70351667D01*
X103131665Y-70313571D01*
X103207856Y-70313571D01*
X103436427Y-70808810D02*
X103512617Y-70846905D01*
X103664998Y-70846905D01*
X103741189Y-70808810D01*
X103779284Y-70732619D01*
X103779284Y-70694524D01*
X103741189Y-70618333D01*
X103664998Y-70580238D01*
X103550713Y-70580238D01*
X103474522Y-70542143D01*
X103436427Y-70465952D01*
X103436427Y-70427857D01*
X103474522Y-70351667D01*
X103550713Y-70313571D01*
X103664998Y-70313571D01*
X103741189Y-70351667D01*
X104426903Y-70808810D02*
X104350713Y-70846905D01*
X104198332Y-70846905D01*
X104122141Y-70808810D01*
X104084046Y-70732619D01*
X104084046Y-70427857D01*
X104122141Y-70351667D01*
X104198332Y-70313571D01*
X104350713Y-70313571D01*
X104426903Y-70351667D01*
X104464998Y-70427857D01*
X104464998Y-70504048D01*
X104084046Y-70580238D01*
X105417379Y-70427857D02*
X105684046Y-70427857D01*
X105798332Y-70846905D02*
X105417379Y-70846905D01*
X105417379Y-70046905D01*
X105798332Y-70046905D01*
X106141189Y-70313571D02*
X106141189Y-70846905D01*
X106141189Y-70389762D02*
X106179284Y-70351667D01*
X106255475Y-70313571D01*
X106369761Y-70313571D01*
X106445951Y-70351667D01*
X106484046Y-70427857D01*
X106484046Y-70846905D01*
X107207856Y-70313571D02*
X107207856Y-70961190D01*
X107169761Y-71037381D01*
X107131666Y-71075476D01*
X107055475Y-71113571D01*
X106941190Y-71113571D01*
X106864999Y-71075476D01*
X107207856Y-70808810D02*
X107131666Y-70846905D01*
X106979285Y-70846905D01*
X106903094Y-70808810D01*
X106864999Y-70770714D01*
X106826904Y-70694524D01*
X106826904Y-70465952D01*
X106864999Y-70389762D01*
X106903094Y-70351667D01*
X106979285Y-70313571D01*
X107131666Y-70313571D01*
X107207856Y-70351667D01*
X107588809Y-70846905D02*
X107588809Y-70313571D01*
X107588809Y-70046905D02*
X107550714Y-70085000D01*
X107588809Y-70123095D01*
X107626904Y-70085000D01*
X107588809Y-70046905D01*
X107588809Y-70123095D01*
X107969761Y-70313571D02*
X107969761Y-70846905D01*
X107969761Y-70389762D02*
X108007856Y-70351667D01*
X108084047Y-70313571D01*
X108198333Y-70313571D01*
X108274523Y-70351667D01*
X108312618Y-70427857D01*
X108312618Y-70846905D01*
X108998333Y-70808810D02*
X108922143Y-70846905D01*
X108769762Y-70846905D01*
X108693571Y-70808810D01*
X108655476Y-70732619D01*
X108655476Y-70427857D01*
X108693571Y-70351667D01*
X108769762Y-70313571D01*
X108922143Y-70313571D01*
X108998333Y-70351667D01*
X109036428Y-70427857D01*
X109036428Y-70504048D01*
X108655476Y-70580238D01*
X109684047Y-70808810D02*
X109607857Y-70846905D01*
X109455476Y-70846905D01*
X109379285Y-70808810D01*
X109341190Y-70732619D01*
X109341190Y-70427857D01*
X109379285Y-70351667D01*
X109455476Y-70313571D01*
X109607857Y-70313571D01*
X109684047Y-70351667D01*
X109722142Y-70427857D01*
X109722142Y-70504048D01*
X109341190Y-70580238D01*
X110064999Y-70846905D02*
X110064999Y-70313571D01*
X110064999Y-70465952D02*
X110103094Y-70389762D01*
X110141190Y-70351667D01*
X110217380Y-70313571D01*
X110293571Y-70313571D01*
X110864999Y-70808810D02*
X110788809Y-70846905D01*
X110636428Y-70846905D01*
X110560237Y-70808810D01*
X110522142Y-70732619D01*
X110522142Y-70427857D01*
X110560237Y-70351667D01*
X110636428Y-70313571D01*
X110788809Y-70313571D01*
X110864999Y-70351667D01*
X110903094Y-70427857D01*
X110903094Y-70504048D01*
X110522142Y-70580238D01*
X111588808Y-70846905D02*
X111588808Y-70046905D01*
X111588808Y-70808810D02*
X111512618Y-70846905D01*
X111360237Y-70846905D01*
X111284046Y-70808810D01*
X111245951Y-70770714D01*
X111207856Y-70694524D01*
X111207856Y-70465952D01*
X111245951Y-70389762D01*
X111284046Y-70351667D01*
X111360237Y-70313571D01*
X111512618Y-70313571D01*
X111588808Y-70351667D01*
X112579285Y-70846905D02*
X112579285Y-70046905D01*
X112579285Y-70351667D02*
X112655476Y-70313571D01*
X112807857Y-70313571D01*
X112884047Y-70351667D01*
X112922142Y-70389762D01*
X112960238Y-70465952D01*
X112960238Y-70694524D01*
X112922142Y-70770714D01*
X112884047Y-70808810D01*
X112807857Y-70846905D01*
X112655476Y-70846905D01*
X112579285Y-70808810D01*
X113226905Y-70313571D02*
X113417381Y-70846905D01*
X113607857Y-70313571D02*
X113417381Y-70846905D01*
X113341190Y-71037381D01*
X113303095Y-71075476D01*
X113226905Y-71113571D01*
X114484048Y-70808810D02*
X114598334Y-70846905D01*
X114788810Y-70846905D01*
X114865000Y-70808810D01*
X114903096Y-70770714D01*
X114941191Y-70694524D01*
X114941191Y-70618333D01*
X114903096Y-70542143D01*
X114865000Y-70504048D01*
X114788810Y-70465952D01*
X114636429Y-70427857D01*
X114560238Y-70389762D01*
X114522143Y-70351667D01*
X114484048Y-70275476D01*
X114484048Y-70199286D01*
X114522143Y-70123095D01*
X114560238Y-70085000D01*
X114636429Y-70046905D01*
X114826905Y-70046905D01*
X114941191Y-70085000D01*
X115169762Y-70313571D02*
X115474524Y-70313571D01*
X115284048Y-70046905D02*
X115284048Y-70732619D01*
X115322143Y-70808810D01*
X115398334Y-70846905D01*
X115474524Y-70846905D01*
X116045953Y-70808810D02*
X115969763Y-70846905D01*
X115817382Y-70846905D01*
X115741191Y-70808810D01*
X115703096Y-70732619D01*
X115703096Y-70427857D01*
X115741191Y-70351667D01*
X115817382Y-70313571D01*
X115969763Y-70313571D01*
X116045953Y-70351667D01*
X116084048Y-70427857D01*
X116084048Y-70504048D01*
X115703096Y-70580238D01*
X116350715Y-70313571D02*
X116541191Y-70846905D01*
X116731667Y-70313571D01*
X117341191Y-70808810D02*
X117265001Y-70846905D01*
X117112620Y-70846905D01*
X117036429Y-70808810D01*
X116998334Y-70732619D01*
X116998334Y-70427857D01*
X117036429Y-70351667D01*
X117112620Y-70313571D01*
X117265001Y-70313571D01*
X117341191Y-70351667D01*
X117379286Y-70427857D01*
X117379286Y-70504048D01*
X116998334Y-70580238D01*
X118293572Y-70808810D02*
X118407858Y-70846905D01*
X118598334Y-70846905D01*
X118674524Y-70808810D01*
X118712620Y-70770714D01*
X118750715Y-70694524D01*
X118750715Y-70618333D01*
X118712620Y-70542143D01*
X118674524Y-70504048D01*
X118598334Y-70465952D01*
X118445953Y-70427857D01*
X118369762Y-70389762D01*
X118331667Y-70351667D01*
X118293572Y-70275476D01*
X118293572Y-70199286D01*
X118331667Y-70123095D01*
X118369762Y-70085000D01*
X118445953Y-70046905D01*
X118636429Y-70046905D01*
X118750715Y-70085000D01*
X119093572Y-70846905D02*
X119093572Y-70313571D01*
X119093572Y-70389762D02*
X119131667Y-70351667D01*
X119207858Y-70313571D01*
X119322144Y-70313571D01*
X119398334Y-70351667D01*
X119436429Y-70427857D01*
X119436429Y-70846905D01*
X119436429Y-70427857D02*
X119474525Y-70351667D01*
X119550715Y-70313571D01*
X119665001Y-70313571D01*
X119741191Y-70351667D01*
X119779286Y-70427857D01*
X119779286Y-70846905D01*
X120160239Y-70846905D02*
X120160239Y-70313571D01*
X120160239Y-70046905D02*
X120122144Y-70085000D01*
X120160239Y-70123095D01*
X120198334Y-70085000D01*
X120160239Y-70046905D01*
X120160239Y-70123095D01*
X120426905Y-70313571D02*
X120731667Y-70313571D01*
X120541191Y-70046905D02*
X120541191Y-70732619D01*
X120579286Y-70808810D01*
X120655477Y-70846905D01*
X120731667Y-70846905D01*
X120998334Y-70846905D02*
X120998334Y-70046905D01*
X121341191Y-70846905D02*
X121341191Y-70427857D01*
X121303096Y-70351667D01*
X121226906Y-70313571D01*
X121112620Y-70313571D01*
X121036429Y-70351667D01*
X120998334Y-70389762D01*
X122331668Y-70542143D02*
X122941192Y-70542143D01*
X124350716Y-70085000D02*
X124274525Y-70046905D01*
X124160240Y-70046905D01*
X124045954Y-70085000D01*
X123969763Y-70161190D01*
X123931668Y-70237381D01*
X123893573Y-70389762D01*
X123893573Y-70504048D01*
X123931668Y-70656429D01*
X123969763Y-70732619D01*
X124045954Y-70808810D01*
X124160240Y-70846905D01*
X124236430Y-70846905D01*
X124350716Y-70808810D01*
X124388811Y-70770714D01*
X124388811Y-70504048D01*
X124236430Y-70504048D01*
X124884049Y-70046905D02*
X124960240Y-70046905D01*
X125036430Y-70085000D01*
X125074525Y-70123095D01*
X125112621Y-70199286D01*
X125150716Y-70351667D01*
X125150716Y-70542143D01*
X125112621Y-70694524D01*
X125074525Y-70770714D01*
X125036430Y-70808810D01*
X124960240Y-70846905D01*
X124884049Y-70846905D01*
X124807859Y-70808810D01*
X124769763Y-70770714D01*
X124731668Y-70694524D01*
X124693573Y-70542143D01*
X124693573Y-70351667D01*
X124731668Y-70199286D01*
X124769763Y-70123095D01*
X124807859Y-70085000D01*
X124884049Y-70046905D01*
X125379287Y-70046905D02*
X125836430Y-70046905D01*
X125607859Y-70846905D02*
X125607859Y-70046905D01*
X126103097Y-70846905D02*
X126103097Y-70046905D01*
X126293573Y-70046905D01*
X126407859Y-70085000D01*
X126484050Y-70161190D01*
X126522145Y-70237381D01*
X126560240Y-70389762D01*
X126560240Y-70504048D01*
X126522145Y-70656429D01*
X126484050Y-70732619D01*
X126407859Y-70808810D01*
X126293573Y-70846905D01*
X126103097Y-70846905D01*
X127131669Y-70046905D02*
X127131669Y-70618333D01*
X127093573Y-70732619D01*
X127017383Y-70808810D01*
X126903097Y-70846905D01*
X126826907Y-70846905D01*
D14*
X102879285Y-69032381D02*
X102545951Y-68556190D01*
X102307856Y-69032381D02*
X102307856Y-68032381D01*
X102688809Y-68032381D01*
X102784047Y-68080000D01*
X102831666Y-68127619D01*
X102879285Y-68222857D01*
X102879285Y-68365714D01*
X102831666Y-68460952D01*
X102784047Y-68508571D01*
X102688809Y-68556190D01*
X102307856Y-68556190D01*
X103450713Y-69032381D02*
X103355475Y-68984762D01*
X103307856Y-68937143D01*
X103260237Y-68841905D01*
X103260237Y-68556190D01*
X103307856Y-68460952D01*
X103355475Y-68413333D01*
X103450713Y-68365714D01*
X103593571Y-68365714D01*
X103688809Y-68413333D01*
X103736428Y-68460952D01*
X103784047Y-68556190D01*
X103784047Y-68841905D01*
X103736428Y-68937143D01*
X103688809Y-68984762D01*
X103593571Y-69032381D01*
X103450713Y-69032381D01*
X104212618Y-69032381D02*
X104212618Y-68365714D01*
X104212618Y-68460952D02*
X104260237Y-68413333D01*
X104355475Y-68365714D01*
X104498333Y-68365714D01*
X104593571Y-68413333D01*
X104641190Y-68508571D01*
X104641190Y-69032381D01*
X104641190Y-68508571D02*
X104688809Y-68413333D01*
X104784047Y-68365714D01*
X104926904Y-68365714D01*
X105022142Y-68413333D01*
X105069761Y-68508571D01*
X105069761Y-69032381D01*
X105974523Y-69032381D02*
X105974523Y-68508571D01*
X105926904Y-68413333D01*
X105831666Y-68365714D01*
X105641189Y-68365714D01*
X105545951Y-68413333D01*
X105974523Y-68984762D02*
X105879285Y-69032381D01*
X105641189Y-69032381D01*
X105545951Y-68984762D01*
X105498332Y-68889524D01*
X105498332Y-68794286D01*
X105545951Y-68699048D01*
X105641189Y-68651429D01*
X105879285Y-68651429D01*
X105974523Y-68603810D01*
X106450713Y-68365714D02*
X106450713Y-69032381D01*
X106450713Y-68460952D02*
X106498332Y-68413333D01*
X106593570Y-68365714D01*
X106736428Y-68365714D01*
X106831666Y-68413333D01*
X106879285Y-68508571D01*
X106879285Y-69032381D01*
X107212618Y-68365714D02*
X107593570Y-68365714D01*
X107355475Y-68032381D02*
X107355475Y-68889524D01*
X107403094Y-68984762D01*
X107498332Y-69032381D01*
X107593570Y-69032381D01*
X107926904Y-69032381D02*
X107926904Y-68365714D01*
X107926904Y-68032381D02*
X107879285Y-68080000D01*
X107926904Y-68127619D01*
X107974523Y-68080000D01*
X107926904Y-68032381D01*
X107926904Y-68127619D01*
X108831666Y-68984762D02*
X108736428Y-69032381D01*
X108545951Y-69032381D01*
X108450713Y-68984762D01*
X108403094Y-68937143D01*
X108355475Y-68841905D01*
X108355475Y-68556190D01*
X108403094Y-68460952D01*
X108450713Y-68413333D01*
X108545951Y-68365714D01*
X108736428Y-68365714D01*
X108831666Y-68413333D01*
X110593571Y-69032381D02*
X110260237Y-68556190D01*
X110022142Y-69032381D02*
X110022142Y-68032381D01*
X110403095Y-68032381D01*
X110498333Y-68080000D01*
X110545952Y-68127619D01*
X110593571Y-68222857D01*
X110593571Y-68365714D01*
X110545952Y-68460952D01*
X110498333Y-68508571D01*
X110403095Y-68556190D01*
X110022142Y-68556190D01*
X111164999Y-69032381D02*
X111069761Y-68984762D01*
X111022142Y-68937143D01*
X110974523Y-68841905D01*
X110974523Y-68556190D01*
X111022142Y-68460952D01*
X111069761Y-68413333D01*
X111164999Y-68365714D01*
X111307857Y-68365714D01*
X111403095Y-68413333D01*
X111450714Y-68460952D01*
X111498333Y-68556190D01*
X111498333Y-68841905D01*
X111450714Y-68937143D01*
X111403095Y-68984762D01*
X111307857Y-69032381D01*
X111164999Y-69032381D01*
X111926904Y-69032381D02*
X111926904Y-68032381D01*
X111926904Y-68413333D02*
X112022142Y-68365714D01*
X112212619Y-68365714D01*
X112307857Y-68413333D01*
X112355476Y-68460952D01*
X112403095Y-68556190D01*
X112403095Y-68841905D01*
X112355476Y-68937143D01*
X112307857Y-68984762D01*
X112212619Y-69032381D01*
X112022142Y-69032381D01*
X111926904Y-68984762D01*
X112974523Y-69032381D02*
X112879285Y-68984762D01*
X112831666Y-68937143D01*
X112784047Y-68841905D01*
X112784047Y-68556190D01*
X112831666Y-68460952D01*
X112879285Y-68413333D01*
X112974523Y-68365714D01*
X113117381Y-68365714D01*
X113212619Y-68413333D01*
X113260238Y-68460952D01*
X113307857Y-68556190D01*
X113307857Y-68841905D01*
X113260238Y-68937143D01*
X113212619Y-68984762D01*
X113117381Y-69032381D01*
X112974523Y-69032381D01*
X113593571Y-68365714D02*
X113974523Y-68365714D01*
X113736428Y-68032381D02*
X113736428Y-68889524D01*
X113784047Y-68984762D01*
X113879285Y-69032381D01*
X113974523Y-69032381D01*
X115069762Y-69032381D02*
X115069762Y-68032381D01*
X115403096Y-68746667D01*
X115736429Y-68032381D01*
X115736429Y-69032381D01*
X116641191Y-68365714D02*
X116641191Y-69032381D01*
X116212619Y-68365714D02*
X116212619Y-68889524D01*
X116260238Y-68984762D01*
X116355476Y-69032381D01*
X116498334Y-69032381D01*
X116593572Y-68984762D01*
X116641191Y-68937143D01*
X117260238Y-69032381D02*
X117165000Y-68984762D01*
X117117381Y-68889524D01*
X117117381Y-68032381D01*
X117498334Y-68365714D02*
X117879286Y-68365714D01*
X117641191Y-68032381D02*
X117641191Y-68889524D01*
X117688810Y-68984762D01*
X117784048Y-69032381D01*
X117879286Y-69032381D01*
X118212620Y-69032381D02*
X118212620Y-68365714D01*
X118212620Y-68032381D02*
X118165001Y-68080000D01*
X118212620Y-68127619D01*
X118260239Y-68080000D01*
X118212620Y-68032381D01*
X118212620Y-68127619D01*
X118545953Y-68365714D02*
X118926905Y-68365714D01*
X118688810Y-69032381D02*
X118688810Y-68175238D01*
X118736429Y-68080000D01*
X118831667Y-68032381D01*
X118926905Y-68032381D01*
X119688811Y-69032381D02*
X119688811Y-68508571D01*
X119641192Y-68413333D01*
X119545954Y-68365714D01*
X119355477Y-68365714D01*
X119260239Y-68413333D01*
X119688811Y-68984762D02*
X119593573Y-69032381D01*
X119355477Y-69032381D01*
X119260239Y-68984762D01*
X119212620Y-68889524D01*
X119212620Y-68794286D01*
X119260239Y-68699048D01*
X119355477Y-68651429D01*
X119593573Y-68651429D01*
X119688811Y-68603810D01*
X120593573Y-68984762D02*
X120498335Y-69032381D01*
X120307858Y-69032381D01*
X120212620Y-68984762D01*
X120165001Y-68937143D01*
X120117382Y-68841905D01*
X120117382Y-68556190D01*
X120165001Y-68460952D01*
X120212620Y-68413333D01*
X120307858Y-68365714D01*
X120498335Y-68365714D01*
X120593573Y-68413333D01*
X121403097Y-68984762D02*
X121307859Y-69032381D01*
X121117382Y-69032381D01*
X121022144Y-68984762D01*
X120974525Y-68889524D01*
X120974525Y-68508571D01*
X121022144Y-68413333D01*
X121117382Y-68365714D01*
X121307859Y-68365714D01*
X121403097Y-68413333D01*
X121450716Y-68508571D01*
X121450716Y-68603810D01*
X120974525Y-68699048D01*
X123165002Y-69032381D02*
X122593573Y-69032381D01*
X122879287Y-69032381D02*
X122879287Y-68032381D01*
X122784049Y-68175238D01*
X122688811Y-68270476D01*
X122593573Y-68318095D01*
X123545954Y-68127619D02*
X123593573Y-68080000D01*
X123688811Y-68032381D01*
X123926907Y-68032381D01*
X124022145Y-68080000D01*
X124069764Y-68127619D01*
X124117383Y-68222857D01*
X124117383Y-68318095D01*
X124069764Y-68460952D01*
X123498335Y-69032381D01*
X124117383Y-69032381D01*
X124688811Y-68460952D02*
X124593573Y-68413333D01*
X124545954Y-68365714D01*
X124498335Y-68270476D01*
X124498335Y-68222857D01*
X124545954Y-68127619D01*
X124593573Y-68080000D01*
X124688811Y-68032381D01*
X124879288Y-68032381D01*
X124974526Y-68080000D01*
X125022145Y-68127619D01*
X125069764Y-68222857D01*
X125069764Y-68270476D01*
X125022145Y-68365714D01*
X124974526Y-68413333D01*
X124879288Y-68460952D01*
X124688811Y-68460952D01*
X124593573Y-68508571D01*
X124545954Y-68556190D01*
X124498335Y-68651429D01*
X124498335Y-68841905D01*
X124545954Y-68937143D01*
X124593573Y-68984762D01*
X124688811Y-69032381D01*
X124879288Y-69032381D01*
X124974526Y-68984762D01*
X125022145Y-68937143D01*
X125069764Y-68841905D01*
X125069764Y-68651429D01*
X125022145Y-68556190D01*
X124974526Y-68508571D01*
X124879288Y-68460952D01*
D15*
X151400000Y-73540000D02*
X149630000Y-73540000D01*
X149630000Y-73540000D02*
X149630000Y-91560000D01*
X149630000Y-91560000D02*
X155170000Y-91560000D01*
X155170000Y-91560000D02*
X155170000Y-73540000D01*
X155170000Y-73540000D02*
X153400000Y-73540000D01*
X153400000Y-73540000D02*
G75*
G02X151400000Y-73540000I-1000000J0D01*
G01*
X88390000Y-92870000D02*
X91910000Y-92870000D01*
X88390000Y-95090000D02*
X91910000Y-95090000D01*
X88390000Y-92870000D02*
X88390000Y-92984000D01*
X88390000Y-94976000D02*
X88390000Y-95090000D01*
X91910000Y-92870000D02*
X91910000Y-92984000D01*
X91910000Y-94976000D02*
X91910000Y-95090000D01*
X101090000Y-92870000D02*
X104610000Y-92870000D01*
X101090000Y-95090000D02*
X104610000Y-95090000D01*
X101090000Y-92870000D02*
X101090000Y-92984000D01*
X101090000Y-94976000D02*
X101090000Y-95090000D01*
X104610000Y-92870000D02*
X104610000Y-92984000D01*
X104610000Y-94976000D02*
X104610000Y-95090000D01*
X113790000Y-92870000D02*
X117310000Y-92870000D01*
X113790000Y-95090000D02*
X117310000Y-95090000D01*
X113790000Y-92870000D02*
X113790000Y-92984000D01*
X113790000Y-94976000D02*
X113790000Y-95090000D01*
X117310000Y-92870000D02*
X117310000Y-92984000D01*
X117310000Y-94976000D02*
X117310000Y-95090000D01*
X126490000Y-92870000D02*
X130010000Y-92870000D01*
X126490000Y-95090000D02*
X130010000Y-95090000D01*
X126490000Y-92870000D02*
X126490000Y-92984000D01*
X126490000Y-94976000D02*
X126490000Y-95090000D01*
X130010000Y-92870000D02*
X130010000Y-92984000D01*
X130010000Y-94976000D02*
X130010000Y-95090000D01*
X137920000Y-92870000D02*
X141440000Y-92870000D01*
X137920000Y-95090000D02*
X141440000Y-95090000D01*
X137920000Y-92870000D02*
X137920000Y-92984000D01*
X137920000Y-94976000D02*
X137920000Y-95090000D01*
X141440000Y-92870000D02*
X141440000Y-92984000D01*
X141440000Y-94976000D02*
X141440000Y-95090000D01*
X150620000Y-92870000D02*
X154140000Y-92870000D01*
X150620000Y-95090000D02*
X154140000Y-95090000D01*
X150620000Y-92870000D02*
X150620000Y-92984000D01*
X150620000Y-94976000D02*
X150620000Y-95090000D01*
X154140000Y-92870000D02*
X154140000Y-92984000D01*
X154140000Y-94976000D02*
X154140000Y-95090000D01*
X163320000Y-92870000D02*
X166840000Y-92870000D01*
X163320000Y-95090000D02*
X166840000Y-95090000D01*
X163320000Y-92870000D02*
X163320000Y-92984000D01*
X163320000Y-94976000D02*
X163320000Y-95090000D01*
X166840000Y-92870000D02*
X166840000Y-92984000D01*
X166840000Y-94976000D02*
X166840000Y-95090000D01*
X176020000Y-92870000D02*
X179540000Y-92870000D01*
X176020000Y-95090000D02*
X179540000Y-95090000D01*
X176020000Y-92870000D02*
X176020000Y-92984000D01*
X176020000Y-94976000D02*
X176020000Y-95090000D01*
X179540000Y-92870000D02*
X179540000Y-92984000D01*
X179540000Y-94976000D02*
X179540000Y-95090000D01*
X164590000Y-114460000D02*
X168110000Y-114460000D01*
X164590000Y-116680000D02*
X168110000Y-116680000D01*
X164590000Y-114460000D02*
X164590000Y-114574000D01*
X164590000Y-116566000D02*
X164590000Y-116680000D01*
X168110000Y-114460000D02*
X168110000Y-114574000D01*
X168110000Y-116566000D02*
X168110000Y-116680000D01*
X154180000Y-119220000D02*
X150660000Y-119220000D01*
X154180000Y-117000000D02*
X150660000Y-117000000D01*
X154180000Y-119220000D02*
X154180000Y-119106000D01*
X154180000Y-117114000D02*
X154180000Y-117000000D01*
X150660000Y-119220000D02*
X150660000Y-119106000D01*
X150660000Y-117114000D02*
X150660000Y-117000000D01*
X176020000Y-114460000D02*
X179540000Y-114460000D01*
X176020000Y-116680000D02*
X179540000Y-116680000D01*
X176020000Y-114460000D02*
X176020000Y-114574000D01*
X176020000Y-116566000D02*
X176020000Y-116680000D01*
X179540000Y-114460000D02*
X179540000Y-114574000D01*
X179540000Y-116566000D02*
X179540000Y-116680000D01*
X115060000Y-117000000D02*
X118580000Y-117000000D01*
X115060000Y-119220000D02*
X118580000Y-119220000D01*
X115060000Y-117000000D02*
X115060000Y-117114000D01*
X115060000Y-119106000D02*
X115060000Y-119220000D01*
X118580000Y-117000000D02*
X118580000Y-117114000D01*
X118580000Y-119106000D02*
X118580000Y-119220000D01*
X89170000Y-73540000D02*
X87400000Y-73540000D01*
X87400000Y-73540000D02*
X87400000Y-91560000D01*
X87400000Y-91560000D02*
X92940000Y-91560000D01*
X92940000Y-91560000D02*
X92940000Y-73540000D01*
X92940000Y-73540000D02*
X91170000Y-73540000D01*
X91170000Y-73540000D02*
G75*
G02X89170000Y-73540000I-1000000J0D01*
G01*
X101870000Y-73540000D02*
X100100000Y-73540000D01*
X100100000Y-73540000D02*
X100100000Y-91560000D01*
X100100000Y-91560000D02*
X105640000Y-91560000D01*
X105640000Y-91560000D02*
X105640000Y-73540000D01*
X105640000Y-73540000D02*
X103870000Y-73540000D01*
X103870000Y-73540000D02*
G75*
G02X101870000Y-73540000I-1000000J0D01*
G01*
X114570000Y-73540000D02*
X112800000Y-73540000D01*
X112800000Y-73540000D02*
X112800000Y-91560000D01*
X112800000Y-91560000D02*
X118340000Y-91560000D01*
X118340000Y-91560000D02*
X118340000Y-73540000D01*
X118340000Y-73540000D02*
X116570000Y-73540000D01*
X116570000Y-73540000D02*
G75*
G02X114570000Y-73540000I-1000000J0D01*
G01*
X127270000Y-73540000D02*
X125500000Y-73540000D01*
X125500000Y-73540000D02*
X125500000Y-91560000D01*
X125500000Y-91560000D02*
X131040000Y-91560000D01*
X131040000Y-91560000D02*
X131040000Y-73540000D01*
X131040000Y-73540000D02*
X129270000Y-73540000D01*
X129270000Y-73540000D02*
G75*
G02X127270000Y-73540000I-1000000J0D01*
G01*
X138700000Y-73540000D02*
X136930000Y-73540000D01*
X136930000Y-73540000D02*
X136930000Y-91560000D01*
X136930000Y-91560000D02*
X142470000Y-91560000D01*
X142470000Y-91560000D02*
X142470000Y-73540000D01*
X142470000Y-73540000D02*
X140700000Y-73540000D01*
X140700000Y-73540000D02*
G75*
G02X138700000Y-73540000I-1000000J0D01*
G01*
X164100000Y-73540000D02*
X162330000Y-73540000D01*
X162330000Y-73540000D02*
X162330000Y-91560000D01*
X162330000Y-91560000D02*
X167870000Y-91560000D01*
X167870000Y-91560000D02*
X167870000Y-73540000D01*
X167870000Y-73540000D02*
X166100000Y-73540000D01*
X166100000Y-73540000D02*
G75*
G02X164100000Y-73540000I-1000000J0D01*
G01*
X176800000Y-73540000D02*
X175030000Y-73540000D01*
X175030000Y-73540000D02*
X175030000Y-91560000D01*
X175030000Y-91560000D02*
X180570000Y-91560000D01*
X180570000Y-91560000D02*
X180570000Y-73540000D01*
X180570000Y-73540000D02*
X178800000Y-73540000D01*
X178800000Y-73540000D02*
G75*
G02X176800000Y-73540000I-1000000J0D01*
G01*
X165370000Y-117990000D02*
X163600000Y-117990000D01*
X163600000Y-117990000D02*
X163600000Y-136010000D01*
X163600000Y-136010000D02*
X169140000Y-136010000D01*
X169140000Y-136010000D02*
X169140000Y-117990000D01*
X169140000Y-117990000D02*
X167370000Y-117990000D01*
X167370000Y-117990000D02*
G75*
G02X165370000Y-117990000I-1000000J0D01*
G01*
X176800000Y-117990000D02*
X175030000Y-117990000D01*
X175030000Y-117990000D02*
X175030000Y-136010000D01*
X175030000Y-136010000D02*
X180570000Y-136010000D01*
X180570000Y-136010000D02*
X180570000Y-117990000D01*
X180570000Y-117990000D02*
X178800000Y-117990000D01*
X178800000Y-117990000D02*
G75*
G02X176800000Y-117990000I-1000000J0D01*
G01*
X169002000Y-69556000D02*
X169002000Y-72176000D01*
X169002000Y-72176000D02*
X175422000Y-72176000D01*
X175422000Y-72176000D02*
X175422000Y-69556000D01*
X175422000Y-69556000D02*
X169002000Y-69556000D01*
X168112000Y-70866000D02*
X169002000Y-70866000D01*
X176312000Y-70866000D02*
X175422000Y-70866000D01*
X159674000Y-72176000D02*
X159674000Y-69556000D01*
X159674000Y-69556000D02*
X153254000Y-69556000D01*
X153254000Y-69556000D02*
X153254000Y-72176000D01*
X153254000Y-72176000D02*
X159674000Y-72176000D01*
X160564000Y-70866000D02*
X159674000Y-70866000D01*
X152364000Y-70866000D02*
X153254000Y-70866000D01*
D16*
X144653000Y-65786000D02*
X140335000Y-65786000D01*
X140335000Y-71882000D02*
X144653000Y-71882000D01*
X145542000Y-67836000D02*
X145542000Y-69850000D01*
X139446000Y-67806000D02*
X139446000Y-69850000D01*
X144272000Y-68834000D02*
G75*
G03X144272000Y-68834000I-1778000J0D01*
G01*
D15*
X122040000Y-105680000D02*
X122040000Y-100100000D01*
X122040000Y-100100000D02*
X86240000Y-100100000D01*
X86240000Y-100100000D02*
X86240000Y-113260000D01*
X86240000Y-113260000D02*
X122040000Y-113260000D01*
X122040000Y-113260000D02*
X122040000Y-107680000D01*
X122040000Y-107680000D02*
G75*
G02X122040000Y-105680000I0J1000000D01*
G01*
X162680000Y-105680000D02*
X162680000Y-100100000D01*
X162680000Y-100100000D02*
X126880000Y-100100000D01*
X126880000Y-100100000D02*
X126880000Y-113260000D01*
X126880000Y-113260000D02*
X162680000Y-113260000D01*
X162680000Y-113260000D02*
X162680000Y-107680000D01*
X162680000Y-107680000D02*
G75*
G02X162680000Y-105680000I0J1000000D01*
G01*
D17*
G36*
X170588123Y-102121881D02*
X170614873Y-102122486D01*
X170635587Y-102123671D01*
X170652537Y-102125671D01*
X170667996Y-102128718D01*
X170684238Y-102133047D01*
X170694856Y-102136220D01*
X170760528Y-102160253D01*
X170819308Y-102190629D01*
X170873626Y-102228804D01*
X170921466Y-102271783D01*
X170971119Y-102328065D01*
X171011533Y-102389072D01*
X171042448Y-102454274D01*
X171063601Y-102523140D01*
X171073346Y-102580741D01*
X171076937Y-102613231D01*
X171101454Y-102616734D01*
X171130690Y-102624862D01*
X171152888Y-102640261D01*
X171162559Y-102652087D01*
X171163455Y-102653680D01*
X171164293Y-102655965D01*
X171165075Y-102659280D01*
X171165805Y-102663966D01*
X171166482Y-102670365D01*
X171167111Y-102678816D01*
X171167691Y-102689661D01*
X171168225Y-102703239D01*
X171168716Y-102719891D01*
X171169164Y-102739958D01*
X171169572Y-102763780D01*
X171169942Y-102791697D01*
X171170275Y-102824051D01*
X171170574Y-102861182D01*
X171170840Y-102903430D01*
X171171075Y-102951136D01*
X171171281Y-103004640D01*
X171171460Y-103064283D01*
X171171614Y-103130405D01*
X171171745Y-103203348D01*
X171171854Y-103283450D01*
X171171944Y-103371054D01*
X171172017Y-103466499D01*
X171172073Y-103570126D01*
X171172116Y-103682276D01*
X171172146Y-103803289D01*
X171172167Y-103933505D01*
X171172179Y-104073265D01*
X171172186Y-104222911D01*
X171172187Y-104382781D01*
X171172187Y-104391354D01*
X171172186Y-104551685D01*
X171172181Y-104701773D01*
X171172171Y-104841961D01*
X171172153Y-104972590D01*
X171172126Y-105094001D01*
X171172087Y-105206536D01*
X171172035Y-105310536D01*
X171171967Y-105406342D01*
X171171883Y-105494297D01*
X171171779Y-105574741D01*
X171171653Y-105648015D01*
X171171505Y-105714462D01*
X171171331Y-105774423D01*
X171171131Y-105828239D01*
X171170901Y-105876251D01*
X171170640Y-105918801D01*
X171170346Y-105956230D01*
X171170018Y-105988880D01*
X171169652Y-106017093D01*
X171169248Y-106041208D01*
X171168803Y-106061569D01*
X171168315Y-106078516D01*
X171167783Y-106092391D01*
X171167204Y-106103535D01*
X171166576Y-106112290D01*
X171165898Y-106118997D01*
X171165167Y-106123997D01*
X171164382Y-106127632D01*
X171163540Y-106130243D01*
X171162640Y-106132172D01*
X171162210Y-106132918D01*
X171151008Y-106146948D01*
X171137851Y-106157892D01*
X171137581Y-106158054D01*
X171135725Y-106158824D01*
X171132632Y-106159548D01*
X171127982Y-106160226D01*
X171121453Y-106160861D01*
X171112724Y-106161452D01*
X171101473Y-106162002D01*
X171087379Y-106162513D01*
X171070121Y-106162985D01*
X171049378Y-106163421D01*
X171024828Y-106163820D01*
X170996149Y-106164186D01*
X170963021Y-106164519D01*
X170925122Y-106164821D01*
X170882131Y-106165094D01*
X170833726Y-106165338D01*
X170779587Y-106165555D01*
X170719391Y-106165746D01*
X170652818Y-106165914D01*
X170579546Y-106166059D01*
X170499254Y-106166182D01*
X170411621Y-106166286D01*
X170316324Y-106166372D01*
X170213044Y-106166441D01*
X170101458Y-106166494D01*
X169981246Y-106166533D01*
X169852085Y-106166560D01*
X169713655Y-106166575D01*
X169565635Y-106166581D01*
X169407702Y-106166578D01*
X169239536Y-106166569D01*
X169224038Y-106166568D01*
X169054923Y-106166553D01*
X168896071Y-106166532D01*
X168747159Y-106166505D01*
X168607869Y-106166470D01*
X168477877Y-106166425D01*
X168356863Y-106166368D01*
X168244507Y-106166299D01*
X168140487Y-106166216D01*
X168044482Y-106166117D01*
X167956170Y-106166002D01*
X167875232Y-106165867D01*
X167801346Y-106165713D01*
X167734191Y-106165537D01*
X167673445Y-106165338D01*
X167618789Y-106165115D01*
X167569900Y-106164866D01*
X167526458Y-106164589D01*
X167488142Y-106164284D01*
X167454630Y-106163948D01*
X167425603Y-106163581D01*
X167400738Y-106163180D01*
X167379714Y-106162745D01*
X167362211Y-106162273D01*
X167347908Y-106161764D01*
X167336483Y-106161215D01*
X167327616Y-106160626D01*
X167320985Y-106159995D01*
X167316269Y-106159320D01*
X167313148Y-106158600D01*
X167311300Y-106157834D01*
X167311243Y-106157799D01*
X167298085Y-106146583D01*
X167288754Y-106134634D01*
X167287953Y-106132696D01*
X167287204Y-106129457D01*
X167286503Y-106124580D01*
X167285851Y-106117729D01*
X167285244Y-106108567D01*
X167284681Y-106096757D01*
X167284162Y-106081963D01*
X167283683Y-106063849D01*
X167283244Y-106042077D01*
X167282842Y-106016312D01*
X167282476Y-105986217D01*
X167282145Y-105951454D01*
X167281846Y-105911688D01*
X167281579Y-105866582D01*
X167281341Y-105815800D01*
X167281131Y-105759004D01*
X167280946Y-105695858D01*
X167280787Y-105626027D01*
X167280649Y-105549172D01*
X167280534Y-105464958D01*
X167280437Y-105373048D01*
X167280358Y-105273106D01*
X167280296Y-105164794D01*
X167280248Y-105047777D01*
X167280213Y-104921717D01*
X167280189Y-104786279D01*
X167280174Y-104641125D01*
X167280167Y-104485919D01*
X167280167Y-104230916D01*
X167280170Y-104080720D01*
X167280178Y-103940426D01*
X167280193Y-103809692D01*
X167280216Y-103688177D01*
X167280250Y-103575542D01*
X167280297Y-103471444D01*
X167280359Y-103375542D01*
X167280437Y-103287497D01*
X167280535Y-103206966D01*
X167280654Y-103133610D01*
X167280795Y-103067086D01*
X167280901Y-103028750D01*
X167502295Y-103028750D01*
X167527028Y-103059116D01*
X167553599Y-103097776D01*
X167576295Y-103142617D01*
X167593048Y-103189392D01*
X167596063Y-103200881D01*
X167597077Y-103205660D01*
X167598015Y-103211557D01*
X167598880Y-103218996D01*
X167599675Y-103228402D01*
X167600405Y-103240200D01*
X167601074Y-103254812D01*
X167601686Y-103272664D01*
X167602243Y-103294181D01*
X167602751Y-103319786D01*
X167603213Y-103349904D01*
X167603634Y-103384959D01*
X167604015Y-103425376D01*
X167604363Y-103471578D01*
X167604680Y-103523992D01*
X167604971Y-103583040D01*
X167605239Y-103649147D01*
X167605488Y-103722737D01*
X167605722Y-103804235D01*
X167605945Y-103894066D01*
X167606161Y-103992653D01*
X167606374Y-104100421D01*
X167606587Y-104217795D01*
X167606804Y-104345198D01*
X167606872Y-104386063D01*
X167607064Y-104517713D01*
X167607197Y-104643812D01*
X167607272Y-104764013D01*
X167607290Y-104877972D01*
X167607252Y-104985345D01*
X167607159Y-105085788D01*
X167607012Y-105178955D01*
X167606812Y-105264502D01*
X167606559Y-105342084D01*
X167606254Y-105411357D01*
X167605899Y-105471977D01*
X167605494Y-105523599D01*
X167605041Y-105565877D01*
X167604539Y-105598469D01*
X167603990Y-105621028D01*
X167603639Y-105629604D01*
X167601419Y-105666840D01*
X167599098Y-105695667D01*
X167596380Y-105718256D01*
X167592969Y-105736779D01*
X167588569Y-105753410D01*
X167585417Y-105763127D01*
X167567562Y-105807123D01*
X167545653Y-105844883D01*
X167526465Y-105870093D01*
X167516157Y-105882787D01*
X167509344Y-105891857D01*
X167507708Y-105894688D01*
X167512871Y-105895015D01*
X167527841Y-105895327D01*
X167551846Y-105895620D01*
X167584108Y-105895890D01*
X167623853Y-105896134D01*
X167670307Y-105896347D01*
X167722694Y-105896527D01*
X167780239Y-105896668D01*
X167842168Y-105896769D01*
X167907704Y-105896824D01*
X167949875Y-105896834D01*
X168031187Y-105896805D01*
X168102479Y-105896714D01*
X168164314Y-105896552D01*
X168217254Y-105896311D01*
X168261862Y-105895981D01*
X168298702Y-105895556D01*
X168328335Y-105895025D01*
X168351326Y-105894380D01*
X168368237Y-105893614D01*
X168379630Y-105892717D01*
X168386069Y-105891681D01*
X168388116Y-105890498D01*
X168388034Y-105890219D01*
X168382861Y-105882355D01*
X168373914Y-105869321D01*
X168367249Y-105859792D01*
X168351156Y-105832312D01*
X168335424Y-105796858D01*
X168321039Y-105756017D01*
X168308985Y-105712379D01*
X168305814Y-105698396D01*
X168303799Y-105688715D01*
X168302033Y-105679185D01*
X168300495Y-105669058D01*
X168299164Y-105657586D01*
X168298022Y-105644022D01*
X168297047Y-105627619D01*
X168296219Y-105607629D01*
X168295519Y-105583305D01*
X168294926Y-105553900D01*
X168294419Y-105518665D01*
X168293980Y-105476855D01*
X168293587Y-105427720D01*
X168293221Y-105370515D01*
X168292861Y-105304491D01*
X168292487Y-105228901D01*
X168292344Y-105199107D01*
X168291999Y-105114041D01*
X168291812Y-105037334D01*
X168291779Y-104969245D01*
X168291900Y-104910033D01*
X168292173Y-104859957D01*
X168292596Y-104819275D01*
X168293167Y-104788247D01*
X168293885Y-104767132D01*
X168294747Y-104756189D01*
X168295318Y-104754607D01*
X168299143Y-104759055D01*
X168308672Y-104771336D01*
X168323377Y-104790729D01*
X168342729Y-104816514D01*
X168366197Y-104847972D01*
X168393254Y-104884381D01*
X168423370Y-104925023D01*
X168456015Y-104969177D01*
X168490661Y-105016122D01*
X168526778Y-105065140D01*
X168563836Y-105115510D01*
X168601308Y-105166512D01*
X168638663Y-105217425D01*
X168675372Y-105267531D01*
X168710906Y-105316108D01*
X168744736Y-105362437D01*
X168776332Y-105405798D01*
X168805166Y-105445471D01*
X168830708Y-105480735D01*
X168852429Y-105510871D01*
X168869800Y-105535159D01*
X168882291Y-105552878D01*
X168886017Y-105558279D01*
X168916778Y-105605486D01*
X168944157Y-105651705D01*
X168966924Y-105694740D01*
X168983852Y-105732392D01*
X168985045Y-105735438D01*
X168990502Y-105751143D01*
X168994091Y-105766463D01*
X168996177Y-105784279D01*
X168997126Y-105807468D01*
X168997312Y-105832012D01*
X168997312Y-105896837D01*
X169482959Y-105896835D01*
X169968605Y-105896834D01*
X169965170Y-105893877D01*
X170137667Y-105893877D01*
X170142825Y-105894342D01*
X170157767Y-105894784D01*
X170181693Y-105895198D01*
X170213804Y-105895578D01*
X170253299Y-105895919D01*
X170299379Y-105896214D01*
X170351245Y-105896459D01*
X170408097Y-105896647D01*
X170469135Y-105896772D01*
X170533559Y-105896830D01*
X170553027Y-105896834D01*
X170968388Y-105896834D01*
X170949090Y-105871698D01*
X170925445Y-105834803D01*
X170905107Y-105790818D01*
X170895284Y-105762750D01*
X170894238Y-105758626D01*
X170893277Y-105752989D01*
X170892396Y-105745383D01*
X170891593Y-105735353D01*
X170890860Y-105722444D01*
X170890195Y-105706199D01*
X170889593Y-105686165D01*
X170889048Y-105661884D01*
X170888556Y-105632903D01*
X170888113Y-105598765D01*
X170887714Y-105559015D01*
X170887354Y-105513198D01*
X170887029Y-105460858D01*
X170886734Y-105401541D01*
X170886465Y-105334790D01*
X170886216Y-105260150D01*
X170885984Y-105177166D01*
X170885763Y-105085383D01*
X170885549Y-104984345D01*
X170885338Y-104873596D01*
X170885142Y-104763094D01*
X170883469Y-103790750D01*
X170510255Y-103790750D01*
X170435948Y-103790784D01*
X170371613Y-103790894D01*
X170316642Y-103791089D01*
X170270422Y-103791382D01*
X170232346Y-103791784D01*
X170201801Y-103792304D01*
X170178178Y-103792954D01*
X170160867Y-103793745D01*
X170149258Y-103794688D01*
X170142740Y-103795794D01*
X170140703Y-103797074D01*
X170140787Y-103797365D01*
X170147058Y-103806286D01*
X170153890Y-103814563D01*
X170163522Y-103828397D01*
X170174942Y-103849141D01*
X170186671Y-103873634D01*
X170197231Y-103898720D01*
X170205144Y-103921238D01*
X170207117Y-103928334D01*
X170208131Y-103937701D01*
X170209078Y-103956969D01*
X170209957Y-103985456D01*
X170210768Y-104022481D01*
X170211511Y-104067362D01*
X170212187Y-104119417D01*
X170212795Y-104177965D01*
X170213336Y-104242324D01*
X170213809Y-104311814D01*
X170214215Y-104385751D01*
X170214553Y-104463456D01*
X170214824Y-104544245D01*
X170215027Y-104627439D01*
X170215163Y-104712354D01*
X170215231Y-104798311D01*
X170215231Y-104884626D01*
X170215164Y-104970619D01*
X170215030Y-105055608D01*
X170214828Y-105138911D01*
X170214559Y-105219848D01*
X170214222Y-105297735D01*
X170213818Y-105371893D01*
X170213346Y-105441639D01*
X170212807Y-105506292D01*
X170212201Y-105565170D01*
X170211527Y-105617592D01*
X170210786Y-105662876D01*
X170209978Y-105700341D01*
X170209102Y-105729304D01*
X170208159Y-105749086D01*
X170207148Y-105759003D01*
X170207090Y-105759250D01*
X170196932Y-105790504D01*
X170182401Y-105823464D01*
X170165641Y-105853665D01*
X170153245Y-105871388D01*
X170144056Y-105883482D01*
X170138461Y-105891951D01*
X170137667Y-105893877D01*
X169965170Y-105893877D01*
X169931801Y-105865157D01*
X169913910Y-105848450D01*
X169890808Y-105824864D01*
X169863796Y-105795862D01*
X169834177Y-105762907D01*
X169803255Y-105727462D01*
X169772331Y-105690988D01*
X169742708Y-105654948D01*
X169726696Y-105634896D01*
X169719120Y-105624945D01*
X169705728Y-105606958D01*
X169686913Y-105581471D01*
X169663065Y-105549020D01*
X169634576Y-105510141D01*
X169601837Y-105465370D01*
X169565240Y-105415244D01*
X169525176Y-105360299D01*
X169482035Y-105301070D01*
X169436210Y-105238095D01*
X169388091Y-105171909D01*
X169338071Y-105103048D01*
X169286539Y-105032049D01*
X169252024Y-104984462D01*
X168814919Y-104381654D01*
X168832446Y-104360046D01*
X168837923Y-104353260D01*
X168849613Y-104338747D01*
X168867101Y-104317028D01*
X168889965Y-104288621D01*
X168917789Y-104254047D01*
X168950154Y-104213826D01*
X168986642Y-104168479D01*
X169026833Y-104118524D01*
X169070311Y-104064482D01*
X169116656Y-104006874D01*
X169165449Y-103946218D01*
X169216274Y-103883035D01*
X169267094Y-103819854D01*
X169320050Y-103754049D01*
X169371764Y-103689847D01*
X169421785Y-103627808D01*
X169469658Y-103568492D01*
X169514930Y-103512457D01*
X169557148Y-103460265D01*
X169595859Y-103412474D01*
X169630610Y-103369643D01*
X169660947Y-103332333D01*
X169686418Y-103301103D01*
X169706568Y-103276512D01*
X169720946Y-103259120D01*
X169728477Y-103250199D01*
X169755620Y-103219994D01*
X169786031Y-103188032D01*
X169818087Y-103155862D01*
X169850166Y-103125035D01*
X169880643Y-103097098D01*
X169907898Y-103073603D01*
X169930306Y-103056098D01*
X169935674Y-103052359D01*
X169970866Y-103028750D01*
X169011092Y-103028750D01*
X169016777Y-103045057D01*
X169019316Y-103058657D01*
X169020442Y-103078419D01*
X169019946Y-103099297D01*
X169013976Y-103137145D01*
X169000683Y-103178437D01*
X168979769Y-103223788D01*
X168950938Y-103273810D01*
X168913891Y-103329118D01*
X168897677Y-103351542D01*
X168888439Y-103363779D01*
X168873704Y-103382902D01*
X168854037Y-103408195D01*
X168830005Y-103438944D01*
X168802175Y-103474434D01*
X168771112Y-103513950D01*
X168737382Y-103556777D01*
X168701552Y-103602201D01*
X168664189Y-103649507D01*
X168625858Y-103697980D01*
X168587125Y-103746906D01*
X168548557Y-103795569D01*
X168510721Y-103843255D01*
X168474181Y-103889250D01*
X168439506Y-103932837D01*
X168407260Y-103973303D01*
X168378011Y-104009933D01*
X168352323Y-104042012D01*
X168330765Y-104068825D01*
X168313901Y-104089658D01*
X168302298Y-104103796D01*
X168296523Y-104110523D01*
X168296038Y-104110975D01*
X168295023Y-104106509D01*
X168294119Y-104092436D01*
X168293325Y-104069735D01*
X168292641Y-104039383D01*
X168292066Y-104002356D01*
X168291600Y-103959631D01*
X168291241Y-103912187D01*
X168290990Y-103860999D01*
X168290844Y-103807045D01*
X168290805Y-103751302D01*
X168290871Y-103694748D01*
X168291042Y-103638358D01*
X168291316Y-103583111D01*
X168291694Y-103529983D01*
X168292175Y-103479952D01*
X168292757Y-103433994D01*
X168293441Y-103393086D01*
X168294226Y-103358206D01*
X168295111Y-103330331D01*
X168296095Y-103310438D01*
X168296564Y-103304423D01*
X168305912Y-103236022D01*
X168320390Y-103174173D01*
X168339702Y-103119790D01*
X168363554Y-103073786D01*
X168377341Y-103053886D01*
X168396638Y-103028750D01*
X167502295Y-103028750D01*
X167280901Y-103028750D01*
X167280962Y-103007054D01*
X167281156Y-102953174D01*
X167281380Y-102905104D01*
X167281634Y-102862503D01*
X167281922Y-102825030D01*
X167282245Y-102792345D01*
X167282606Y-102764106D01*
X167283006Y-102739973D01*
X167283448Y-102719604D01*
X167283933Y-102702659D01*
X167284464Y-102688797D01*
X167285042Y-102677676D01*
X167285671Y-102668956D01*
X167286351Y-102662296D01*
X167287084Y-102657356D01*
X167287874Y-102653793D01*
X167288722Y-102651267D01*
X167289629Y-102649437D01*
X167290599Y-102647962D01*
X167290646Y-102647897D01*
X167302907Y-102635354D01*
X167303532Y-102634935D01*
X170169291Y-102634935D01*
X170170866Y-102682779D01*
X170176933Y-102726998D01*
X170179833Y-102739702D01*
X170199791Y-102796944D01*
X170228819Y-102850146D01*
X170265842Y-102898225D01*
X170309784Y-102940099D01*
X170359569Y-102974685D01*
X170414121Y-103000899D01*
X170451089Y-103012795D01*
X170483811Y-103018874D01*
X170522977Y-103022281D01*
X170564776Y-103022963D01*
X170605397Y-103020864D01*
X170641029Y-103015932D01*
X170643021Y-103015524D01*
X170689679Y-103001306D01*
X170737042Y-102978766D01*
X170782355Y-102949585D01*
X170822866Y-102915444D01*
X170844305Y-102892593D01*
X170877679Y-102845815D01*
X170904375Y-102792885D01*
X170914103Y-102766813D01*
X170919696Y-102748996D01*
X170923592Y-102733204D01*
X170926097Y-102716816D01*
X170927517Y-102697209D01*
X170928157Y-102671764D01*
X170928315Y-102645104D01*
X170928217Y-102613231D01*
X170927579Y-102589338D01*
X170926103Y-102570828D01*
X170923488Y-102555100D01*
X170919432Y-102539556D01*
X170914243Y-102523396D01*
X170891226Y-102470647D01*
X170859369Y-102421124D01*
X170820093Y-102376098D01*
X170774817Y-102336841D01*
X170724963Y-102304624D01*
X170671950Y-102280718D01*
X170629792Y-102268758D01*
X170586295Y-102263051D01*
X170537972Y-102262424D01*
X170489151Y-102266647D01*
X170444161Y-102275492D01*
X170431354Y-102279238D01*
X170374633Y-102302856D01*
X170322767Y-102335227D01*
X170276752Y-102375297D01*
X170237584Y-102422010D01*
X170206259Y-102474310D01*
X170183772Y-102531143D01*
X170179639Y-102545973D01*
X170172214Y-102587866D01*
X170169291Y-102634935D01*
X167303532Y-102634935D01*
X167318339Y-102625023D01*
X167319227Y-102624590D01*
X167321745Y-102623684D01*
X167325598Y-102622844D01*
X167331169Y-102622067D01*
X167338843Y-102621350D01*
X167349002Y-102620692D01*
X167362032Y-102620089D01*
X167378316Y-102619539D01*
X167398238Y-102619041D01*
X167422182Y-102618591D01*
X167450531Y-102618187D01*
X167483671Y-102617826D01*
X167521984Y-102617507D01*
X167565854Y-102617226D01*
X167615667Y-102616982D01*
X167671804Y-102616772D01*
X167734651Y-102616593D01*
X167804592Y-102616443D01*
X167882010Y-102616320D01*
X167967289Y-102616221D01*
X168060813Y-102616144D01*
X168162966Y-102616086D01*
X168274133Y-102616046D01*
X168394696Y-102616019D01*
X168525040Y-102616005D01*
X168665549Y-102616000D01*
X168678723Y-102616000D01*
X168820192Y-102615996D01*
X168951455Y-102615982D01*
X169072891Y-102615956D01*
X169184878Y-102615916D01*
X169287793Y-102615858D01*
X169382016Y-102615782D01*
X169467924Y-102615684D01*
X169545894Y-102615562D01*
X169616306Y-102615414D01*
X169679536Y-102615237D01*
X169735964Y-102615029D01*
X169785967Y-102614788D01*
X169829923Y-102614511D01*
X169868210Y-102614196D01*
X169901207Y-102613841D01*
X169929291Y-102613443D01*
X169952841Y-102613000D01*
X169972233Y-102612510D01*
X169987848Y-102611970D01*
X170000062Y-102611377D01*
X170009253Y-102610731D01*
X170015800Y-102610027D01*
X170020081Y-102609264D01*
X170022473Y-102608440D01*
X170023330Y-102607630D01*
X170025604Y-102596553D01*
X170026542Y-102581850D01*
X170028429Y-102563250D01*
X170033560Y-102537733D01*
X170041137Y-102508164D01*
X170050365Y-102477408D01*
X170060445Y-102448331D01*
X170070382Y-102424226D01*
X170102886Y-102365145D01*
X170143612Y-102309608D01*
X170191035Y-102259121D01*
X170243630Y-102215186D01*
X170299872Y-102179309D01*
X170336989Y-102161307D01*
X170371345Y-102147323D01*
X170401221Y-102136959D01*
X170429357Y-102129711D01*
X170458490Y-102125076D01*
X170491358Y-102122553D01*
X170530702Y-102121636D01*
X170553062Y-102121621D01*
X170588123Y-102121881D01*
X170588123Y-102121881D01*
G37*
X170588123Y-102121881D02*
X170614873Y-102122486D01*
X170635587Y-102123671D01*
X170652537Y-102125671D01*
X170667996Y-102128718D01*
X170684238Y-102133047D01*
X170694856Y-102136220D01*
X170760528Y-102160253D01*
X170819308Y-102190629D01*
X170873626Y-102228804D01*
X170921466Y-102271783D01*
X170971119Y-102328065D01*
X171011533Y-102389072D01*
X171042448Y-102454274D01*
X171063601Y-102523140D01*
X171073346Y-102580741D01*
X171076937Y-102613231D01*
X171101454Y-102616734D01*
X171130690Y-102624862D01*
X171152888Y-102640261D01*
X171162559Y-102652087D01*
X171163455Y-102653680D01*
X171164293Y-102655965D01*
X171165075Y-102659280D01*
X171165805Y-102663966D01*
X171166482Y-102670365D01*
X171167111Y-102678816D01*
X171167691Y-102689661D01*
X171168225Y-102703239D01*
X171168716Y-102719891D01*
X171169164Y-102739958D01*
X171169572Y-102763780D01*
X171169942Y-102791697D01*
X171170275Y-102824051D01*
X171170574Y-102861182D01*
X171170840Y-102903430D01*
X171171075Y-102951136D01*
X171171281Y-103004640D01*
X171171460Y-103064283D01*
X171171614Y-103130405D01*
X171171745Y-103203348D01*
X171171854Y-103283450D01*
X171171944Y-103371054D01*
X171172017Y-103466499D01*
X171172073Y-103570126D01*
X171172116Y-103682276D01*
X171172146Y-103803289D01*
X171172167Y-103933505D01*
X171172179Y-104073265D01*
X171172186Y-104222911D01*
X171172187Y-104382781D01*
X171172187Y-104391354D01*
X171172186Y-104551685D01*
X171172181Y-104701773D01*
X171172171Y-104841961D01*
X171172153Y-104972590D01*
X171172126Y-105094001D01*
X171172087Y-105206536D01*
X171172035Y-105310536D01*
X171171967Y-105406342D01*
X171171883Y-105494297D01*
X171171779Y-105574741D01*
X171171653Y-105648015D01*
X171171505Y-105714462D01*
X171171331Y-105774423D01*
X171171131Y-105828239D01*
X171170901Y-105876251D01*
X171170640Y-105918801D01*
X171170346Y-105956230D01*
X171170018Y-105988880D01*
X171169652Y-106017093D01*
X171169248Y-106041208D01*
X171168803Y-106061569D01*
X171168315Y-106078516D01*
X171167783Y-106092391D01*
X171167204Y-106103535D01*
X171166576Y-106112290D01*
X171165898Y-106118997D01*
X171165167Y-106123997D01*
X171164382Y-106127632D01*
X171163540Y-106130243D01*
X171162640Y-106132172D01*
X171162210Y-106132918D01*
X171151008Y-106146948D01*
X171137851Y-106157892D01*
X171137581Y-106158054D01*
X171135725Y-106158824D01*
X171132632Y-106159548D01*
X171127982Y-106160226D01*
X171121453Y-106160861D01*
X171112724Y-106161452D01*
X171101473Y-106162002D01*
X171087379Y-106162513D01*
X171070121Y-106162985D01*
X171049378Y-106163421D01*
X171024828Y-106163820D01*
X170996149Y-106164186D01*
X170963021Y-106164519D01*
X170925122Y-106164821D01*
X170882131Y-106165094D01*
X170833726Y-106165338D01*
X170779587Y-106165555D01*
X170719391Y-106165746D01*
X170652818Y-106165914D01*
X170579546Y-106166059D01*
X170499254Y-106166182D01*
X170411621Y-106166286D01*
X170316324Y-106166372D01*
X170213044Y-106166441D01*
X170101458Y-106166494D01*
X169981246Y-106166533D01*
X169852085Y-106166560D01*
X169713655Y-106166575D01*
X169565635Y-106166581D01*
X169407702Y-106166578D01*
X169239536Y-106166569D01*
X169224038Y-106166568D01*
X169054923Y-106166553D01*
X168896071Y-106166532D01*
X168747159Y-106166505D01*
X168607869Y-106166470D01*
X168477877Y-106166425D01*
X168356863Y-106166368D01*
X168244507Y-106166299D01*
X168140487Y-106166216D01*
X168044482Y-106166117D01*
X167956170Y-106166002D01*
X167875232Y-106165867D01*
X167801346Y-106165713D01*
X167734191Y-106165537D01*
X167673445Y-106165338D01*
X167618789Y-106165115D01*
X167569900Y-106164866D01*
X167526458Y-106164589D01*
X167488142Y-106164284D01*
X167454630Y-106163948D01*
X167425603Y-106163581D01*
X167400738Y-106163180D01*
X167379714Y-106162745D01*
X167362211Y-106162273D01*
X167347908Y-106161764D01*
X167336483Y-106161215D01*
X167327616Y-106160626D01*
X167320985Y-106159995D01*
X167316269Y-106159320D01*
X167313148Y-106158600D01*
X167311300Y-106157834D01*
X167311243Y-106157799D01*
X167298085Y-106146583D01*
X167288754Y-106134634D01*
X167287953Y-106132696D01*
X167287204Y-106129457D01*
X167286503Y-106124580D01*
X167285851Y-106117729D01*
X167285244Y-106108567D01*
X167284681Y-106096757D01*
X167284162Y-106081963D01*
X167283683Y-106063849D01*
X167283244Y-106042077D01*
X167282842Y-106016312D01*
X167282476Y-105986217D01*
X167282145Y-105951454D01*
X167281846Y-105911688D01*
X167281579Y-105866582D01*
X167281341Y-105815800D01*
X167281131Y-105759004D01*
X167280946Y-105695858D01*
X167280787Y-105626027D01*
X167280649Y-105549172D01*
X167280534Y-105464958D01*
X167280437Y-105373048D01*
X167280358Y-105273106D01*
X167280296Y-105164794D01*
X167280248Y-105047777D01*
X167280213Y-104921717D01*
X167280189Y-104786279D01*
X167280174Y-104641125D01*
X167280167Y-104485919D01*
X167280167Y-104230916D01*
X167280170Y-104080720D01*
X167280178Y-103940426D01*
X167280193Y-103809692D01*
X167280216Y-103688177D01*
X167280250Y-103575542D01*
X167280297Y-103471444D01*
X167280359Y-103375542D01*
X167280437Y-103287497D01*
X167280535Y-103206966D01*
X167280654Y-103133610D01*
X167280795Y-103067086D01*
X167280901Y-103028750D01*
X167502295Y-103028750D01*
X167527028Y-103059116D01*
X167553599Y-103097776D01*
X167576295Y-103142617D01*
X167593048Y-103189392D01*
X167596063Y-103200881D01*
X167597077Y-103205660D01*
X167598015Y-103211557D01*
X167598880Y-103218996D01*
X167599675Y-103228402D01*
X167600405Y-103240200D01*
X167601074Y-103254812D01*
X167601686Y-103272664D01*
X167602243Y-103294181D01*
X167602751Y-103319786D01*
X167603213Y-103349904D01*
X167603634Y-103384959D01*
X167604015Y-103425376D01*
X167604363Y-103471578D01*
X167604680Y-103523992D01*
X167604971Y-103583040D01*
X167605239Y-103649147D01*
X167605488Y-103722737D01*
X167605722Y-103804235D01*
X167605945Y-103894066D01*
X167606161Y-103992653D01*
X167606374Y-104100421D01*
X167606587Y-104217795D01*
X167606804Y-104345198D01*
X167606872Y-104386063D01*
X167607064Y-104517713D01*
X167607197Y-104643812D01*
X167607272Y-104764013D01*
X167607290Y-104877972D01*
X167607252Y-104985345D01*
X167607159Y-105085788D01*
X167607012Y-105178955D01*
X167606812Y-105264502D01*
X167606559Y-105342084D01*
X167606254Y-105411357D01*
X167605899Y-105471977D01*
X167605494Y-105523599D01*
X167605041Y-105565877D01*
X167604539Y-105598469D01*
X167603990Y-105621028D01*
X167603639Y-105629604D01*
X167601419Y-105666840D01*
X167599098Y-105695667D01*
X167596380Y-105718256D01*
X167592969Y-105736779D01*
X167588569Y-105753410D01*
X167585417Y-105763127D01*
X167567562Y-105807123D01*
X167545653Y-105844883D01*
X167526465Y-105870093D01*
X167516157Y-105882787D01*
X167509344Y-105891857D01*
X167507708Y-105894688D01*
X167512871Y-105895015D01*
X167527841Y-105895327D01*
X167551846Y-105895620D01*
X167584108Y-105895890D01*
X167623853Y-105896134D01*
X167670307Y-105896347D01*
X167722694Y-105896527D01*
X167780239Y-105896668D01*
X167842168Y-105896769D01*
X167907704Y-105896824D01*
X167949875Y-105896834D01*
X168031187Y-105896805D01*
X168102479Y-105896714D01*
X168164314Y-105896552D01*
X168217254Y-105896311D01*
X168261862Y-105895981D01*
X168298702Y-105895556D01*
X168328335Y-105895025D01*
X168351326Y-105894380D01*
X168368237Y-105893614D01*
X168379630Y-105892717D01*
X168386069Y-105891681D01*
X168388116Y-105890498D01*
X168388034Y-105890219D01*
X168382861Y-105882355D01*
X168373914Y-105869321D01*
X168367249Y-105859792D01*
X168351156Y-105832312D01*
X168335424Y-105796858D01*
X168321039Y-105756017D01*
X168308985Y-105712379D01*
X168305814Y-105698396D01*
X168303799Y-105688715D01*
X168302033Y-105679185D01*
X168300495Y-105669058D01*
X168299164Y-105657586D01*
X168298022Y-105644022D01*
X168297047Y-105627619D01*
X168296219Y-105607629D01*
X168295519Y-105583305D01*
X168294926Y-105553900D01*
X168294419Y-105518665D01*
X168293980Y-105476855D01*
X168293587Y-105427720D01*
X168293221Y-105370515D01*
X168292861Y-105304491D01*
X168292487Y-105228901D01*
X168292344Y-105199107D01*
X168291999Y-105114041D01*
X168291812Y-105037334D01*
X168291779Y-104969245D01*
X168291900Y-104910033D01*
X168292173Y-104859957D01*
X168292596Y-104819275D01*
X168293167Y-104788247D01*
X168293885Y-104767132D01*
X168294747Y-104756189D01*
X168295318Y-104754607D01*
X168299143Y-104759055D01*
X168308672Y-104771336D01*
X168323377Y-104790729D01*
X168342729Y-104816514D01*
X168366197Y-104847972D01*
X168393254Y-104884381D01*
X168423370Y-104925023D01*
X168456015Y-104969177D01*
X168490661Y-105016122D01*
X168526778Y-105065140D01*
X168563836Y-105115510D01*
X168601308Y-105166512D01*
X168638663Y-105217425D01*
X168675372Y-105267531D01*
X168710906Y-105316108D01*
X168744736Y-105362437D01*
X168776332Y-105405798D01*
X168805166Y-105445471D01*
X168830708Y-105480735D01*
X168852429Y-105510871D01*
X168869800Y-105535159D01*
X168882291Y-105552878D01*
X168886017Y-105558279D01*
X168916778Y-105605486D01*
X168944157Y-105651705D01*
X168966924Y-105694740D01*
X168983852Y-105732392D01*
X168985045Y-105735438D01*
X168990502Y-105751143D01*
X168994091Y-105766463D01*
X168996177Y-105784279D01*
X168997126Y-105807468D01*
X168997312Y-105832012D01*
X168997312Y-105896837D01*
X169482959Y-105896835D01*
X169968605Y-105896834D01*
X169965170Y-105893877D01*
X170137667Y-105893877D01*
X170142825Y-105894342D01*
X170157767Y-105894784D01*
X170181693Y-105895198D01*
X170213804Y-105895578D01*
X170253299Y-105895919D01*
X170299379Y-105896214D01*
X170351245Y-105896459D01*
X170408097Y-105896647D01*
X170469135Y-105896772D01*
X170533559Y-105896830D01*
X170553027Y-105896834D01*
X170968388Y-105896834D01*
X170949090Y-105871698D01*
X170925445Y-105834803D01*
X170905107Y-105790818D01*
X170895284Y-105762750D01*
X170894238Y-105758626D01*
X170893277Y-105752989D01*
X170892396Y-105745383D01*
X170891593Y-105735353D01*
X170890860Y-105722444D01*
X170890195Y-105706199D01*
X170889593Y-105686165D01*
X170889048Y-105661884D01*
X170888556Y-105632903D01*
X170888113Y-105598765D01*
X170887714Y-105559015D01*
X170887354Y-105513198D01*
X170887029Y-105460858D01*
X170886734Y-105401541D01*
X170886465Y-105334790D01*
X170886216Y-105260150D01*
X170885984Y-105177166D01*
X170885763Y-105085383D01*
X170885549Y-104984345D01*
X170885338Y-104873596D01*
X170885142Y-104763094D01*
X170883469Y-103790750D01*
X170510255Y-103790750D01*
X170435948Y-103790784D01*
X170371613Y-103790894D01*
X170316642Y-103791089D01*
X170270422Y-103791382D01*
X170232346Y-103791784D01*
X170201801Y-103792304D01*
X170178178Y-103792954D01*
X170160867Y-103793745D01*
X170149258Y-103794688D01*
X170142740Y-103795794D01*
X170140703Y-103797074D01*
X170140787Y-103797365D01*
X170147058Y-103806286D01*
X170153890Y-103814563D01*
X170163522Y-103828397D01*
X170174942Y-103849141D01*
X170186671Y-103873634D01*
X170197231Y-103898720D01*
X170205144Y-103921238D01*
X170207117Y-103928334D01*
X170208131Y-103937701D01*
X170209078Y-103956969D01*
X170209957Y-103985456D01*
X170210768Y-104022481D01*
X170211511Y-104067362D01*
X170212187Y-104119417D01*
X170212795Y-104177965D01*
X170213336Y-104242324D01*
X170213809Y-104311814D01*
X170214215Y-104385751D01*
X170214553Y-104463456D01*
X170214824Y-104544245D01*
X170215027Y-104627439D01*
X170215163Y-104712354D01*
X170215231Y-104798311D01*
X170215231Y-104884626D01*
X170215164Y-104970619D01*
X170215030Y-105055608D01*
X170214828Y-105138911D01*
X170214559Y-105219848D01*
X170214222Y-105297735D01*
X170213818Y-105371893D01*
X170213346Y-105441639D01*
X170212807Y-105506292D01*
X170212201Y-105565170D01*
X170211527Y-105617592D01*
X170210786Y-105662876D01*
X170209978Y-105700341D01*
X170209102Y-105729304D01*
X170208159Y-105749086D01*
X170207148Y-105759003D01*
X170207090Y-105759250D01*
X170196932Y-105790504D01*
X170182401Y-105823464D01*
X170165641Y-105853665D01*
X170153245Y-105871388D01*
X170144056Y-105883482D01*
X170138461Y-105891951D01*
X170137667Y-105893877D01*
X169965170Y-105893877D01*
X169931801Y-105865157D01*
X169913910Y-105848450D01*
X169890808Y-105824864D01*
X169863796Y-105795862D01*
X169834177Y-105762907D01*
X169803255Y-105727462D01*
X169772331Y-105690988D01*
X169742708Y-105654948D01*
X169726696Y-105634896D01*
X169719120Y-105624945D01*
X169705728Y-105606958D01*
X169686913Y-105581471D01*
X169663065Y-105549020D01*
X169634576Y-105510141D01*
X169601837Y-105465370D01*
X169565240Y-105415244D01*
X169525176Y-105360299D01*
X169482035Y-105301070D01*
X169436210Y-105238095D01*
X169388091Y-105171909D01*
X169338071Y-105103048D01*
X169286539Y-105032049D01*
X169252024Y-104984462D01*
X168814919Y-104381654D01*
X168832446Y-104360046D01*
X168837923Y-104353260D01*
X168849613Y-104338747D01*
X168867101Y-104317028D01*
X168889965Y-104288621D01*
X168917789Y-104254047D01*
X168950154Y-104213826D01*
X168986642Y-104168479D01*
X169026833Y-104118524D01*
X169070311Y-104064482D01*
X169116656Y-104006874D01*
X169165449Y-103946218D01*
X169216274Y-103883035D01*
X169267094Y-103819854D01*
X169320050Y-103754049D01*
X169371764Y-103689847D01*
X169421785Y-103627808D01*
X169469658Y-103568492D01*
X169514930Y-103512457D01*
X169557148Y-103460265D01*
X169595859Y-103412474D01*
X169630610Y-103369643D01*
X169660947Y-103332333D01*
X169686418Y-103301103D01*
X169706568Y-103276512D01*
X169720946Y-103259120D01*
X169728477Y-103250199D01*
X169755620Y-103219994D01*
X169786031Y-103188032D01*
X169818087Y-103155862D01*
X169850166Y-103125035D01*
X169880643Y-103097098D01*
X169907898Y-103073603D01*
X169930306Y-103056098D01*
X169935674Y-103052359D01*
X169970866Y-103028750D01*
X169011092Y-103028750D01*
X169016777Y-103045057D01*
X169019316Y-103058657D01*
X169020442Y-103078419D01*
X169019946Y-103099297D01*
X169013976Y-103137145D01*
X169000683Y-103178437D01*
X168979769Y-103223788D01*
X168950938Y-103273810D01*
X168913891Y-103329118D01*
X168897677Y-103351542D01*
X168888439Y-103363779D01*
X168873704Y-103382902D01*
X168854037Y-103408195D01*
X168830005Y-103438944D01*
X168802175Y-103474434D01*
X168771112Y-103513950D01*
X168737382Y-103556777D01*
X168701552Y-103602201D01*
X168664189Y-103649507D01*
X168625858Y-103697980D01*
X168587125Y-103746906D01*
X168548557Y-103795569D01*
X168510721Y-103843255D01*
X168474181Y-103889250D01*
X168439506Y-103932837D01*
X168407260Y-103973303D01*
X168378011Y-104009933D01*
X168352323Y-104042012D01*
X168330765Y-104068825D01*
X168313901Y-104089658D01*
X168302298Y-104103796D01*
X168296523Y-104110523D01*
X168296038Y-104110975D01*
X168295023Y-104106509D01*
X168294119Y-104092436D01*
X168293325Y-104069735D01*
X168292641Y-104039383D01*
X168292066Y-104002356D01*
X168291600Y-103959631D01*
X168291241Y-103912187D01*
X168290990Y-103860999D01*
X168290844Y-103807045D01*
X168290805Y-103751302D01*
X168290871Y-103694748D01*
X168291042Y-103638358D01*
X168291316Y-103583111D01*
X168291694Y-103529983D01*
X168292175Y-103479952D01*
X168292757Y-103433994D01*
X168293441Y-103393086D01*
X168294226Y-103358206D01*
X168295111Y-103330331D01*
X168296095Y-103310438D01*
X168296564Y-103304423D01*
X168305912Y-103236022D01*
X168320390Y-103174173D01*
X168339702Y-103119790D01*
X168363554Y-103073786D01*
X168377341Y-103053886D01*
X168396638Y-103028750D01*
X167502295Y-103028750D01*
X167280901Y-103028750D01*
X167280962Y-103007054D01*
X167281156Y-102953174D01*
X167281380Y-102905104D01*
X167281634Y-102862503D01*
X167281922Y-102825030D01*
X167282245Y-102792345D01*
X167282606Y-102764106D01*
X167283006Y-102739973D01*
X167283448Y-102719604D01*
X167283933Y-102702659D01*
X167284464Y-102688797D01*
X167285042Y-102677676D01*
X167285671Y-102668956D01*
X167286351Y-102662296D01*
X167287084Y-102657356D01*
X167287874Y-102653793D01*
X167288722Y-102651267D01*
X167289629Y-102649437D01*
X167290599Y-102647962D01*
X167290646Y-102647897D01*
X167302907Y-102635354D01*
X167303532Y-102634935D01*
X170169291Y-102634935D01*
X170170866Y-102682779D01*
X170176933Y-102726998D01*
X170179833Y-102739702D01*
X170199791Y-102796944D01*
X170228819Y-102850146D01*
X170265842Y-102898225D01*
X170309784Y-102940099D01*
X170359569Y-102974685D01*
X170414121Y-103000899D01*
X170451089Y-103012795D01*
X170483811Y-103018874D01*
X170522977Y-103022281D01*
X170564776Y-103022963D01*
X170605397Y-103020864D01*
X170641029Y-103015932D01*
X170643021Y-103015524D01*
X170689679Y-103001306D01*
X170737042Y-102978766D01*
X170782355Y-102949585D01*
X170822866Y-102915444D01*
X170844305Y-102892593D01*
X170877679Y-102845815D01*
X170904375Y-102792885D01*
X170914103Y-102766813D01*
X170919696Y-102748996D01*
X170923592Y-102733204D01*
X170926097Y-102716816D01*
X170927517Y-102697209D01*
X170928157Y-102671764D01*
X170928315Y-102645104D01*
X170928217Y-102613231D01*
X170927579Y-102589338D01*
X170926103Y-102570828D01*
X170923488Y-102555100D01*
X170919432Y-102539556D01*
X170914243Y-102523396D01*
X170891226Y-102470647D01*
X170859369Y-102421124D01*
X170820093Y-102376098D01*
X170774817Y-102336841D01*
X170724963Y-102304624D01*
X170671950Y-102280718D01*
X170629792Y-102268758D01*
X170586295Y-102263051D01*
X170537972Y-102262424D01*
X170489151Y-102266647D01*
X170444161Y-102275492D01*
X170431354Y-102279238D01*
X170374633Y-102302856D01*
X170322767Y-102335227D01*
X170276752Y-102375297D01*
X170237584Y-102422010D01*
X170206259Y-102474310D01*
X170183772Y-102531143D01*
X170179639Y-102545973D01*
X170172214Y-102587866D01*
X170169291Y-102634935D01*
X167303532Y-102634935D01*
X167318339Y-102625023D01*
X167319227Y-102624590D01*
X167321745Y-102623684D01*
X167325598Y-102622844D01*
X167331169Y-102622067D01*
X167338843Y-102621350D01*
X167349002Y-102620692D01*
X167362032Y-102620089D01*
X167378316Y-102619539D01*
X167398238Y-102619041D01*
X167422182Y-102618591D01*
X167450531Y-102618187D01*
X167483671Y-102617826D01*
X167521984Y-102617507D01*
X167565854Y-102617226D01*
X167615667Y-102616982D01*
X167671804Y-102616772D01*
X167734651Y-102616593D01*
X167804592Y-102616443D01*
X167882010Y-102616320D01*
X167967289Y-102616221D01*
X168060813Y-102616144D01*
X168162966Y-102616086D01*
X168274133Y-102616046D01*
X168394696Y-102616019D01*
X168525040Y-102616005D01*
X168665549Y-102616000D01*
X168678723Y-102616000D01*
X168820192Y-102615996D01*
X168951455Y-102615982D01*
X169072891Y-102615956D01*
X169184878Y-102615916D01*
X169287793Y-102615858D01*
X169382016Y-102615782D01*
X169467924Y-102615684D01*
X169545894Y-102615562D01*
X169616306Y-102615414D01*
X169679536Y-102615237D01*
X169735964Y-102615029D01*
X169785967Y-102614788D01*
X169829923Y-102614511D01*
X169868210Y-102614196D01*
X169901207Y-102613841D01*
X169929291Y-102613443D01*
X169952841Y-102613000D01*
X169972233Y-102612510D01*
X169987848Y-102611970D01*
X170000062Y-102611377D01*
X170009253Y-102610731D01*
X170015800Y-102610027D01*
X170020081Y-102609264D01*
X170022473Y-102608440D01*
X170023330Y-102607630D01*
X170025604Y-102596553D01*
X170026542Y-102581850D01*
X170028429Y-102563250D01*
X170033560Y-102537733D01*
X170041137Y-102508164D01*
X170050365Y-102477408D01*
X170060445Y-102448331D01*
X170070382Y-102424226D01*
X170102886Y-102365145D01*
X170143612Y-102309608D01*
X170191035Y-102259121D01*
X170243630Y-102215186D01*
X170299872Y-102179309D01*
X170336989Y-102161307D01*
X170371345Y-102147323D01*
X170401221Y-102136959D01*
X170429357Y-102129711D01*
X170458490Y-102125076D01*
X170491358Y-102122553D01*
X170530702Y-102121636D01*
X170553062Y-102121621D01*
X170588123Y-102121881D01*
G36*
X172845090Y-102990010D02*
X172958753Y-103007933D01*
X173072741Y-103036130D01*
X173186629Y-103074689D01*
X173190958Y-103076363D01*
X173211699Y-103084969D01*
X173239744Y-103097399D01*
X173272968Y-103112670D01*
X173309249Y-103129797D01*
X173346462Y-103147796D01*
X173368229Y-103158542D01*
X173402981Y-103175566D01*
X173436232Y-103191341D01*
X173466314Y-103205116D01*
X173491557Y-103216137D01*
X173510293Y-103223652D01*
X173519042Y-103226529D01*
X173536951Y-103232336D01*
X173546421Y-103238272D01*
X173547553Y-103241139D01*
X173544535Y-103246659D01*
X173536139Y-103259881D01*
X173523025Y-103279845D01*
X173505851Y-103305593D01*
X173485275Y-103336167D01*
X173461954Y-103370607D01*
X173436548Y-103407955D01*
X173409714Y-103447252D01*
X173382110Y-103487539D01*
X173354395Y-103527858D01*
X173327228Y-103567249D01*
X173301265Y-103604754D01*
X173277165Y-103639414D01*
X173255587Y-103670270D01*
X173237189Y-103696363D01*
X173222628Y-103716736D01*
X173212564Y-103730428D01*
X173207653Y-103736481D01*
X173207371Y-103736685D01*
X173202260Y-103733694D01*
X173191448Y-103724447D01*
X173176511Y-103710371D01*
X173159025Y-103692894D01*
X173158686Y-103692546D01*
X173102595Y-103641498D01*
X173042966Y-103600080D01*
X172979331Y-103568113D01*
X172911219Y-103545418D01*
X172838162Y-103531818D01*
X172759689Y-103527133D01*
X172725395Y-103527766D01*
X172648941Y-103534996D01*
X172578849Y-103550533D01*
X172514593Y-103574647D01*
X172455650Y-103607608D01*
X172401492Y-103649688D01*
X172351596Y-103701155D01*
X172325690Y-103733682D01*
X172282238Y-103799850D01*
X172243750Y-103875022D01*
X172210378Y-103958777D01*
X172182272Y-104050694D01*
X172159584Y-104150351D01*
X172145079Y-104237896D01*
X172141473Y-104271467D01*
X172138672Y-104313508D01*
X172136675Y-104361935D01*
X172135484Y-104414665D01*
X172135099Y-104469615D01*
X172135518Y-104524702D01*
X172136742Y-104577843D01*
X172138772Y-104626955D01*
X172141606Y-104669954D01*
X172145086Y-104703563D01*
X172162283Y-104807489D01*
X172185376Y-104902780D01*
X172214453Y-104989649D01*
X172249607Y-105068310D01*
X172290927Y-105138979D01*
X172338504Y-105201868D01*
X172370130Y-105235995D01*
X172429605Y-105288686D01*
X172492561Y-105331410D01*
X172558760Y-105364108D01*
X172627963Y-105386722D01*
X172699933Y-105399191D01*
X172774430Y-105401459D01*
X172851216Y-105393464D01*
X172930053Y-105375150D01*
X172931667Y-105374673D01*
X173004985Y-105347438D01*
X173076468Y-105309867D01*
X173145920Y-105262079D01*
X173213145Y-105204191D01*
X173214006Y-105203370D01*
X173269425Y-105150458D01*
X173293267Y-105188948D01*
X173311116Y-105217845D01*
X173331784Y-105251446D01*
X173354683Y-105288784D01*
X173379225Y-105328891D01*
X173404822Y-105370801D01*
X173430886Y-105413545D01*
X173456829Y-105456156D01*
X173482063Y-105497666D01*
X173506000Y-105537109D01*
X173528052Y-105573516D01*
X173547631Y-105605921D01*
X173564148Y-105633355D01*
X173577017Y-105654852D01*
X173585648Y-105669443D01*
X173589455Y-105676162D01*
X173589584Y-105676470D01*
X173585558Y-105680532D01*
X173574316Y-105685732D01*
X173566667Y-105688352D01*
X173554198Y-105693259D01*
X173534507Y-105702270D01*
X173509644Y-105714392D01*
X173481658Y-105728629D01*
X173458187Y-105740986D01*
X173391837Y-105775857D01*
X173332741Y-105805501D01*
X173279354Y-105830571D01*
X173230130Y-105851720D01*
X173183525Y-105869603D01*
X173137993Y-105884873D01*
X173091990Y-105898183D01*
X173077758Y-105901920D01*
X172994555Y-105920255D01*
X172905940Y-105934269D01*
X172815337Y-105943625D01*
X172726167Y-105947987D01*
X172641855Y-105947017D01*
X172627396Y-105946246D01*
X172508300Y-105934505D01*
X172395059Y-105913963D01*
X172287537Y-105884539D01*
X172185599Y-105846157D01*
X172089110Y-105798738D01*
X171997935Y-105742203D01*
X171911939Y-105676474D01*
X171830986Y-105601472D01*
X171754940Y-105517119D01*
X171683668Y-105423337D01*
X171656351Y-105382991D01*
X171596428Y-105282486D01*
X171544714Y-105176253D01*
X171501101Y-105063980D01*
X171465480Y-104945352D01*
X171437743Y-104820053D01*
X171418087Y-104690334D01*
X171415208Y-104659415D01*
X171412825Y-104620204D01*
X171410969Y-104574981D01*
X171409675Y-104526029D01*
X171408977Y-104475627D01*
X171408908Y-104426056D01*
X171409501Y-104379599D01*
X171410791Y-104338535D01*
X171412478Y-104309334D01*
X171426528Y-104177700D01*
X171448276Y-104053124D01*
X171477880Y-103935238D01*
X171515498Y-103823675D01*
X171561286Y-103718067D01*
X171615402Y-103618046D01*
X171678005Y-103523245D01*
X171749250Y-103433295D01*
X171820414Y-103356663D01*
X171907311Y-103276646D01*
X171998808Y-103206030D01*
X172094477Y-103144902D01*
X172193892Y-103093349D01*
X172296624Y-103051459D01*
X172402246Y-103019319D01*
X172510331Y-102997017D01*
X172620452Y-102984640D01*
X172732180Y-102982275D01*
X172845090Y-102990010D01*
X172845090Y-102990010D01*
G37*
X172845090Y-102990010D02*
X172958753Y-103007933D01*
X173072741Y-103036130D01*
X173186629Y-103074689D01*
X173190958Y-103076363D01*
X173211699Y-103084969D01*
X173239744Y-103097399D01*
X173272968Y-103112670D01*
X173309249Y-103129797D01*
X173346462Y-103147796D01*
X173368229Y-103158542D01*
X173402981Y-103175566D01*
X173436232Y-103191341D01*
X173466314Y-103205116D01*
X173491557Y-103216137D01*
X173510293Y-103223652D01*
X173519042Y-103226529D01*
X173536951Y-103232336D01*
X173546421Y-103238272D01*
X173547553Y-103241139D01*
X173544535Y-103246659D01*
X173536139Y-103259881D01*
X173523025Y-103279845D01*
X173505851Y-103305593D01*
X173485275Y-103336167D01*
X173461954Y-103370607D01*
X173436548Y-103407955D01*
X173409714Y-103447252D01*
X173382110Y-103487539D01*
X173354395Y-103527858D01*
X173327228Y-103567249D01*
X173301265Y-103604754D01*
X173277165Y-103639414D01*
X173255587Y-103670270D01*
X173237189Y-103696363D01*
X173222628Y-103716736D01*
X173212564Y-103730428D01*
X173207653Y-103736481D01*
X173207371Y-103736685D01*
X173202260Y-103733694D01*
X173191448Y-103724447D01*
X173176511Y-103710371D01*
X173159025Y-103692894D01*
X173158686Y-103692546D01*
X173102595Y-103641498D01*
X173042966Y-103600080D01*
X172979331Y-103568113D01*
X172911219Y-103545418D01*
X172838162Y-103531818D01*
X172759689Y-103527133D01*
X172725395Y-103527766D01*
X172648941Y-103534996D01*
X172578849Y-103550533D01*
X172514593Y-103574647D01*
X172455650Y-103607608D01*
X172401492Y-103649688D01*
X172351596Y-103701155D01*
X172325690Y-103733682D01*
X172282238Y-103799850D01*
X172243750Y-103875022D01*
X172210378Y-103958777D01*
X172182272Y-104050694D01*
X172159584Y-104150351D01*
X172145079Y-104237896D01*
X172141473Y-104271467D01*
X172138672Y-104313508D01*
X172136675Y-104361935D01*
X172135484Y-104414665D01*
X172135099Y-104469615D01*
X172135518Y-104524702D01*
X172136742Y-104577843D01*
X172138772Y-104626955D01*
X172141606Y-104669954D01*
X172145086Y-104703563D01*
X172162283Y-104807489D01*
X172185376Y-104902780D01*
X172214453Y-104989649D01*
X172249607Y-105068310D01*
X172290927Y-105138979D01*
X172338504Y-105201868D01*
X172370130Y-105235995D01*
X172429605Y-105288686D01*
X172492561Y-105331410D01*
X172558760Y-105364108D01*
X172627963Y-105386722D01*
X172699933Y-105399191D01*
X172774430Y-105401459D01*
X172851216Y-105393464D01*
X172930053Y-105375150D01*
X172931667Y-105374673D01*
X173004985Y-105347438D01*
X173076468Y-105309867D01*
X173145920Y-105262079D01*
X173213145Y-105204191D01*
X173214006Y-105203370D01*
X173269425Y-105150458D01*
X173293267Y-105188948D01*
X173311116Y-105217845D01*
X173331784Y-105251446D01*
X173354683Y-105288784D01*
X173379225Y-105328891D01*
X173404822Y-105370801D01*
X173430886Y-105413545D01*
X173456829Y-105456156D01*
X173482063Y-105497666D01*
X173506000Y-105537109D01*
X173528052Y-105573516D01*
X173547631Y-105605921D01*
X173564148Y-105633355D01*
X173577017Y-105654852D01*
X173585648Y-105669443D01*
X173589455Y-105676162D01*
X173589584Y-105676470D01*
X173585558Y-105680532D01*
X173574316Y-105685732D01*
X173566667Y-105688352D01*
X173554198Y-105693259D01*
X173534507Y-105702270D01*
X173509644Y-105714392D01*
X173481658Y-105728629D01*
X173458187Y-105740986D01*
X173391837Y-105775857D01*
X173332741Y-105805501D01*
X173279354Y-105830571D01*
X173230130Y-105851720D01*
X173183525Y-105869603D01*
X173137993Y-105884873D01*
X173091990Y-105898183D01*
X173077758Y-105901920D01*
X172994555Y-105920255D01*
X172905940Y-105934269D01*
X172815337Y-105943625D01*
X172726167Y-105947987D01*
X172641855Y-105947017D01*
X172627396Y-105946246D01*
X172508300Y-105934505D01*
X172395059Y-105913963D01*
X172287537Y-105884539D01*
X172185599Y-105846157D01*
X172089110Y-105798738D01*
X171997935Y-105742203D01*
X171911939Y-105676474D01*
X171830986Y-105601472D01*
X171754940Y-105517119D01*
X171683668Y-105423337D01*
X171656351Y-105382991D01*
X171596428Y-105282486D01*
X171544714Y-105176253D01*
X171501101Y-105063980D01*
X171465480Y-104945352D01*
X171437743Y-104820053D01*
X171418087Y-104690334D01*
X171415208Y-104659415D01*
X171412825Y-104620204D01*
X171410969Y-104574981D01*
X171409675Y-104526029D01*
X171408977Y-104475627D01*
X171408908Y-104426056D01*
X171409501Y-104379599D01*
X171410791Y-104338535D01*
X171412478Y-104309334D01*
X171426528Y-104177700D01*
X171448276Y-104053124D01*
X171477880Y-103935238D01*
X171515498Y-103823675D01*
X171561286Y-103718067D01*
X171615402Y-103618046D01*
X171678005Y-103523245D01*
X171749250Y-103433295D01*
X171820414Y-103356663D01*
X171907311Y-103276646D01*
X171998808Y-103206030D01*
X172094477Y-103144902D01*
X172193892Y-103093349D01*
X172296624Y-103051459D01*
X172402246Y-103019319D01*
X172510331Y-102997017D01*
X172620452Y-102984640D01*
X172732180Y-102982275D01*
X172845090Y-102990010D01*
G36*
X174837664Y-103747499D02*
X174914115Y-103751688D01*
X174984856Y-103759030D01*
X175002732Y-103761579D01*
X175096090Y-103779887D01*
X175181797Y-103805210D01*
X175259768Y-103837488D01*
X175329917Y-103876664D01*
X175392157Y-103922678D01*
X175446401Y-103975471D01*
X175492563Y-104034985D01*
X175530556Y-104101160D01*
X175543858Y-104130454D01*
X175556872Y-104164434D01*
X175570248Y-104204728D01*
X175582745Y-104247189D01*
X175593121Y-104287670D01*
X175598569Y-104313193D01*
X175601897Y-104330861D01*
X175604885Y-104347190D01*
X175607553Y-104362824D01*
X175609924Y-104378409D01*
X175612020Y-104394590D01*
X175613862Y-104412012D01*
X175615473Y-104431321D01*
X175616873Y-104453162D01*
X175618086Y-104478181D01*
X175619133Y-104507023D01*
X175620035Y-104540333D01*
X175620814Y-104578757D01*
X175621493Y-104622940D01*
X175622094Y-104673528D01*
X175622637Y-104731165D01*
X175623145Y-104796498D01*
X175623640Y-104870171D01*
X175624143Y-104952830D01*
X175624677Y-105045121D01*
X175624948Y-105092500D01*
X175625510Y-105188993D01*
X175626041Y-105275475D01*
X175626553Y-105352517D01*
X175627056Y-105420691D01*
X175627561Y-105480568D01*
X175628078Y-105532720D01*
X175628617Y-105577719D01*
X175629189Y-105616137D01*
X175629806Y-105648546D01*
X175630476Y-105675516D01*
X175631211Y-105697620D01*
X175632022Y-105715429D01*
X175632918Y-105729515D01*
X175633911Y-105740451D01*
X175635011Y-105748806D01*
X175636229Y-105755154D01*
X175637246Y-105759010D01*
X175649430Y-105792636D01*
X175665386Y-105826674D01*
X175683120Y-105857209D01*
X175696770Y-105875915D01*
X175706940Y-105888451D01*
X175713589Y-105897346D01*
X175715083Y-105899980D01*
X175709934Y-105900340D01*
X175695058Y-105900682D01*
X175671310Y-105900999D01*
X175639547Y-105901287D01*
X175600625Y-105901541D01*
X175555399Y-105901756D01*
X175504725Y-105901926D01*
X175449461Y-105902047D01*
X175390461Y-105902113D01*
X175352604Y-105902125D01*
X174990125Y-105902125D01*
X174990125Y-105742313D01*
X174960804Y-105769110D01*
X174904558Y-105814067D01*
X174840657Y-105853694D01*
X174771081Y-105887046D01*
X174697808Y-105913178D01*
X174622817Y-105931144D01*
X174621078Y-105931456D01*
X174600610Y-105934247D01*
X174573086Y-105936816D01*
X174540903Y-105939062D01*
X174506459Y-105940882D01*
X174472153Y-105942174D01*
X174440381Y-105942835D01*
X174413542Y-105942763D01*
X174394034Y-105941855D01*
X174389521Y-105941341D01*
X174324633Y-105930882D01*
X174268216Y-105919326D01*
X174218167Y-105906079D01*
X174172384Y-105890549D01*
X174128767Y-105872139D01*
X174106417Y-105861319D01*
X174051707Y-105831418D01*
X174004207Y-105800045D01*
X173960582Y-105764826D01*
X173929378Y-105735438D01*
X173875883Y-105674828D01*
X173830861Y-105608026D01*
X173794427Y-105535330D01*
X173766693Y-105457038D01*
X173747775Y-105373449D01*
X173737787Y-105284863D01*
X173736683Y-105248405D01*
X174377802Y-105248405D01*
X174384538Y-105295110D01*
X174398755Y-105335148D01*
X174418357Y-105366516D01*
X174446342Y-105396286D01*
X174480508Y-105422785D01*
X174518655Y-105444344D01*
X174558583Y-105459291D01*
X174564146Y-105460750D01*
X174588078Y-105464669D01*
X174619045Y-105466875D01*
X174653640Y-105467378D01*
X174688455Y-105466187D01*
X174720084Y-105463312D01*
X174738771Y-105460248D01*
X174787341Y-105445261D01*
X174834365Y-105421746D01*
X174877529Y-105391275D01*
X174914517Y-105355422D01*
X174937173Y-105325388D01*
X174953083Y-105300594D01*
X174953083Y-104977370D01*
X174913180Y-104971435D01*
X174880875Y-104968076D01*
X174841527Y-104966200D01*
X174798564Y-104965781D01*
X174755417Y-104966792D01*
X174715516Y-104969205D01*
X174682292Y-104972993D01*
X174680442Y-104973287D01*
X174619597Y-104986303D01*
X174563432Y-105004583D01*
X174513416Y-105027480D01*
X174471022Y-105054349D01*
X174445099Y-105076730D01*
X174414677Y-105114371D01*
X174393141Y-105156533D01*
X174380759Y-105201712D01*
X174377802Y-105248405D01*
X173736683Y-105248405D01*
X173736128Y-105230084D01*
X173740739Y-105144623D01*
X173754726Y-105064049D01*
X173778032Y-104988446D01*
X173810603Y-104917898D01*
X173852382Y-104852490D01*
X173903315Y-104792305D01*
X173963345Y-104737427D01*
X174032416Y-104687941D01*
X174110474Y-104643931D01*
X174129101Y-104634872D01*
X174194739Y-104606798D01*
X174263967Y-104583199D01*
X174337699Y-104563930D01*
X174416854Y-104548844D01*
X174502345Y-104537797D01*
X174595091Y-104530642D01*
X174696006Y-104527236D01*
X174806008Y-104527431D01*
X174806080Y-104527433D01*
X174958375Y-104530019D01*
X174958375Y-104498828D01*
X174955033Y-104455766D01*
X174945756Y-104409760D01*
X174931670Y-104365752D01*
X174924008Y-104347804D01*
X174899390Y-104305371D01*
X174868853Y-104270961D01*
X174831981Y-104244345D01*
X174788355Y-104225294D01*
X174737556Y-104213581D01*
X174679167Y-104208975D01*
X174669840Y-104208884D01*
X174582324Y-104213577D01*
X174491883Y-104227760D01*
X174399638Y-104251143D01*
X174306711Y-104283438D01*
X174214224Y-104324356D01*
X174205899Y-104328482D01*
X174186096Y-104337905D01*
X174170062Y-104344627D01*
X174159934Y-104347804D01*
X174157556Y-104347619D01*
X174153387Y-104339068D01*
X174146004Y-104322320D01*
X174135884Y-104298553D01*
X174123501Y-104268944D01*
X174109331Y-104234672D01*
X174093849Y-104196914D01*
X174077530Y-104156847D01*
X174060849Y-104115650D01*
X174044281Y-104074500D01*
X174028302Y-104034576D01*
X174013387Y-103997054D01*
X174000010Y-103963112D01*
X173988647Y-103933928D01*
X173979774Y-103910681D01*
X173973865Y-103894547D01*
X173971395Y-103886704D01*
X173971377Y-103886165D01*
X173978361Y-103882725D01*
X173991642Y-103880834D01*
X173996320Y-103880709D01*
X174011662Y-103879649D01*
X174034095Y-103876405D01*
X174064087Y-103870875D01*
X174102103Y-103862961D01*
X174148609Y-103852563D01*
X174204072Y-103839580D01*
X174268958Y-103823914D01*
X174316455Y-103812233D01*
X174359953Y-103801621D01*
X174402732Y-103791463D01*
X174443029Y-103782157D01*
X174479085Y-103774099D01*
X174509141Y-103767688D01*
X174531435Y-103763320D01*
X174538033Y-103762195D01*
X174605687Y-103753812D01*
X174680286Y-103748565D01*
X174758666Y-103746460D01*
X174837664Y-103747499D01*
X174837664Y-103747499D01*
G37*
X174837664Y-103747499D02*
X174914115Y-103751688D01*
X174984856Y-103759030D01*
X175002732Y-103761579D01*
X175096090Y-103779887D01*
X175181797Y-103805210D01*
X175259768Y-103837488D01*
X175329917Y-103876664D01*
X175392157Y-103922678D01*
X175446401Y-103975471D01*
X175492563Y-104034985D01*
X175530556Y-104101160D01*
X175543858Y-104130454D01*
X175556872Y-104164434D01*
X175570248Y-104204728D01*
X175582745Y-104247189D01*
X175593121Y-104287670D01*
X175598569Y-104313193D01*
X175601897Y-104330861D01*
X175604885Y-104347190D01*
X175607553Y-104362824D01*
X175609924Y-104378409D01*
X175612020Y-104394590D01*
X175613862Y-104412012D01*
X175615473Y-104431321D01*
X175616873Y-104453162D01*
X175618086Y-104478181D01*
X175619133Y-104507023D01*
X175620035Y-104540333D01*
X175620814Y-104578757D01*
X175621493Y-104622940D01*
X175622094Y-104673528D01*
X175622637Y-104731165D01*
X175623145Y-104796498D01*
X175623640Y-104870171D01*
X175624143Y-104952830D01*
X175624677Y-105045121D01*
X175624948Y-105092500D01*
X175625510Y-105188993D01*
X175626041Y-105275475D01*
X175626553Y-105352517D01*
X175627056Y-105420691D01*
X175627561Y-105480568D01*
X175628078Y-105532720D01*
X175628617Y-105577719D01*
X175629189Y-105616137D01*
X175629806Y-105648546D01*
X175630476Y-105675516D01*
X175631211Y-105697620D01*
X175632022Y-105715429D01*
X175632918Y-105729515D01*
X175633911Y-105740451D01*
X175635011Y-105748806D01*
X175636229Y-105755154D01*
X175637246Y-105759010D01*
X175649430Y-105792636D01*
X175665386Y-105826674D01*
X175683120Y-105857209D01*
X175696770Y-105875915D01*
X175706940Y-105888451D01*
X175713589Y-105897346D01*
X175715083Y-105899980D01*
X175709934Y-105900340D01*
X175695058Y-105900682D01*
X175671310Y-105900999D01*
X175639547Y-105901287D01*
X175600625Y-105901541D01*
X175555399Y-105901756D01*
X175504725Y-105901926D01*
X175449461Y-105902047D01*
X175390461Y-105902113D01*
X175352604Y-105902125D01*
X174990125Y-105902125D01*
X174990125Y-105742313D01*
X174960804Y-105769110D01*
X174904558Y-105814067D01*
X174840657Y-105853694D01*
X174771081Y-105887046D01*
X174697808Y-105913178D01*
X174622817Y-105931144D01*
X174621078Y-105931456D01*
X174600610Y-105934247D01*
X174573086Y-105936816D01*
X174540903Y-105939062D01*
X174506459Y-105940882D01*
X174472153Y-105942174D01*
X174440381Y-105942835D01*
X174413542Y-105942763D01*
X174394034Y-105941855D01*
X174389521Y-105941341D01*
X174324633Y-105930882D01*
X174268216Y-105919326D01*
X174218167Y-105906079D01*
X174172384Y-105890549D01*
X174128767Y-105872139D01*
X174106417Y-105861319D01*
X174051707Y-105831418D01*
X174004207Y-105800045D01*
X173960582Y-105764826D01*
X173929378Y-105735438D01*
X173875883Y-105674828D01*
X173830861Y-105608026D01*
X173794427Y-105535330D01*
X173766693Y-105457038D01*
X173747775Y-105373449D01*
X173737787Y-105284863D01*
X173736683Y-105248405D01*
X174377802Y-105248405D01*
X174384538Y-105295110D01*
X174398755Y-105335148D01*
X174418357Y-105366516D01*
X174446342Y-105396286D01*
X174480508Y-105422785D01*
X174518655Y-105444344D01*
X174558583Y-105459291D01*
X174564146Y-105460750D01*
X174588078Y-105464669D01*
X174619045Y-105466875D01*
X174653640Y-105467378D01*
X174688455Y-105466187D01*
X174720084Y-105463312D01*
X174738771Y-105460248D01*
X174787341Y-105445261D01*
X174834365Y-105421746D01*
X174877529Y-105391275D01*
X174914517Y-105355422D01*
X174937173Y-105325388D01*
X174953083Y-105300594D01*
X174953083Y-104977370D01*
X174913180Y-104971435D01*
X174880875Y-104968076D01*
X174841527Y-104966200D01*
X174798564Y-104965781D01*
X174755417Y-104966792D01*
X174715516Y-104969205D01*
X174682292Y-104972993D01*
X174680442Y-104973287D01*
X174619597Y-104986303D01*
X174563432Y-105004583D01*
X174513416Y-105027480D01*
X174471022Y-105054349D01*
X174445099Y-105076730D01*
X174414677Y-105114371D01*
X174393141Y-105156533D01*
X174380759Y-105201712D01*
X174377802Y-105248405D01*
X173736683Y-105248405D01*
X173736128Y-105230084D01*
X173740739Y-105144623D01*
X173754726Y-105064049D01*
X173778032Y-104988446D01*
X173810603Y-104917898D01*
X173852382Y-104852490D01*
X173903315Y-104792305D01*
X173963345Y-104737427D01*
X174032416Y-104687941D01*
X174110474Y-104643931D01*
X174129101Y-104634872D01*
X174194739Y-104606798D01*
X174263967Y-104583199D01*
X174337699Y-104563930D01*
X174416854Y-104548844D01*
X174502345Y-104537797D01*
X174595091Y-104530642D01*
X174696006Y-104527236D01*
X174806008Y-104527431D01*
X174806080Y-104527433D01*
X174958375Y-104530019D01*
X174958375Y-104498828D01*
X174955033Y-104455766D01*
X174945756Y-104409760D01*
X174931670Y-104365752D01*
X174924008Y-104347804D01*
X174899390Y-104305371D01*
X174868853Y-104270961D01*
X174831981Y-104244345D01*
X174788355Y-104225294D01*
X174737556Y-104213581D01*
X174679167Y-104208975D01*
X174669840Y-104208884D01*
X174582324Y-104213577D01*
X174491883Y-104227760D01*
X174399638Y-104251143D01*
X174306711Y-104283438D01*
X174214224Y-104324356D01*
X174205899Y-104328482D01*
X174186096Y-104337905D01*
X174170062Y-104344627D01*
X174159934Y-104347804D01*
X174157556Y-104347619D01*
X174153387Y-104339068D01*
X174146004Y-104322320D01*
X174135884Y-104298553D01*
X174123501Y-104268944D01*
X174109331Y-104234672D01*
X174093849Y-104196914D01*
X174077530Y-104156847D01*
X174060849Y-104115650D01*
X174044281Y-104074500D01*
X174028302Y-104034576D01*
X174013387Y-103997054D01*
X174000010Y-103963112D01*
X173988647Y-103933928D01*
X173979774Y-103910681D01*
X173973865Y-103894547D01*
X173971395Y-103886704D01*
X173971377Y-103886165D01*
X173978361Y-103882725D01*
X173991642Y-103880834D01*
X173996320Y-103880709D01*
X174011662Y-103879649D01*
X174034095Y-103876405D01*
X174064087Y-103870875D01*
X174102103Y-103862961D01*
X174148609Y-103852563D01*
X174204072Y-103839580D01*
X174268958Y-103823914D01*
X174316455Y-103812233D01*
X174359953Y-103801621D01*
X174402732Y-103791463D01*
X174443029Y-103782157D01*
X174479085Y-103774099D01*
X174509141Y-103767688D01*
X174531435Y-103763320D01*
X174538033Y-103762195D01*
X174605687Y-103753812D01*
X174680286Y-103748565D01*
X174758666Y-103746460D01*
X174837664Y-103747499D01*
G36*
X178075167Y-104243831D02*
X178075171Y-104389031D01*
X178075188Y-104524030D01*
X178075217Y-104649214D01*
X178075262Y-104764966D01*
X178075326Y-104871670D01*
X178075409Y-104969709D01*
X178075514Y-105059468D01*
X178075644Y-105141331D01*
X178075800Y-105215680D01*
X178075986Y-105282900D01*
X178076202Y-105343375D01*
X178076451Y-105397488D01*
X178076736Y-105445624D01*
X178077059Y-105488165D01*
X178077421Y-105525496D01*
X178077825Y-105558001D01*
X178078274Y-105586064D01*
X178078769Y-105610068D01*
X178079312Y-105630396D01*
X178079906Y-105647434D01*
X178080554Y-105661564D01*
X178081256Y-105673171D01*
X178082016Y-105682638D01*
X178082835Y-105690349D01*
X178083470Y-105695071D01*
X178096096Y-105758980D01*
X178113853Y-105814013D01*
X178136893Y-105860638D01*
X178138998Y-105864066D01*
X178149047Y-105880457D01*
X178156437Y-105893068D01*
X178159770Y-105899501D01*
X178159833Y-105899785D01*
X178154684Y-105900178D01*
X178139808Y-105900550D01*
X178116060Y-105900896D01*
X178084297Y-105901211D01*
X178045375Y-105901488D01*
X178000149Y-105901722D01*
X177949475Y-105901908D01*
X177894211Y-105902040D01*
X177835211Y-105902112D01*
X177797354Y-105902125D01*
X177434875Y-105902125D01*
X177434875Y-105742313D01*
X177406752Y-105767980D01*
X177348431Y-105814345D01*
X177282402Y-105854388D01*
X177209770Y-105887643D01*
X177131642Y-105913646D01*
X177049123Y-105931934D01*
X176999844Y-105938805D01*
X176973780Y-105940998D01*
X176942877Y-105942560D01*
X176909974Y-105943455D01*
X176877908Y-105943650D01*
X176849517Y-105943108D01*
X176827640Y-105941795D01*
X176821042Y-105941000D01*
X176778055Y-105934242D01*
X176743472Y-105928277D01*
X176715185Y-105922663D01*
X176691087Y-105916961D01*
X176669070Y-105910730D01*
X176655539Y-105906407D01*
X176577624Y-105875236D01*
X176502677Y-105834764D01*
X176432377Y-105786124D01*
X176368403Y-105730448D01*
X176323847Y-105682714D01*
X176264419Y-105604648D01*
X176213351Y-105520499D01*
X176170611Y-105430164D01*
X176136166Y-105333544D01*
X176109984Y-105230538D01*
X176092034Y-105121044D01*
X176082282Y-105004963D01*
X176080317Y-104920521D01*
X176081671Y-104865776D01*
X176781721Y-104865776D01*
X176782036Y-104915312D01*
X176783115Y-104963465D01*
X176784942Y-105008014D01*
X176787499Y-105046736D01*
X176790772Y-105077407D01*
X176791247Y-105080672D01*
X176803684Y-105148147D01*
X176819373Y-105206442D01*
X176838736Y-105256575D01*
X176862193Y-105299564D01*
X176890167Y-105336427D01*
X176902533Y-105349504D01*
X176930664Y-105375215D01*
X176957302Y-105393881D01*
X176986118Y-105407696D01*
X177016833Y-105417759D01*
X177042665Y-105422309D01*
X177075476Y-105424115D01*
X177112060Y-105423310D01*
X177149210Y-105420025D01*
X177183720Y-105414393D01*
X177201037Y-105410167D01*
X177237934Y-105397335D01*
X177278599Y-105379254D01*
X177319067Y-105357901D01*
X177355372Y-105335251D01*
X177364760Y-105328572D01*
X177397833Y-105304189D01*
X177397833Y-104346910D01*
X177364291Y-104322974D01*
X177307220Y-104287834D01*
X177248323Y-104262836D01*
X177186422Y-104247562D01*
X177138542Y-104242303D01*
X177085265Y-104242728D01*
X177038202Y-104250923D01*
X176995803Y-104267466D01*
X176956518Y-104292936D01*
X176924229Y-104322227D01*
X176892600Y-104360155D01*
X176865137Y-104404987D01*
X176841623Y-104457328D01*
X176821839Y-104517780D01*
X176805568Y-104586945D01*
X176792593Y-104665426D01*
X176788428Y-104698271D01*
X176785523Y-104731106D01*
X176783448Y-104771451D01*
X176782186Y-104817082D01*
X176781721Y-104865776D01*
X176081671Y-104865776D01*
X176083626Y-104786732D01*
X176093533Y-104660455D01*
X176109991Y-104541791D01*
X176132953Y-104430839D01*
X176162372Y-104327698D01*
X176198200Y-104232468D01*
X176240390Y-104145248D01*
X176288895Y-104066138D01*
X176343668Y-103995237D01*
X176404661Y-103932645D01*
X176471827Y-103878461D01*
X176545120Y-103832785D01*
X176612114Y-103800758D01*
X176682666Y-103776305D01*
X176758650Y-103759095D01*
X176838267Y-103749073D01*
X176919716Y-103746187D01*
X177001199Y-103750383D01*
X177080915Y-103761605D01*
X177157064Y-103779800D01*
X177227846Y-103804913D01*
X177261067Y-103820251D01*
X177300348Y-103841831D01*
X177338156Y-103865925D01*
X177370784Y-103890115D01*
X177379795Y-103897717D01*
X177398441Y-103914089D01*
X177396342Y-103470097D01*
X177395904Y-103385625D01*
X177395431Y-103311183D01*
X177394913Y-103246221D01*
X177394338Y-103190184D01*
X177393697Y-103142521D01*
X177392979Y-103102679D01*
X177392174Y-103070106D01*
X177391271Y-103044250D01*
X177390260Y-103024557D01*
X177389130Y-103010477D01*
X177387872Y-103001455D01*
X177387466Y-102999646D01*
X177375240Y-102962768D01*
X177358034Y-102925343D01*
X177338181Y-102892257D01*
X177332519Y-102884506D01*
X177322180Y-102870237D01*
X177315158Y-102858982D01*
X177313167Y-102854079D01*
X177318431Y-102852961D01*
X177334120Y-102851972D01*
X177360075Y-102851114D01*
X177396138Y-102850389D01*
X177442149Y-102849800D01*
X177497951Y-102849348D01*
X177563386Y-102849036D01*
X177638294Y-102848867D01*
X177694167Y-102848834D01*
X178075167Y-102848834D01*
X178075167Y-104243831D01*
X178075167Y-104243831D01*
G37*
X178075167Y-104243831D02*
X178075171Y-104389031D01*
X178075188Y-104524030D01*
X178075217Y-104649214D01*
X178075262Y-104764966D01*
X178075326Y-104871670D01*
X178075409Y-104969709D01*
X178075514Y-105059468D01*
X178075644Y-105141331D01*
X178075800Y-105215680D01*
X178075986Y-105282900D01*
X178076202Y-105343375D01*
X178076451Y-105397488D01*
X178076736Y-105445624D01*
X178077059Y-105488165D01*
X178077421Y-105525496D01*
X178077825Y-105558001D01*
X178078274Y-105586064D01*
X178078769Y-105610068D01*
X178079312Y-105630396D01*
X178079906Y-105647434D01*
X178080554Y-105661564D01*
X178081256Y-105673171D01*
X178082016Y-105682638D01*
X178082835Y-105690349D01*
X178083470Y-105695071D01*
X178096096Y-105758980D01*
X178113853Y-105814013D01*
X178136893Y-105860638D01*
X178138998Y-105864066D01*
X178149047Y-105880457D01*
X178156437Y-105893068D01*
X178159770Y-105899501D01*
X178159833Y-105899785D01*
X178154684Y-105900178D01*
X178139808Y-105900550D01*
X178116060Y-105900896D01*
X178084297Y-105901211D01*
X178045375Y-105901488D01*
X178000149Y-105901722D01*
X177949475Y-105901908D01*
X177894211Y-105902040D01*
X177835211Y-105902112D01*
X177797354Y-105902125D01*
X177434875Y-105902125D01*
X177434875Y-105742313D01*
X177406752Y-105767980D01*
X177348431Y-105814345D01*
X177282402Y-105854388D01*
X177209770Y-105887643D01*
X177131642Y-105913646D01*
X177049123Y-105931934D01*
X176999844Y-105938805D01*
X176973780Y-105940998D01*
X176942877Y-105942560D01*
X176909974Y-105943455D01*
X176877908Y-105943650D01*
X176849517Y-105943108D01*
X176827640Y-105941795D01*
X176821042Y-105941000D01*
X176778055Y-105934242D01*
X176743472Y-105928277D01*
X176715185Y-105922663D01*
X176691087Y-105916961D01*
X176669070Y-105910730D01*
X176655539Y-105906407D01*
X176577624Y-105875236D01*
X176502677Y-105834764D01*
X176432377Y-105786124D01*
X176368403Y-105730448D01*
X176323847Y-105682714D01*
X176264419Y-105604648D01*
X176213351Y-105520499D01*
X176170611Y-105430164D01*
X176136166Y-105333544D01*
X176109984Y-105230538D01*
X176092034Y-105121044D01*
X176082282Y-105004963D01*
X176080317Y-104920521D01*
X176081671Y-104865776D01*
X176781721Y-104865776D01*
X176782036Y-104915312D01*
X176783115Y-104963465D01*
X176784942Y-105008014D01*
X176787499Y-105046736D01*
X176790772Y-105077407D01*
X176791247Y-105080672D01*
X176803684Y-105148147D01*
X176819373Y-105206442D01*
X176838736Y-105256575D01*
X176862193Y-105299564D01*
X176890167Y-105336427D01*
X176902533Y-105349504D01*
X176930664Y-105375215D01*
X176957302Y-105393881D01*
X176986118Y-105407696D01*
X177016833Y-105417759D01*
X177042665Y-105422309D01*
X177075476Y-105424115D01*
X177112060Y-105423310D01*
X177149210Y-105420025D01*
X177183720Y-105414393D01*
X177201037Y-105410167D01*
X177237934Y-105397335D01*
X177278599Y-105379254D01*
X177319067Y-105357901D01*
X177355372Y-105335251D01*
X177364760Y-105328572D01*
X177397833Y-105304189D01*
X177397833Y-104346910D01*
X177364291Y-104322974D01*
X177307220Y-104287834D01*
X177248323Y-104262836D01*
X177186422Y-104247562D01*
X177138542Y-104242303D01*
X177085265Y-104242728D01*
X177038202Y-104250923D01*
X176995803Y-104267466D01*
X176956518Y-104292936D01*
X176924229Y-104322227D01*
X176892600Y-104360155D01*
X176865137Y-104404987D01*
X176841623Y-104457328D01*
X176821839Y-104517780D01*
X176805568Y-104586945D01*
X176792593Y-104665426D01*
X176788428Y-104698271D01*
X176785523Y-104731106D01*
X176783448Y-104771451D01*
X176782186Y-104817082D01*
X176781721Y-104865776D01*
X176081671Y-104865776D01*
X176083626Y-104786732D01*
X176093533Y-104660455D01*
X176109991Y-104541791D01*
X176132953Y-104430839D01*
X176162372Y-104327698D01*
X176198200Y-104232468D01*
X176240390Y-104145248D01*
X176288895Y-104066138D01*
X176343668Y-103995237D01*
X176404661Y-103932645D01*
X176471827Y-103878461D01*
X176545120Y-103832785D01*
X176612114Y-103800758D01*
X176682666Y-103776305D01*
X176758650Y-103759095D01*
X176838267Y-103749073D01*
X176919716Y-103746187D01*
X177001199Y-103750383D01*
X177080915Y-103761605D01*
X177157064Y-103779800D01*
X177227846Y-103804913D01*
X177261067Y-103820251D01*
X177300348Y-103841831D01*
X177338156Y-103865925D01*
X177370784Y-103890115D01*
X177379795Y-103897717D01*
X177398441Y-103914089D01*
X177396342Y-103470097D01*
X177395904Y-103385625D01*
X177395431Y-103311183D01*
X177394913Y-103246221D01*
X177394338Y-103190184D01*
X177393697Y-103142521D01*
X177392979Y-103102679D01*
X177392174Y-103070106D01*
X177391271Y-103044250D01*
X177390260Y-103024557D01*
X177389130Y-103010477D01*
X177387872Y-103001455D01*
X177387466Y-102999646D01*
X177375240Y-102962768D01*
X177358034Y-102925343D01*
X177338181Y-102892257D01*
X177332519Y-102884506D01*
X177322180Y-102870237D01*
X177315158Y-102858982D01*
X177313167Y-102854079D01*
X177318431Y-102852961D01*
X177334120Y-102851972D01*
X177360075Y-102851114D01*
X177396138Y-102850389D01*
X177442149Y-102849800D01*
X177497951Y-102849348D01*
X177563386Y-102849036D01*
X177638294Y-102848867D01*
X177694167Y-102848834D01*
X178075167Y-102848834D01*
X178075167Y-104243831D01*
D11*
X149757143Y-72096381D02*
X150423810Y-72096381D01*
X149995238Y-73096381D01*
X151233334Y-72429714D02*
X151233334Y-73096381D01*
X150995238Y-72048762D02*
X150757143Y-72763048D01*
X151376191Y-72763048D01*
X152233334Y-73096381D02*
X151757143Y-73096381D01*
X151757143Y-72096381D01*
X152519048Y-73048762D02*
X152661905Y-73096381D01*
X152900001Y-73096381D01*
X152995239Y-73048762D01*
X153042858Y-73001143D01*
X153090477Y-72905905D01*
X153090477Y-72810667D01*
X153042858Y-72715429D01*
X152995239Y-72667810D01*
X152900001Y-72620190D01*
X152709524Y-72572571D01*
X152614286Y-72524952D01*
X152566667Y-72477333D01*
X152519048Y-72382095D01*
X152519048Y-72286857D01*
X152566667Y-72191619D01*
X152614286Y-72144000D01*
X152709524Y-72096381D01*
X152947620Y-72096381D01*
X153090477Y-72144000D01*
X153423810Y-72096381D02*
X154042858Y-72096381D01*
X153709524Y-72477333D01*
X153852382Y-72477333D01*
X153947620Y-72524952D01*
X153995239Y-72572571D01*
X154042858Y-72667810D01*
X154042858Y-72905905D01*
X153995239Y-73001143D01*
X153947620Y-73048762D01*
X153852382Y-73096381D01*
X153566667Y-73096381D01*
X153471429Y-73048762D01*
X153423810Y-73001143D01*
X154423810Y-72191619D02*
X154471429Y-72144000D01*
X154566667Y-72096381D01*
X154804763Y-72096381D01*
X154900001Y-72144000D01*
X154947620Y-72191619D01*
X154995239Y-72286857D01*
X154995239Y-72382095D01*
X154947620Y-72524952D01*
X154376191Y-73096381D01*
X154995239Y-73096381D01*
X151423810Y-83002381D02*
X151423810Y-82002381D01*
X152471429Y-82907143D02*
X152423810Y-82954762D01*
X152280953Y-83002381D01*
X152185715Y-83002381D01*
X152042857Y-82954762D01*
X151947619Y-82859524D01*
X151900000Y-82764286D01*
X151852381Y-82573810D01*
X151852381Y-82430952D01*
X151900000Y-82240476D01*
X151947619Y-82145238D01*
X152042857Y-82050000D01*
X152185715Y-82002381D01*
X152280953Y-82002381D01*
X152423810Y-82050000D01*
X152471429Y-82097619D01*
X153328572Y-82002381D02*
X153138095Y-82002381D01*
X153042857Y-82050000D01*
X152995238Y-82097619D01*
X152900000Y-82240476D01*
X152852381Y-82430952D01*
X152852381Y-82811905D01*
X152900000Y-82907143D01*
X152947619Y-82954762D01*
X153042857Y-83002381D01*
X153233334Y-83002381D01*
X153328572Y-82954762D01*
X153376191Y-82907143D01*
X153423810Y-82811905D01*
X153423810Y-82573810D01*
X153376191Y-82478571D01*
X153328572Y-82430952D01*
X153233334Y-82383333D01*
X153042857Y-82383333D01*
X152947619Y-82430952D01*
X152900000Y-82478571D01*
X152852381Y-82573810D01*
X90003334Y-96369143D02*
X89955715Y-96416762D01*
X89812858Y-96464381D01*
X89717620Y-96464381D01*
X89574762Y-96416762D01*
X89479524Y-96321524D01*
X89431905Y-96226286D01*
X89384286Y-96035810D01*
X89384286Y-95892952D01*
X89431905Y-95702476D01*
X89479524Y-95607238D01*
X89574762Y-95512000D01*
X89717620Y-95464381D01*
X89812858Y-95464381D01*
X89955715Y-95512000D01*
X90003334Y-95559619D01*
X90955715Y-96464381D02*
X90384286Y-96464381D01*
X90670000Y-96464381D02*
X90670000Y-95464381D01*
X90574762Y-95607238D01*
X90479524Y-95702476D01*
X90384286Y-95750095D01*
X102703334Y-96369143D02*
X102655715Y-96416762D01*
X102512858Y-96464381D01*
X102417620Y-96464381D01*
X102274762Y-96416762D01*
X102179524Y-96321524D01*
X102131905Y-96226286D01*
X102084286Y-96035810D01*
X102084286Y-95892952D01*
X102131905Y-95702476D01*
X102179524Y-95607238D01*
X102274762Y-95512000D01*
X102417620Y-95464381D01*
X102512858Y-95464381D01*
X102655715Y-95512000D01*
X102703334Y-95559619D01*
X103084286Y-95559619D02*
X103131905Y-95512000D01*
X103227143Y-95464381D01*
X103465239Y-95464381D01*
X103560477Y-95512000D01*
X103608096Y-95559619D01*
X103655715Y-95654857D01*
X103655715Y-95750095D01*
X103608096Y-95892952D01*
X103036667Y-96464381D01*
X103655715Y-96464381D01*
X115403334Y-96369143D02*
X115355715Y-96416762D01*
X115212858Y-96464381D01*
X115117620Y-96464381D01*
X114974762Y-96416762D01*
X114879524Y-96321524D01*
X114831905Y-96226286D01*
X114784286Y-96035810D01*
X114784286Y-95892952D01*
X114831905Y-95702476D01*
X114879524Y-95607238D01*
X114974762Y-95512000D01*
X115117620Y-95464381D01*
X115212858Y-95464381D01*
X115355715Y-95512000D01*
X115403334Y-95559619D01*
X115736667Y-95464381D02*
X116355715Y-95464381D01*
X116022381Y-95845333D01*
X116165239Y-95845333D01*
X116260477Y-95892952D01*
X116308096Y-95940571D01*
X116355715Y-96035810D01*
X116355715Y-96273905D01*
X116308096Y-96369143D01*
X116260477Y-96416762D01*
X116165239Y-96464381D01*
X115879524Y-96464381D01*
X115784286Y-96416762D01*
X115736667Y-96369143D01*
X128103334Y-96369143D02*
X128055715Y-96416762D01*
X127912858Y-96464381D01*
X127817620Y-96464381D01*
X127674762Y-96416762D01*
X127579524Y-96321524D01*
X127531905Y-96226286D01*
X127484286Y-96035810D01*
X127484286Y-95892952D01*
X127531905Y-95702476D01*
X127579524Y-95607238D01*
X127674762Y-95512000D01*
X127817620Y-95464381D01*
X127912858Y-95464381D01*
X128055715Y-95512000D01*
X128103334Y-95559619D01*
X128960477Y-95797714D02*
X128960477Y-96464381D01*
X128722381Y-95416762D02*
X128484286Y-96131048D01*
X129103334Y-96131048D01*
X139533334Y-96623143D02*
X139485715Y-96670762D01*
X139342858Y-96718381D01*
X139247620Y-96718381D01*
X139104762Y-96670762D01*
X139009524Y-96575524D01*
X138961905Y-96480286D01*
X138914286Y-96289810D01*
X138914286Y-96146952D01*
X138961905Y-95956476D01*
X139009524Y-95861238D01*
X139104762Y-95766000D01*
X139247620Y-95718381D01*
X139342858Y-95718381D01*
X139485715Y-95766000D01*
X139533334Y-95813619D01*
X140438096Y-95718381D02*
X139961905Y-95718381D01*
X139914286Y-96194571D01*
X139961905Y-96146952D01*
X140057143Y-96099333D01*
X140295239Y-96099333D01*
X140390477Y-96146952D01*
X140438096Y-96194571D01*
X140485715Y-96289810D01*
X140485715Y-96527905D01*
X140438096Y-96623143D01*
X140390477Y-96670762D01*
X140295239Y-96718381D01*
X140057143Y-96718381D01*
X139961905Y-96670762D01*
X139914286Y-96623143D01*
X152233334Y-96623143D02*
X152185715Y-96670762D01*
X152042858Y-96718381D01*
X151947620Y-96718381D01*
X151804762Y-96670762D01*
X151709524Y-96575524D01*
X151661905Y-96480286D01*
X151614286Y-96289810D01*
X151614286Y-96146952D01*
X151661905Y-95956476D01*
X151709524Y-95861238D01*
X151804762Y-95766000D01*
X151947620Y-95718381D01*
X152042858Y-95718381D01*
X152185715Y-95766000D01*
X152233334Y-95813619D01*
X153090477Y-95718381D02*
X152900000Y-95718381D01*
X152804762Y-95766000D01*
X152757143Y-95813619D01*
X152661905Y-95956476D01*
X152614286Y-96146952D01*
X152614286Y-96527905D01*
X152661905Y-96623143D01*
X152709524Y-96670762D01*
X152804762Y-96718381D01*
X152995239Y-96718381D01*
X153090477Y-96670762D01*
X153138096Y-96623143D01*
X153185715Y-96527905D01*
X153185715Y-96289810D01*
X153138096Y-96194571D01*
X153090477Y-96146952D01*
X152995239Y-96099333D01*
X152804762Y-96099333D01*
X152709524Y-96146952D01*
X152661905Y-96194571D01*
X152614286Y-96289810D01*
X164933334Y-96623143D02*
X164885715Y-96670762D01*
X164742858Y-96718381D01*
X164647620Y-96718381D01*
X164504762Y-96670762D01*
X164409524Y-96575524D01*
X164361905Y-96480286D01*
X164314286Y-96289810D01*
X164314286Y-96146952D01*
X164361905Y-95956476D01*
X164409524Y-95861238D01*
X164504762Y-95766000D01*
X164647620Y-95718381D01*
X164742858Y-95718381D01*
X164885715Y-95766000D01*
X164933334Y-95813619D01*
X165266667Y-95718381D02*
X165933334Y-95718381D01*
X165504762Y-96718381D01*
X177633334Y-96623143D02*
X177585715Y-96670762D01*
X177442858Y-96718381D01*
X177347620Y-96718381D01*
X177204762Y-96670762D01*
X177109524Y-96575524D01*
X177061905Y-96480286D01*
X177014286Y-96289810D01*
X177014286Y-96146952D01*
X177061905Y-95956476D01*
X177109524Y-95861238D01*
X177204762Y-95766000D01*
X177347620Y-95718381D01*
X177442858Y-95718381D01*
X177585715Y-95766000D01*
X177633334Y-95813619D01*
X178204762Y-96146952D02*
X178109524Y-96099333D01*
X178061905Y-96051714D01*
X178014286Y-95956476D01*
X178014286Y-95908857D01*
X178061905Y-95813619D01*
X178109524Y-95766000D01*
X178204762Y-95718381D01*
X178395239Y-95718381D01*
X178490477Y-95766000D01*
X178538096Y-95813619D01*
X178585715Y-95908857D01*
X178585715Y-95956476D01*
X178538096Y-96051714D01*
X178490477Y-96099333D01*
X178395239Y-96146952D01*
X178204762Y-96146952D01*
X178109524Y-96194571D01*
X178061905Y-96242190D01*
X178014286Y-96337429D01*
X178014286Y-96527905D01*
X178061905Y-96623143D01*
X178109524Y-96670762D01*
X178204762Y-96718381D01*
X178395239Y-96718381D01*
X178490477Y-96670762D01*
X178538096Y-96623143D01*
X178585715Y-96527905D01*
X178585715Y-96337429D01*
X178538096Y-96242190D01*
X178490477Y-96194571D01*
X178395239Y-96146952D01*
X166183334Y-113567143D02*
X166135715Y-113614762D01*
X165992858Y-113662381D01*
X165897620Y-113662381D01*
X165754762Y-113614762D01*
X165659524Y-113519524D01*
X165611905Y-113424286D01*
X165564286Y-113233810D01*
X165564286Y-113090952D01*
X165611905Y-112900476D01*
X165659524Y-112805238D01*
X165754762Y-112710000D01*
X165897620Y-112662381D01*
X165992858Y-112662381D01*
X166135715Y-112710000D01*
X166183334Y-112757619D01*
X166659524Y-113662381D02*
X166850000Y-113662381D01*
X166945239Y-113614762D01*
X166992858Y-113567143D01*
X167088096Y-113424286D01*
X167135715Y-113233810D01*
X167135715Y-112852857D01*
X167088096Y-112757619D01*
X167040477Y-112710000D01*
X166945239Y-112662381D01*
X166754762Y-112662381D01*
X166659524Y-112710000D01*
X166611905Y-112757619D01*
X166564286Y-112852857D01*
X166564286Y-113090952D01*
X166611905Y-113186190D01*
X166659524Y-113233810D01*
X166754762Y-113281429D01*
X166945239Y-113281429D01*
X167040477Y-113233810D01*
X167088096Y-113186190D01*
X167135715Y-113090952D01*
X151777143Y-120827143D02*
X151729524Y-120874762D01*
X151586667Y-120922381D01*
X151491429Y-120922381D01*
X151348571Y-120874762D01*
X151253333Y-120779524D01*
X151205714Y-120684286D01*
X151158095Y-120493810D01*
X151158095Y-120350952D01*
X151205714Y-120160476D01*
X151253333Y-120065238D01*
X151348571Y-119970000D01*
X151491429Y-119922381D01*
X151586667Y-119922381D01*
X151729524Y-119970000D01*
X151777143Y-120017619D01*
X152729524Y-120922381D02*
X152158095Y-120922381D01*
X152443809Y-120922381D02*
X152443809Y-119922381D01*
X152348571Y-120065238D01*
X152253333Y-120160476D01*
X152158095Y-120208095D01*
X153348571Y-119922381D02*
X153443810Y-119922381D01*
X153539048Y-119970000D01*
X153586667Y-120017619D01*
X153634286Y-120112857D01*
X153681905Y-120303333D01*
X153681905Y-120541429D01*
X153634286Y-120731905D01*
X153586667Y-120827143D01*
X153539048Y-120874762D01*
X153443810Y-120922381D01*
X153348571Y-120922381D01*
X153253333Y-120874762D01*
X153205714Y-120827143D01*
X153158095Y-120731905D01*
X153110476Y-120541429D01*
X153110476Y-120303333D01*
X153158095Y-120112857D01*
X153205714Y-120017619D01*
X153253333Y-119970000D01*
X153348571Y-119922381D01*
X177137143Y-113567143D02*
X177089524Y-113614762D01*
X176946667Y-113662381D01*
X176851429Y-113662381D01*
X176708571Y-113614762D01*
X176613333Y-113519524D01*
X176565714Y-113424286D01*
X176518095Y-113233810D01*
X176518095Y-113090952D01*
X176565714Y-112900476D01*
X176613333Y-112805238D01*
X176708571Y-112710000D01*
X176851429Y-112662381D01*
X176946667Y-112662381D01*
X177089524Y-112710000D01*
X177137143Y-112757619D01*
X178089524Y-113662381D02*
X177518095Y-113662381D01*
X177803809Y-113662381D02*
X177803809Y-112662381D01*
X177708571Y-112805238D01*
X177613333Y-112900476D01*
X177518095Y-112948095D01*
X179041905Y-113662381D02*
X178470476Y-113662381D01*
X178756190Y-113662381D02*
X178756190Y-112662381D01*
X178660952Y-112805238D01*
X178565714Y-112900476D01*
X178470476Y-112948095D01*
X116197143Y-120753143D02*
X116149524Y-120800762D01*
X116006667Y-120848381D01*
X115911429Y-120848381D01*
X115768571Y-120800762D01*
X115673333Y-120705524D01*
X115625714Y-120610286D01*
X115578095Y-120419810D01*
X115578095Y-120276952D01*
X115625714Y-120086476D01*
X115673333Y-119991238D01*
X115768571Y-119896000D01*
X115911429Y-119848381D01*
X116006667Y-119848381D01*
X116149524Y-119896000D01*
X116197143Y-119943619D01*
X117149524Y-120848381D02*
X116578095Y-120848381D01*
X116863809Y-120848381D02*
X116863809Y-119848381D01*
X116768571Y-119991238D01*
X116673333Y-120086476D01*
X116578095Y-120134095D01*
X117530476Y-119943619D02*
X117578095Y-119896000D01*
X117673333Y-119848381D01*
X117911429Y-119848381D01*
X118006667Y-119896000D01*
X118054286Y-119943619D01*
X118101905Y-120038857D01*
X118101905Y-120134095D01*
X118054286Y-120276952D01*
X117482857Y-120848381D01*
X118101905Y-120848381D01*
X87185905Y-72096381D02*
X87852572Y-72096381D01*
X87424000Y-73096381D01*
X88662096Y-72429714D02*
X88662096Y-73096381D01*
X88424000Y-72048762D02*
X88185905Y-72763048D01*
X88804953Y-72763048D01*
X89138286Y-73048762D02*
X89281143Y-73096381D01*
X89519239Y-73096381D01*
X89614477Y-73048762D01*
X89662096Y-73001143D01*
X89709715Y-72905905D01*
X89709715Y-72810667D01*
X89662096Y-72715429D01*
X89614477Y-72667810D01*
X89519239Y-72620190D01*
X89328762Y-72572571D01*
X89233524Y-72524952D01*
X89185905Y-72477333D01*
X89138286Y-72382095D01*
X89138286Y-72286857D01*
X89185905Y-72191619D01*
X89233524Y-72144000D01*
X89328762Y-72096381D01*
X89566858Y-72096381D01*
X89709715Y-72144000D01*
X90090667Y-72191619D02*
X90138286Y-72144000D01*
X90233524Y-72096381D01*
X90471620Y-72096381D01*
X90566858Y-72144000D01*
X90614477Y-72191619D01*
X90662096Y-72286857D01*
X90662096Y-72382095D01*
X90614477Y-72524952D01*
X90043048Y-73096381D01*
X90662096Y-73096381D01*
X91519239Y-72096381D02*
X91328762Y-72096381D01*
X91233524Y-72144000D01*
X91185905Y-72191619D01*
X91090667Y-72334476D01*
X91043048Y-72524952D01*
X91043048Y-72905905D01*
X91090667Y-73001143D01*
X91138286Y-73048762D01*
X91233524Y-73096381D01*
X91424001Y-73096381D01*
X91519239Y-73048762D01*
X91566858Y-73001143D01*
X91614477Y-72905905D01*
X91614477Y-72667810D01*
X91566858Y-72572571D01*
X91519239Y-72524952D01*
X91424001Y-72477333D01*
X91233524Y-72477333D01*
X91138286Y-72524952D01*
X91090667Y-72572571D01*
X91043048Y-72667810D01*
X92233524Y-72096381D02*
X92328763Y-72096381D01*
X92424001Y-72144000D01*
X92471620Y-72191619D01*
X92519239Y-72286857D01*
X92566858Y-72477333D01*
X92566858Y-72715429D01*
X92519239Y-72905905D01*
X92471620Y-73001143D01*
X92424001Y-73048762D01*
X92328763Y-73096381D01*
X92233524Y-73096381D01*
X92138286Y-73048762D01*
X92090667Y-73001143D01*
X92043048Y-72905905D01*
X91995429Y-72715429D01*
X91995429Y-72477333D01*
X92043048Y-72286857D01*
X92090667Y-72191619D01*
X92138286Y-72144000D01*
X92233524Y-72096381D01*
X92995429Y-73096381D02*
X92995429Y-72096381D01*
X93566858Y-73096381D01*
X93566858Y-72096381D01*
X89193810Y-83002381D02*
X89193810Y-82002381D01*
X90241429Y-82907143D02*
X90193810Y-82954762D01*
X90050953Y-83002381D01*
X89955715Y-83002381D01*
X89812857Y-82954762D01*
X89717619Y-82859524D01*
X89670000Y-82764286D01*
X89622381Y-82573810D01*
X89622381Y-82430952D01*
X89670000Y-82240476D01*
X89717619Y-82145238D01*
X89812857Y-82050000D01*
X89955715Y-82002381D01*
X90050953Y-82002381D01*
X90193810Y-82050000D01*
X90241429Y-82097619D01*
X91193810Y-83002381D02*
X90622381Y-83002381D01*
X90908095Y-83002381D02*
X90908095Y-82002381D01*
X90812857Y-82145238D01*
X90717619Y-82240476D01*
X90622381Y-82288095D01*
X100481143Y-72096381D02*
X101147810Y-72096381D01*
X100719238Y-73096381D01*
X101957334Y-72429714D02*
X101957334Y-73096381D01*
X101719238Y-72048762D02*
X101481143Y-72763048D01*
X102100191Y-72763048D01*
X102957334Y-73096381D02*
X102481143Y-73096381D01*
X102481143Y-72096381D01*
X103243048Y-73048762D02*
X103385905Y-73096381D01*
X103624001Y-73096381D01*
X103719239Y-73048762D01*
X103766858Y-73001143D01*
X103814477Y-72905905D01*
X103814477Y-72810667D01*
X103766858Y-72715429D01*
X103719239Y-72667810D01*
X103624001Y-72620190D01*
X103433524Y-72572571D01*
X103338286Y-72524952D01*
X103290667Y-72477333D01*
X103243048Y-72382095D01*
X103243048Y-72286857D01*
X103290667Y-72191619D01*
X103338286Y-72144000D01*
X103433524Y-72096381D01*
X103671620Y-72096381D01*
X103814477Y-72144000D01*
X104147810Y-72096381D02*
X104766858Y-72096381D01*
X104433524Y-72477333D01*
X104576382Y-72477333D01*
X104671620Y-72524952D01*
X104719239Y-72572571D01*
X104766858Y-72667810D01*
X104766858Y-72905905D01*
X104719239Y-73001143D01*
X104671620Y-73048762D01*
X104576382Y-73096381D01*
X104290667Y-73096381D01*
X104195429Y-73048762D01*
X104147810Y-73001143D01*
X105385905Y-72096381D02*
X105481144Y-72096381D01*
X105576382Y-72144000D01*
X105624001Y-72191619D01*
X105671620Y-72286857D01*
X105719239Y-72477333D01*
X105719239Y-72715429D01*
X105671620Y-72905905D01*
X105624001Y-73001143D01*
X105576382Y-73048762D01*
X105481144Y-73096381D01*
X105385905Y-73096381D01*
X105290667Y-73048762D01*
X105243048Y-73001143D01*
X105195429Y-72905905D01*
X105147810Y-72715429D01*
X105147810Y-72477333D01*
X105195429Y-72286857D01*
X105243048Y-72191619D01*
X105290667Y-72144000D01*
X105385905Y-72096381D01*
X101893810Y-83002381D02*
X101893810Y-82002381D01*
X102941429Y-82907143D02*
X102893810Y-82954762D01*
X102750953Y-83002381D01*
X102655715Y-83002381D01*
X102512857Y-82954762D01*
X102417619Y-82859524D01*
X102370000Y-82764286D01*
X102322381Y-82573810D01*
X102322381Y-82430952D01*
X102370000Y-82240476D01*
X102417619Y-82145238D01*
X102512857Y-82050000D01*
X102655715Y-82002381D01*
X102750953Y-82002381D01*
X102893810Y-82050000D01*
X102941429Y-82097619D01*
X103322381Y-82097619D02*
X103370000Y-82050000D01*
X103465238Y-82002381D01*
X103703334Y-82002381D01*
X103798572Y-82050000D01*
X103846191Y-82097619D01*
X103893810Y-82192857D01*
X103893810Y-82288095D01*
X103846191Y-82430952D01*
X103274762Y-83002381D01*
X103893810Y-83002381D01*
X112927143Y-72096381D02*
X113593810Y-72096381D01*
X113165238Y-73096381D01*
X114403334Y-72429714D02*
X114403334Y-73096381D01*
X114165238Y-72048762D02*
X113927143Y-72763048D01*
X114546191Y-72763048D01*
X115403334Y-73096381D02*
X114927143Y-73096381D01*
X114927143Y-72096381D01*
X115689048Y-73048762D02*
X115831905Y-73096381D01*
X116070001Y-73096381D01*
X116165239Y-73048762D01*
X116212858Y-73001143D01*
X116260477Y-72905905D01*
X116260477Y-72810667D01*
X116212858Y-72715429D01*
X116165239Y-72667810D01*
X116070001Y-72620190D01*
X115879524Y-72572571D01*
X115784286Y-72524952D01*
X115736667Y-72477333D01*
X115689048Y-72382095D01*
X115689048Y-72286857D01*
X115736667Y-72191619D01*
X115784286Y-72144000D01*
X115879524Y-72096381D01*
X116117620Y-72096381D01*
X116260477Y-72144000D01*
X116641429Y-72191619D02*
X116689048Y-72144000D01*
X116784286Y-72096381D01*
X117022382Y-72096381D01*
X117117620Y-72144000D01*
X117165239Y-72191619D01*
X117212858Y-72286857D01*
X117212858Y-72382095D01*
X117165239Y-72524952D01*
X116593810Y-73096381D01*
X117212858Y-73096381D01*
X117546191Y-72096381D02*
X118212858Y-72096381D01*
X117784286Y-73096381D01*
X114593810Y-83002381D02*
X114593810Y-82002381D01*
X115641429Y-82907143D02*
X115593810Y-82954762D01*
X115450953Y-83002381D01*
X115355715Y-83002381D01*
X115212857Y-82954762D01*
X115117619Y-82859524D01*
X115070000Y-82764286D01*
X115022381Y-82573810D01*
X115022381Y-82430952D01*
X115070000Y-82240476D01*
X115117619Y-82145238D01*
X115212857Y-82050000D01*
X115355715Y-82002381D01*
X115450953Y-82002381D01*
X115593810Y-82050000D01*
X115641429Y-82097619D01*
X115974762Y-82002381D02*
X116593810Y-82002381D01*
X116260476Y-82383333D01*
X116403334Y-82383333D01*
X116498572Y-82430952D01*
X116546191Y-82478571D01*
X116593810Y-82573810D01*
X116593810Y-82811905D01*
X116546191Y-82907143D01*
X116498572Y-82954762D01*
X116403334Y-83002381D01*
X116117619Y-83002381D01*
X116022381Y-82954762D01*
X115974762Y-82907143D01*
X125627143Y-72096381D02*
X126293810Y-72096381D01*
X125865238Y-73096381D01*
X127103334Y-72429714D02*
X127103334Y-73096381D01*
X126865238Y-72048762D02*
X126627143Y-72763048D01*
X127246191Y-72763048D01*
X128103334Y-73096381D02*
X127627143Y-73096381D01*
X127627143Y-72096381D01*
X128389048Y-73048762D02*
X128531905Y-73096381D01*
X128770001Y-73096381D01*
X128865239Y-73048762D01*
X128912858Y-73001143D01*
X128960477Y-72905905D01*
X128960477Y-72810667D01*
X128912858Y-72715429D01*
X128865239Y-72667810D01*
X128770001Y-72620190D01*
X128579524Y-72572571D01*
X128484286Y-72524952D01*
X128436667Y-72477333D01*
X128389048Y-72382095D01*
X128389048Y-72286857D01*
X128436667Y-72191619D01*
X128484286Y-72144000D01*
X128579524Y-72096381D01*
X128817620Y-72096381D01*
X128960477Y-72144000D01*
X129293810Y-72096381D02*
X129960477Y-72096381D01*
X129531905Y-73096381D01*
X130770001Y-72429714D02*
X130770001Y-73096381D01*
X130531905Y-72048762D02*
X130293810Y-72763048D01*
X130912858Y-72763048D01*
X127293810Y-83002381D02*
X127293810Y-82002381D01*
X128341429Y-82907143D02*
X128293810Y-82954762D01*
X128150953Y-83002381D01*
X128055715Y-83002381D01*
X127912857Y-82954762D01*
X127817619Y-82859524D01*
X127770000Y-82764286D01*
X127722381Y-82573810D01*
X127722381Y-82430952D01*
X127770000Y-82240476D01*
X127817619Y-82145238D01*
X127912857Y-82050000D01*
X128055715Y-82002381D01*
X128150953Y-82002381D01*
X128293810Y-82050000D01*
X128341429Y-82097619D01*
X129198572Y-82335714D02*
X129198572Y-83002381D01*
X128960476Y-81954762D02*
X128722381Y-82669048D01*
X129341429Y-82669048D01*
X137057143Y-72096381D02*
X137723810Y-72096381D01*
X137295238Y-73096381D01*
X138533334Y-72429714D02*
X138533334Y-73096381D01*
X138295238Y-72048762D02*
X138057143Y-72763048D01*
X138676191Y-72763048D01*
X139533334Y-73096381D02*
X139057143Y-73096381D01*
X139057143Y-72096381D01*
X139819048Y-73048762D02*
X139961905Y-73096381D01*
X140200001Y-73096381D01*
X140295239Y-73048762D01*
X140342858Y-73001143D01*
X140390477Y-72905905D01*
X140390477Y-72810667D01*
X140342858Y-72715429D01*
X140295239Y-72667810D01*
X140200001Y-72620190D01*
X140009524Y-72572571D01*
X139914286Y-72524952D01*
X139866667Y-72477333D01*
X139819048Y-72382095D01*
X139819048Y-72286857D01*
X139866667Y-72191619D01*
X139914286Y-72144000D01*
X140009524Y-72096381D01*
X140247620Y-72096381D01*
X140390477Y-72144000D01*
X141009524Y-72096381D02*
X141104763Y-72096381D01*
X141200001Y-72144000D01*
X141247620Y-72191619D01*
X141295239Y-72286857D01*
X141342858Y-72477333D01*
X141342858Y-72715429D01*
X141295239Y-72905905D01*
X141247620Y-73001143D01*
X141200001Y-73048762D01*
X141104763Y-73096381D01*
X141009524Y-73096381D01*
X140914286Y-73048762D01*
X140866667Y-73001143D01*
X140819048Y-72905905D01*
X140771429Y-72715429D01*
X140771429Y-72477333D01*
X140819048Y-72286857D01*
X140866667Y-72191619D01*
X140914286Y-72144000D01*
X141009524Y-72096381D01*
X141961905Y-72096381D02*
X142057144Y-72096381D01*
X142152382Y-72144000D01*
X142200001Y-72191619D01*
X142247620Y-72286857D01*
X142295239Y-72477333D01*
X142295239Y-72715429D01*
X142247620Y-72905905D01*
X142200001Y-73001143D01*
X142152382Y-73048762D01*
X142057144Y-73096381D01*
X141961905Y-73096381D01*
X141866667Y-73048762D01*
X141819048Y-73001143D01*
X141771429Y-72905905D01*
X141723810Y-72715429D01*
X141723810Y-72477333D01*
X141771429Y-72286857D01*
X141819048Y-72191619D01*
X141866667Y-72144000D01*
X141961905Y-72096381D01*
X138723810Y-83002381D02*
X138723810Y-82002381D01*
X139771429Y-82907143D02*
X139723810Y-82954762D01*
X139580953Y-83002381D01*
X139485715Y-83002381D01*
X139342857Y-82954762D01*
X139247619Y-82859524D01*
X139200000Y-82764286D01*
X139152381Y-82573810D01*
X139152381Y-82430952D01*
X139200000Y-82240476D01*
X139247619Y-82145238D01*
X139342857Y-82050000D01*
X139485715Y-82002381D01*
X139580953Y-82002381D01*
X139723810Y-82050000D01*
X139771429Y-82097619D01*
X140676191Y-82002381D02*
X140200000Y-82002381D01*
X140152381Y-82478571D01*
X140200000Y-82430952D01*
X140295238Y-82383333D01*
X140533334Y-82383333D01*
X140628572Y-82430952D01*
X140676191Y-82478571D01*
X140723810Y-82573810D01*
X140723810Y-82811905D01*
X140676191Y-82907143D01*
X140628572Y-82954762D01*
X140533334Y-83002381D01*
X140295238Y-83002381D01*
X140200000Y-82954762D01*
X140152381Y-82907143D01*
X162711143Y-72096381D02*
X163377810Y-72096381D01*
X162949238Y-73096381D01*
X164187334Y-72429714D02*
X164187334Y-73096381D01*
X163949238Y-72048762D02*
X163711143Y-72763048D01*
X164330191Y-72763048D01*
X165187334Y-73096381D02*
X164711143Y-73096381D01*
X164711143Y-72096381D01*
X165473048Y-73048762D02*
X165615905Y-73096381D01*
X165854001Y-73096381D01*
X165949239Y-73048762D01*
X165996858Y-73001143D01*
X166044477Y-72905905D01*
X166044477Y-72810667D01*
X165996858Y-72715429D01*
X165949239Y-72667810D01*
X165854001Y-72620190D01*
X165663524Y-72572571D01*
X165568286Y-72524952D01*
X165520667Y-72477333D01*
X165473048Y-72382095D01*
X165473048Y-72286857D01*
X165520667Y-72191619D01*
X165568286Y-72144000D01*
X165663524Y-72096381D01*
X165901620Y-72096381D01*
X166044477Y-72144000D01*
X166377810Y-72096381D02*
X167044477Y-72096381D01*
X166615905Y-73096381D01*
X167854001Y-72429714D02*
X167854001Y-73096381D01*
X167615905Y-72048762D02*
X167377810Y-72763048D01*
X167996858Y-72763048D01*
X164123810Y-83002381D02*
X164123810Y-82002381D01*
X165171429Y-82907143D02*
X165123810Y-82954762D01*
X164980953Y-83002381D01*
X164885715Y-83002381D01*
X164742857Y-82954762D01*
X164647619Y-82859524D01*
X164600000Y-82764286D01*
X164552381Y-82573810D01*
X164552381Y-82430952D01*
X164600000Y-82240476D01*
X164647619Y-82145238D01*
X164742857Y-82050000D01*
X164885715Y-82002381D01*
X164980953Y-82002381D01*
X165123810Y-82050000D01*
X165171429Y-82097619D01*
X165504762Y-82002381D02*
X166171429Y-82002381D01*
X165742857Y-83002381D01*
X174934952Y-72096381D02*
X175601619Y-72096381D01*
X175173047Y-73096381D01*
X176411143Y-72429714D02*
X176411143Y-73096381D01*
X176173047Y-72048762D02*
X175934952Y-72763048D01*
X176554000Y-72763048D01*
X177411143Y-73096381D02*
X176934952Y-73096381D01*
X176934952Y-72096381D01*
X177696857Y-73048762D02*
X177839714Y-73096381D01*
X178077810Y-73096381D01*
X178173048Y-73048762D01*
X178220667Y-73001143D01*
X178268286Y-72905905D01*
X178268286Y-72810667D01*
X178220667Y-72715429D01*
X178173048Y-72667810D01*
X178077810Y-72620190D01*
X177887333Y-72572571D01*
X177792095Y-72524952D01*
X177744476Y-72477333D01*
X177696857Y-72382095D01*
X177696857Y-72286857D01*
X177744476Y-72191619D01*
X177792095Y-72144000D01*
X177887333Y-72096381D01*
X178125429Y-72096381D01*
X178268286Y-72144000D01*
X179220667Y-73096381D02*
X178649238Y-73096381D01*
X178934952Y-73096381D02*
X178934952Y-72096381D01*
X178839714Y-72239238D01*
X178744476Y-72334476D01*
X178649238Y-72382095D01*
X179601619Y-72191619D02*
X179649238Y-72144000D01*
X179744476Y-72096381D01*
X179982572Y-72096381D01*
X180077810Y-72144000D01*
X180125429Y-72191619D01*
X180173048Y-72286857D01*
X180173048Y-72382095D01*
X180125429Y-72524952D01*
X179554000Y-73096381D01*
X180173048Y-73096381D01*
X181077810Y-72096381D02*
X180601619Y-72096381D01*
X180554000Y-72572571D01*
X180601619Y-72524952D01*
X180696857Y-72477333D01*
X180934953Y-72477333D01*
X181030191Y-72524952D01*
X181077810Y-72572571D01*
X181125429Y-72667810D01*
X181125429Y-72905905D01*
X181077810Y-73001143D01*
X181030191Y-73048762D01*
X180934953Y-73096381D01*
X180696857Y-73096381D01*
X180601619Y-73048762D01*
X180554000Y-73001143D01*
X176823810Y-83002381D02*
X176823810Y-82002381D01*
X177871429Y-82907143D02*
X177823810Y-82954762D01*
X177680953Y-83002381D01*
X177585715Y-83002381D01*
X177442857Y-82954762D01*
X177347619Y-82859524D01*
X177300000Y-82764286D01*
X177252381Y-82573810D01*
X177252381Y-82430952D01*
X177300000Y-82240476D01*
X177347619Y-82145238D01*
X177442857Y-82050000D01*
X177585715Y-82002381D01*
X177680953Y-82002381D01*
X177823810Y-82050000D01*
X177871429Y-82097619D01*
X178442857Y-82430952D02*
X178347619Y-82383333D01*
X178300000Y-82335714D01*
X178252381Y-82240476D01*
X178252381Y-82192857D01*
X178300000Y-82097619D01*
X178347619Y-82050000D01*
X178442857Y-82002381D01*
X178633334Y-82002381D01*
X178728572Y-82050000D01*
X178776191Y-82097619D01*
X178823810Y-82192857D01*
X178823810Y-82240476D01*
X178776191Y-82335714D01*
X178728572Y-82383333D01*
X178633334Y-82430952D01*
X178442857Y-82430952D01*
X178347619Y-82478571D01*
X178300000Y-82526190D01*
X178252381Y-82621429D01*
X178252381Y-82811905D01*
X178300000Y-82907143D01*
X178347619Y-82954762D01*
X178442857Y-83002381D01*
X178633334Y-83002381D01*
X178728572Y-82954762D01*
X178776191Y-82907143D01*
X178823810Y-82811905D01*
X178823810Y-82621429D01*
X178776191Y-82526190D01*
X178728572Y-82478571D01*
X178633334Y-82430952D01*
X163727143Y-136462381D02*
X164393810Y-136462381D01*
X163965238Y-137462381D01*
X165203334Y-136795714D02*
X165203334Y-137462381D01*
X164965238Y-136414762D02*
X164727143Y-137129048D01*
X165346191Y-137129048D01*
X166203334Y-137462381D02*
X165727143Y-137462381D01*
X165727143Y-136462381D01*
X166489048Y-137414762D02*
X166631905Y-137462381D01*
X166870001Y-137462381D01*
X166965239Y-137414762D01*
X167012858Y-137367143D01*
X167060477Y-137271905D01*
X167060477Y-137176667D01*
X167012858Y-137081429D01*
X166965239Y-137033810D01*
X166870001Y-136986190D01*
X166679524Y-136938571D01*
X166584286Y-136890952D01*
X166536667Y-136843333D01*
X166489048Y-136748095D01*
X166489048Y-136652857D01*
X166536667Y-136557619D01*
X166584286Y-136510000D01*
X166679524Y-136462381D01*
X166917620Y-136462381D01*
X167060477Y-136510000D01*
X167393810Y-136462381D02*
X168012858Y-136462381D01*
X167679524Y-136843333D01*
X167822382Y-136843333D01*
X167917620Y-136890952D01*
X167965239Y-136938571D01*
X168012858Y-137033810D01*
X168012858Y-137271905D01*
X167965239Y-137367143D01*
X167917620Y-137414762D01*
X167822382Y-137462381D01*
X167536667Y-137462381D01*
X167441429Y-137414762D01*
X167393810Y-137367143D01*
X168393810Y-136557619D02*
X168441429Y-136510000D01*
X168536667Y-136462381D01*
X168774763Y-136462381D01*
X168870001Y-136510000D01*
X168917620Y-136557619D01*
X168965239Y-136652857D01*
X168965239Y-136748095D01*
X168917620Y-136890952D01*
X168346191Y-137462381D01*
X168965239Y-137462381D01*
X165393810Y-127452381D02*
X165393810Y-126452381D01*
X166441429Y-127357143D02*
X166393810Y-127404762D01*
X166250953Y-127452381D01*
X166155715Y-127452381D01*
X166012857Y-127404762D01*
X165917619Y-127309524D01*
X165870000Y-127214286D01*
X165822381Y-127023810D01*
X165822381Y-126880952D01*
X165870000Y-126690476D01*
X165917619Y-126595238D01*
X166012857Y-126500000D01*
X166155715Y-126452381D01*
X166250953Y-126452381D01*
X166393810Y-126500000D01*
X166441429Y-126547619D01*
X166917619Y-127452381D02*
X167108095Y-127452381D01*
X167203334Y-127404762D01*
X167250953Y-127357143D01*
X167346191Y-127214286D01*
X167393810Y-127023810D01*
X167393810Y-126642857D01*
X167346191Y-126547619D01*
X167298572Y-126500000D01*
X167203334Y-126452381D01*
X167012857Y-126452381D01*
X166917619Y-126500000D01*
X166870000Y-126547619D01*
X166822381Y-126642857D01*
X166822381Y-126880952D01*
X166870000Y-126976190D01*
X166917619Y-127023810D01*
X167012857Y-127071429D01*
X167203334Y-127071429D01*
X167298572Y-127023810D01*
X167346191Y-126976190D01*
X167393810Y-126880952D01*
X175157143Y-136462381D02*
X175823810Y-136462381D01*
X175395238Y-137462381D01*
X176633334Y-136795714D02*
X176633334Y-137462381D01*
X176395238Y-136414762D02*
X176157143Y-137129048D01*
X176776191Y-137129048D01*
X177633334Y-137462381D02*
X177157143Y-137462381D01*
X177157143Y-136462381D01*
X177919048Y-137414762D02*
X178061905Y-137462381D01*
X178300001Y-137462381D01*
X178395239Y-137414762D01*
X178442858Y-137367143D01*
X178490477Y-137271905D01*
X178490477Y-137176667D01*
X178442858Y-137081429D01*
X178395239Y-137033810D01*
X178300001Y-136986190D01*
X178109524Y-136938571D01*
X178014286Y-136890952D01*
X177966667Y-136843333D01*
X177919048Y-136748095D01*
X177919048Y-136652857D01*
X177966667Y-136557619D01*
X178014286Y-136510000D01*
X178109524Y-136462381D01*
X178347620Y-136462381D01*
X178490477Y-136510000D01*
X179109524Y-136462381D02*
X179204763Y-136462381D01*
X179300001Y-136510000D01*
X179347620Y-136557619D01*
X179395239Y-136652857D01*
X179442858Y-136843333D01*
X179442858Y-137081429D01*
X179395239Y-137271905D01*
X179347620Y-137367143D01*
X179300001Y-137414762D01*
X179204763Y-137462381D01*
X179109524Y-137462381D01*
X179014286Y-137414762D01*
X178966667Y-137367143D01*
X178919048Y-137271905D01*
X178871429Y-137081429D01*
X178871429Y-136843333D01*
X178919048Y-136652857D01*
X178966667Y-136557619D01*
X179014286Y-136510000D01*
X179109524Y-136462381D01*
X180061905Y-136462381D02*
X180157144Y-136462381D01*
X180252382Y-136510000D01*
X180300001Y-136557619D01*
X180347620Y-136652857D01*
X180395239Y-136843333D01*
X180395239Y-137081429D01*
X180347620Y-137271905D01*
X180300001Y-137367143D01*
X180252382Y-137414762D01*
X180157144Y-137462381D01*
X180061905Y-137462381D01*
X179966667Y-137414762D01*
X179919048Y-137367143D01*
X179871429Y-137271905D01*
X179823810Y-137081429D01*
X179823810Y-136843333D01*
X179871429Y-136652857D01*
X179919048Y-136557619D01*
X179966667Y-136510000D01*
X180061905Y-136462381D01*
X176347619Y-127452381D02*
X176347619Y-126452381D01*
X177395238Y-127357143D02*
X177347619Y-127404762D01*
X177204762Y-127452381D01*
X177109524Y-127452381D01*
X176966666Y-127404762D01*
X176871428Y-127309524D01*
X176823809Y-127214286D01*
X176776190Y-127023810D01*
X176776190Y-126880952D01*
X176823809Y-126690476D01*
X176871428Y-126595238D01*
X176966666Y-126500000D01*
X177109524Y-126452381D01*
X177204762Y-126452381D01*
X177347619Y-126500000D01*
X177395238Y-126547619D01*
X178347619Y-127452381D02*
X177776190Y-127452381D01*
X178061904Y-127452381D02*
X178061904Y-126452381D01*
X177966666Y-126595238D01*
X177871428Y-126690476D01*
X177776190Y-126738095D01*
X178966666Y-126452381D02*
X179061905Y-126452381D01*
X179157143Y-126500000D01*
X179204762Y-126547619D01*
X179252381Y-126642857D01*
X179300000Y-126833333D01*
X179300000Y-127071429D01*
X179252381Y-127261905D01*
X179204762Y-127357143D01*
X179157143Y-127404762D01*
X179061905Y-127452381D01*
X178966666Y-127452381D01*
X178871428Y-127404762D01*
X178823809Y-127357143D01*
X178776190Y-127261905D01*
X178728571Y-127071429D01*
X178728571Y-126833333D01*
X178776190Y-126642857D01*
X178823809Y-126547619D01*
X178871428Y-126500000D01*
X178966666Y-126452381D01*
X172299334Y-71318381D02*
X171966000Y-70842190D01*
X171727905Y-71318381D02*
X171727905Y-70318381D01*
X172108858Y-70318381D01*
X172204096Y-70366000D01*
X172251715Y-70413619D01*
X172299334Y-70508857D01*
X172299334Y-70651714D01*
X172251715Y-70746952D01*
X172204096Y-70794571D01*
X172108858Y-70842190D01*
X171727905Y-70842190D01*
X173251715Y-71318381D02*
X172680286Y-71318381D01*
X172966000Y-71318381D02*
X172966000Y-70318381D01*
X172870762Y-70461238D01*
X172775524Y-70556476D01*
X172680286Y-70604095D01*
X156297334Y-71318381D02*
X155964000Y-70842190D01*
X155725905Y-71318381D02*
X155725905Y-70318381D01*
X156106858Y-70318381D01*
X156202096Y-70366000D01*
X156249715Y-70413619D01*
X156297334Y-70508857D01*
X156297334Y-70651714D01*
X156249715Y-70746952D01*
X156202096Y-70794571D01*
X156106858Y-70842190D01*
X155725905Y-70842190D01*
X156678286Y-70413619D02*
X156725905Y-70366000D01*
X156821143Y-70318381D01*
X157059239Y-70318381D01*
X157154477Y-70366000D01*
X157202096Y-70413619D01*
X157249715Y-70508857D01*
X157249715Y-70604095D01*
X157202096Y-70746952D01*
X156630667Y-71318381D01*
X157249715Y-71318381D01*
X106227619Y-108894286D02*
X106180000Y-108846667D01*
X106132381Y-108751429D01*
X106132381Y-108513333D01*
X106180000Y-108418095D01*
X106227619Y-108370476D01*
X106322857Y-108322857D01*
X106418095Y-108322857D01*
X106560952Y-108370476D01*
X107132381Y-108941905D01*
X107132381Y-108322857D01*
X106132381Y-107989524D02*
X106132381Y-107322857D01*
X107132381Y-107751429D01*
X107037143Y-106370476D02*
X107084762Y-106418095D01*
X107132381Y-106560952D01*
X107132381Y-106656190D01*
X107084762Y-106799048D01*
X106989524Y-106894286D01*
X106894286Y-106941905D01*
X106703810Y-106989524D01*
X106560952Y-106989524D01*
X106370476Y-106941905D01*
X106275238Y-106894286D01*
X106180000Y-106799048D01*
X106132381Y-106656190D01*
X106132381Y-106560952D01*
X106180000Y-106418095D01*
X106227619Y-106370476D01*
X106132381Y-105513333D02*
X106132381Y-105703810D01*
X106180000Y-105799048D01*
X106227619Y-105846667D01*
X106370476Y-105941905D01*
X106560952Y-105989524D01*
X106941905Y-105989524D01*
X107037143Y-105941905D01*
X107084762Y-105894286D01*
X107132381Y-105799048D01*
X107132381Y-105608571D01*
X107084762Y-105513333D01*
X107037143Y-105465714D01*
X106941905Y-105418095D01*
X106703810Y-105418095D01*
X106608571Y-105465714D01*
X106560952Y-105513333D01*
X106513333Y-105608571D01*
X106513333Y-105799048D01*
X106560952Y-105894286D01*
X106608571Y-105941905D01*
X106703810Y-105989524D01*
X106465714Y-104560952D02*
X107132381Y-104560952D01*
X106084762Y-104799048D02*
X106799048Y-105037143D01*
X106799048Y-104418095D01*
X103592381Y-107441905D02*
X104401905Y-107441905D01*
X104497143Y-107394286D01*
X104544762Y-107346667D01*
X104592381Y-107251429D01*
X104592381Y-107060952D01*
X104544762Y-106965714D01*
X104497143Y-106918095D01*
X104401905Y-106870476D01*
X103592381Y-106870476D01*
X104592381Y-105870476D02*
X104592381Y-106441905D01*
X104592381Y-106156191D02*
X103592381Y-106156191D01*
X103735238Y-106251429D01*
X103830476Y-106346667D01*
X103878095Y-106441905D01*
X144232381Y-107441905D02*
X145041905Y-107441905D01*
X145137143Y-107394286D01*
X145184762Y-107346667D01*
X145232381Y-107251429D01*
X145232381Y-107060952D01*
X145184762Y-106965714D01*
X145137143Y-106918095D01*
X145041905Y-106870476D01*
X144232381Y-106870476D01*
X144327619Y-106441905D02*
X144280000Y-106394286D01*
X144232381Y-106299048D01*
X144232381Y-106060952D01*
X144280000Y-105965714D01*
X144327619Y-105918095D01*
X144422857Y-105870476D01*
X144518095Y-105870476D01*
X144660952Y-105918095D01*
X145232381Y-106489524D01*
X145232381Y-105870476D01*
D18*
X167385000Y-106966190D02*
X167385000Y-106466190D01*
X167615953Y-106466190D01*
X167754524Y-106490000D01*
X167846905Y-106537619D01*
X167893096Y-106585238D01*
X167939286Y-106680476D01*
X167939286Y-106751905D01*
X167893096Y-106847143D01*
X167846905Y-106894762D01*
X167754524Y-106942381D01*
X167615953Y-106966190D01*
X167385000Y-106966190D01*
X168355000Y-106704286D02*
X168678334Y-106704286D01*
X168816905Y-106966190D02*
X168355000Y-106966190D01*
X168355000Y-106466190D01*
X168816905Y-106466190D01*
X169186429Y-106942381D02*
X169325000Y-106966190D01*
X169555953Y-106966190D01*
X169648334Y-106942381D01*
X169694524Y-106918571D01*
X169740715Y-106870952D01*
X169740715Y-106823333D01*
X169694524Y-106775714D01*
X169648334Y-106751905D01*
X169555953Y-106728095D01*
X169371191Y-106704286D01*
X169278810Y-106680476D01*
X169232619Y-106656667D01*
X169186429Y-106609048D01*
X169186429Y-106561429D01*
X169232619Y-106513810D01*
X169278810Y-106490000D01*
X169371191Y-106466190D01*
X169602143Y-106466190D01*
X169740715Y-106490000D01*
X170156429Y-106966190D02*
X170156429Y-106466190D01*
X171126430Y-106490000D02*
X171034049Y-106466190D01*
X170895477Y-106466190D01*
X170756906Y-106490000D01*
X170664525Y-106537619D01*
X170618334Y-106585238D01*
X170572144Y-106680476D01*
X170572144Y-106751905D01*
X170618334Y-106847143D01*
X170664525Y-106894762D01*
X170756906Y-106942381D01*
X170895477Y-106966190D01*
X170987858Y-106966190D01*
X171126430Y-106942381D01*
X171172620Y-106918571D01*
X171172620Y-106751905D01*
X170987858Y-106751905D01*
X171588334Y-106966190D02*
X171588334Y-106466190D01*
X172142620Y-106966190D01*
X172142620Y-106466190D01*
X172604524Y-106704286D02*
X172927858Y-106704286D01*
X173066429Y-106966190D02*
X172604524Y-106966190D01*
X172604524Y-106466190D01*
X173066429Y-106466190D01*
X173482143Y-106966190D02*
X173482143Y-106466190D01*
X173713096Y-106466190D01*
X173851667Y-106490000D01*
X173944048Y-106537619D01*
X173990239Y-106585238D01*
X174036429Y-106680476D01*
X174036429Y-106751905D01*
X173990239Y-106847143D01*
X173944048Y-106894762D01*
X173851667Y-106942381D01*
X173713096Y-106966190D01*
X173482143Y-106966190D01*
X175098810Y-106466190D02*
X175329763Y-106966190D01*
X175514525Y-106609048D01*
X175699287Y-106966190D01*
X175930239Y-106466190D01*
X176299762Y-106966190D02*
X176299762Y-106466190D01*
X176623096Y-106466190D02*
X177177382Y-106466190D01*
X176900239Y-106966190D02*
X176900239Y-106466190D01*
X177500715Y-106966190D02*
X177500715Y-106466190D01*
X177500715Y-106704286D02*
X178055001Y-106704286D01*
X178055001Y-106966190D02*
X178055001Y-106466190D01*
M02*
